<svg width="18" height="19" viewBox="0 0 18 19" fill="none" xmlns="http://www.w3.org/2000/svg">
<path d="M0.317017 1.66965C0.317017 1.25544 0.652807 0.919647 1.06702 0.919647H1.62528C2.57575 0.919647 3.14484 1.55864 3.47027 2.15264C3.68718 2.54859 3.8441 3.00783 3.96684 3.4236C4.00008 3.42099 4.03376 3.41965 4.06782 3.41965H16.5651C17.3953 3.41965 17.9948 4.21407 17.7672 5.01245L15.9394 11.4215C15.6026 12.6028 14.5232 13.4174 13.2949 13.4174H7.34679C6.1083 13.4174 5.02262 12.5895 4.69485 11.3952L3.93436 8.62415L2.67576 4.37543L2.67372 4.36799C2.51802 3.80016 2.37189 3.2697 2.15475 2.87335C1.94388 2.48845 1.77579 2.41965 1.62528 2.41965H1.06702C0.652807 2.41965 0.317017 2.08386 0.317017 1.66965ZM6.81702 18.4196C7.92162 18.4196 8.81702 17.5242 8.81702 16.4196C8.81702 15.315 7.92162 14.4196 6.81702 14.4196C5.71245 14.4196 4.81702 15.315 4.81702 16.4196C4.81702 17.5242 5.71245 18.4196 6.81702 18.4196ZM13.817 18.4196C14.9216 18.4196 15.817 17.5242 15.817 16.4196C15.817 15.315 14.9216 14.4196 13.817 14.4196C12.7124 14.4196 11.817 15.315 11.817 16.4196C11.817 17.5242 12.7124 18.4196 13.817 18.4196Z" fill="#FDFDFD"/>
</svg>
