<svg width="38" height="33" viewBox="0 0 38 33" fill="none" xmlns="http://www.w3.org/2000/svg">
<path fill-rule="evenodd" clip-rule="evenodd" d="M22.4041 5.5145L36.2966 0.208474C36.8746 -0.0095396 37.4887 0.423417 37.4887 1.05289V25.8082C37.4887 26.4192 37.1124 26.9689 36.5465 27.1777L36.1883 27.3097C35.2551 27.6536 34.2707 26.9505 34.2707 25.9372V16.3568L24.5354 20.0753C23.2289 20.5728 22.3619 21.8471 22.3619 23.2719V31.4059C22.3619 32.02 21.9826 32.5697 21.4167 32.7816C20.4805 33.1285 19.4901 32.4223 19.4901 31.4059V21.4694C19.4901 21.0027 19.6677 20.5544 19.9868 20.2197C20.6521 19.5257 22.3379 19.3691 22.7954 19.3415C22.3379 19.3138 20.6491 19.1572 19.9868 18.4633C19.6677 18.1286 19.4901 17.6803 19.4901 17.2135V9.80107C19.4901 7.89115 20.6521 6.18389 22.4041 5.5145ZM25.7124 17.3057L34.2707 13.9096V4.61481L25.288 8.01705C23.5299 8.68337 22.3619 10.3937 22.3619 12.3098V14.9658C22.3619 16.7315 24.1019 17.9443 25.7124 17.3057ZM1.9942 0.208596L15.8868 5.51462V5.51769C17.6388 6.18708 18.8007 7.89434 18.8007 9.80427V17.2137C18.8007 17.6835 18.6231 18.1318 18.304 18.4665C17.6418 19.1604 16.0674 19.2955 15.6098 19.3232C16.0674 19.3508 17.6418 19.5289 18.304 20.2229L18.3131 20.2321C18.6261 20.5606 18.8007 21.0028 18.8007 21.4603V31.406C18.8007 32.4193 17.8103 33.1286 16.8741 32.7817L16.5159 32.6496C15.95 32.4408 15.5707 31.8912 15.5707 31.274V23.272C15.5707 21.8472 14.7037 20.5729 13.3972 20.0755L3.66191 16.357V25.8052C3.66191 26.8155 2.67754 27.5186 1.74435 27.1747C1.17841 26.9659 0.802124 26.4194 0.802124 25.8052V1.05301C0.802124 0.423539 1.41623 -0.00941752 1.9942 0.208596ZM12.2473 17.3641C13.8548 17.9782 15.5707 16.7653 15.5707 15.0151V12.4081C15.5707 10.489 14.3967 8.77561 12.6326 8.11236L3.66191 4.74696V14.0755L12.2473 17.3641Z" fill="#948675"/>
</svg>
