<svg width="178" height="33" viewBox="0 0 178 33" fill="none" xmlns="http://www.w3.org/2000/svg">
<path fill-rule="evenodd" clip-rule="evenodd" d="M22.4041 5.5145L36.2966 0.208474C36.8746 -0.0095396 37.4887 0.423417 37.4887 1.05289V25.8082C37.4887 26.4192 37.1124 26.9689 36.5465 27.1777L36.1883 27.3097C35.2551 27.6536 34.2707 26.9505 34.2707 25.9372V16.3568L24.5354 20.0753C23.2289 20.5728 22.3619 21.8471 22.3619 23.2719V31.4059C22.3619 32.02 21.9826 32.5697 21.4167 32.7816C20.4805 33.1285 19.4901 32.4223 19.4901 31.4059V21.4694C19.4901 21.0027 19.6677 20.5544 19.9868 20.2197C20.6521 19.5257 22.3379 19.3691 22.7954 19.3415C22.3379 19.3138 20.6491 19.1572 19.9868 18.4633C19.6677 18.1286 19.4901 17.6803 19.4901 17.2135V9.80107C19.4901 7.89115 20.6521 6.18389 22.4041 5.5145ZM25.7124 17.3057L34.2707 13.9096V4.61481L25.288 8.01705C23.5299 8.68337 22.3619 10.3937 22.3619 12.3098V14.9658C22.3619 16.7315 24.1019 17.9443 25.7124 17.3057ZM1.9942 0.208596L15.8868 5.51462V5.51769C17.6388 6.18708 18.8007 7.89434 18.8007 9.80427V17.2137C18.8007 17.6835 18.6231 18.1318 18.304 18.4665C17.6418 19.1604 16.0674 19.2955 15.6098 19.3232C16.0674 19.3508 17.6418 19.5289 18.304 20.2229L18.3131 20.2321C18.6261 20.5606 18.8007 21.0028 18.8007 21.4603V31.406C18.8007 32.4193 17.8103 33.1286 16.8741 32.7817L16.5159 32.6496C15.95 32.4408 15.5707 31.8912 15.5707 31.274V23.272C15.5707 21.8472 14.7037 20.5729 13.3972 20.0755L3.66191 16.357V25.8052C3.66191 26.8155 2.67754 27.5186 1.74435 27.1747C1.17841 26.9659 0.802124 26.4194 0.802124 25.8052V1.05301C0.802124 0.423539 1.41623 -0.00941752 1.9942 0.208596ZM12.2473 17.3641C13.8548 17.9782 15.5707 16.7653 15.5707 15.0151V12.4081C15.5707 10.489 14.3967 8.77561 12.6326 8.11236L3.66191 4.74696V14.0755L12.2473 17.3641Z" fill="#948675"/>
<path d="M52.3776 10.8235C52.3776 13.4315 51.2576 15.1355 49.0176 15.9355C48.3936 16.1595 47.8176 16.2715 47.2896 16.2715L52.2576 22.8955H49.0176L43.1616 14.6635H43.1136V22.8955H40.5216V5.13551H46.0176C48.1616 5.13551 49.7376 5.63151 50.7456 6.62351C51.8336 7.66351 52.3776 9.06351 52.3776 10.8235ZM49.7856 10.8235C49.7856 9.75151 49.4016 8.93551 48.6336 8.37551C47.8816 7.79951 46.9536 7.51151 45.8496 7.51151H43.1136V14.3035H44.8896C45.5296 14.3035 46.1136 14.2555 46.6416 14.1595C47.1696 14.0475 47.6816 13.8715 48.1776 13.6315C48.6736 13.3915 49.0656 13.0315 49.3536 12.5515C49.6416 12.0715 49.7856 11.4955 49.7856 10.8235ZM67.7316 16.0795C67.7316 16.4955 67.7076 16.9115 67.6596 17.3275H56.6436C56.8996 18.3835 57.4196 19.2555 58.2036 19.9435C59.0036 20.6155 59.9396 20.9515 61.0116 20.9515C61.7956 20.9515 62.5316 20.7515 63.2196 20.3515C63.9236 19.9515 64.4516 19.4075 64.8036 18.7195H67.2996C66.7876 20.0795 65.9556 21.1755 64.8036 22.0075C63.6516 22.8235 62.3556 23.2315 60.9156 23.2315C59.0436 23.2315 57.4436 22.5355 56.1156 21.1435C54.8036 19.7515 54.1476 18.1115 54.1476 16.2235C54.1476 14.2875 54.8036 12.6395 56.1156 11.2795C57.4276 9.91951 59.0436 9.23951 60.9636 9.23951C62.8356 9.23951 64.4276 9.91151 65.7396 11.2555C67.0676 12.5995 67.7316 14.2075 67.7316 16.0795ZM65.2356 15.4075C65.1716 14.3195 64.7076 13.3995 63.8436 12.6475C62.9956 11.8955 62.0276 11.5195 60.9396 11.5195C59.8516 11.5195 58.8756 11.8955 58.0116 12.6475C57.1636 13.3995 56.7076 14.3195 56.6436 15.4075H65.2356ZM83.634 22.8955H81.138V20.8315H81.09C80.642 21.6155 80.01 22.2155 79.194 22.6315C78.394 23.0315 77.522 23.2315 76.578 23.2315C74.578 23.2315 72.898 22.5755 71.538 21.2635C70.194 19.9515 69.522 18.2955 69.522 16.2955C69.522 14.2795 70.194 12.5995 71.538 11.2555C72.882 9.91151 74.562 9.23951 76.578 9.23951C77.506 9.23951 78.37 9.43151 79.17 9.81551C79.97 10.1835 80.61 10.7355 81.09 11.4715H81.138V9.59951H83.634V22.8955ZM81.186 16.2715C81.186 14.9275 80.754 13.7995 79.89 12.8875C79.026 11.9755 77.922 11.5195 76.578 11.5195C75.282 11.5195 74.194 11.9835 73.314 12.9115C72.45 13.8395 72.018 14.9595 72.018 16.2715C72.018 17.5355 72.458 18.6315 73.338 19.5595C74.218 20.4875 75.29 20.9515 76.554 20.9515C77.85 20.9515 78.946 20.4955 79.842 19.5835C80.738 18.6715 81.186 17.5675 81.186 16.2715ZM100.131 22.8955H97.8267V20.9995H97.7787C96.7067 22.4875 95.1387 23.2315 93.0747 23.2315C91.0907 23.2315 89.4427 22.5755 88.1307 21.2635C86.8187 19.9355 86.1627 18.2795 86.1627 16.2955C86.1627 14.2955 86.8107 12.6235 88.1067 11.2795C89.4187 9.91951 91.0747 9.23951 93.0747 9.23951C93.9547 9.23951 94.7947 9.41551 95.5947 9.76751C96.4107 10.1035 97.0747 10.5915 97.5867 11.2315H97.6347V5.13551H100.131V22.8955ZM97.8267 16.2715C97.8267 14.9275 97.3947 13.7995 96.5307 12.8875C95.6667 11.9755 94.5627 11.5195 93.2187 11.5195C91.9227 11.5195 90.8347 11.9835 89.9547 12.9115C89.0907 13.8395 88.6587 14.9595 88.6587 16.2715C88.6587 17.5355 89.0987 18.6315 89.9787 19.5595C90.8587 20.4875 91.9307 20.9515 93.1947 20.9515C94.4907 20.9515 95.5867 20.4955 96.4827 19.5835C97.3787 18.6715 97.8267 17.5675 97.8267 16.2715Z" fill="#918272"/>
<path d="M115.143 10.8235C115.143 13.4315 114.023 15.1355 111.783 15.9355C111.159 16.1595 110.583 16.2715 110.055 16.2715L115.023 22.8955H111.783L105.927 14.6635H105.879V22.8955H103.287V5.13551H108.783C110.927 5.13551 112.503 5.63151 113.511 6.62351C114.599 7.66351 115.143 9.06351 115.143 10.8235ZM112.551 10.8235C112.551 9.75151 112.167 8.93551 111.399 8.37551C110.647 7.79951 109.719 7.51151 108.615 7.51151H105.879V14.3035H107.655C108.295 14.3035 108.879 14.2555 109.407 14.1595C109.935 14.0475 110.447 13.8715 110.943 13.6315C111.439 13.3915 111.831 13.0315 112.119 12.5515C112.407 12.0715 112.551 11.4955 112.551 10.8235ZM130.497 16.0795C130.497 16.4955 130.473 16.9115 130.425 17.3275H119.409C119.665 18.3835 120.185 19.2555 120.969 19.9435C121.769 20.6155 122.705 20.9515 123.777 20.9515C124.561 20.9515 125.297 20.7515 125.985 20.3515C126.689 19.9515 127.217 19.4075 127.569 18.7195H130.065C129.553 20.0795 128.721 21.1755 127.569 22.0075C126.417 22.8235 125.121 23.2315 123.681 23.2315C121.809 23.2315 120.209 22.5355 118.881 21.1435C117.569 19.7515 116.913 18.1115 116.913 16.2235C116.913 14.2875 117.569 12.6395 118.881 11.2795C120.193 9.91951 121.809 9.23951 123.729 9.23951C125.601 9.23951 127.193 9.91151 128.505 11.2555C129.833 12.5995 130.497 14.2075 130.497 16.0795ZM128.001 15.4075C127.937 14.3195 127.473 13.3995 126.609 12.6475C125.761 11.8955 124.793 11.5195 123.705 11.5195C122.617 11.5195 121.641 11.8955 120.777 12.6475C119.929 13.3995 119.473 14.3195 119.409 15.4075H128.001ZM146.4 22.8955H143.904V20.8315H143.856C143.408 21.6155 142.776 22.2155 141.96 22.6315C141.16 23.0315 140.288 23.2315 139.344 23.2315C137.344 23.2315 135.664 22.5755 134.304 21.2635C132.96 19.9515 132.288 18.2955 132.288 16.2955C132.288 14.2795 132.96 12.5995 134.304 11.2555C135.648 9.91151 137.328 9.23951 139.344 9.23951C140.272 9.23951 141.136 9.43151 141.936 9.81551C142.736 10.1835 143.376 10.7355 143.856 11.4715H143.904V9.59951H146.4V22.8955ZM143.952 16.2715C143.952 14.9275 143.52 13.7995 142.656 12.8875C141.792 11.9755 140.688 11.5195 139.344 11.5195C138.048 11.5195 136.96 11.9835 136.08 12.9115C135.216 13.8395 134.784 14.9595 134.784 16.2715C134.784 17.5355 135.224 18.6315 136.104 19.5595C136.984 20.4875 138.056 20.9515 139.32 20.9515C140.616 20.9515 141.712 20.4955 142.608 19.5835C143.504 18.6715 143.952 17.5675 143.952 16.2715ZM152.237 22.8955H149.741V5.13551H152.237V22.8955ZM175.572 22.8955H173.076V15.5035C173.076 12.8475 172.028 11.5195 169.932 11.5195C168.732 11.5195 167.9 11.8715 167.436 12.5755C166.988 13.2635 166.764 14.2315 166.764 15.4795V22.8955H164.268V15.5035C164.268 14.2715 164.084 13.3595 163.716 12.7675C163.172 11.9355 162.348 11.5195 161.244 11.5195C159.052 11.5195 157.956 12.8395 157.956 15.4795V22.8955H155.46V9.59951H157.764V11.0395H157.812C158.372 10.3835 158.932 9.91951 159.492 9.64751C160.052 9.37551 160.764 9.23951 161.628 9.23951C162.476 9.23951 163.292 9.43951 164.076 9.83951C164.86 10.2235 165.42 10.7675 165.756 11.4715C166.7 9.98351 168.164 9.23951 170.148 9.23951C171.892 9.23951 173.228 9.74351 174.156 10.7515C175.1 11.7595 175.572 13.1355 175.572 14.8795V22.8955Z" fill="black"/>
</svg>
