<svg width="25" height="24" viewBox="0 0 25 24" fill="none" xmlns="http://www.w3.org/2000/svg">
<path fill-rule="evenodd" clip-rule="evenodd" d="M2.96143 11.3802C2.96143 6.26289 7.10981 2.1145 12.2271 2.1145C17.3444 2.1145 21.4928 6.26289 21.4928 11.3802C21.4928 13.7201 20.6255 15.8574 19.1947 17.4882L19.1135 17.4238L18.4976 18.2019C16.8476 19.7193 14.6455 20.6459 12.2271 20.6459C7.10981 20.6459 2.96143 16.4975 2.96143 11.3802ZM19.3169 20.1357C17.3808 21.7054 14.9138 22.6459 12.2271 22.6459C6.00525 22.6459 0.961426 17.6021 0.961426 11.3802C0.961426 5.15832 6.00525 0.114502 12.2271 0.114502C18.449 0.114502 23.4928 5.15832 23.4928 11.3802C23.4928 14.1891 22.4648 16.7579 20.7645 18.7309L24.4274 21.6306C24.8604 21.9734 24.9335 22.6024 24.5907 23.0354C24.2479 23.4684 23.619 23.5415 23.186 23.1987L19.3169 20.1357Z" fill="#484848" fill-opacity="0.21"/>
</svg>
