<svg width="62" height="13" viewBox="0 0 62 13" fill="none" xmlns="http://www.w3.org/2000/svg">
<path d="M6.76941 11.859C6.76941 12.6038 6.39701 12.9762 5.65222 12.9762H1.83972C1.11576 12.9762 0.753784 12.6038 0.753784 11.859V1.87463C0.753784 1.12463 1.11576 0.749634 1.83972 0.749634H5.65222C6.39701 0.749634 6.76941 1.12463 6.76941 1.87463V4.73401H4.9491V2.31995H2.58191V11.4059H4.9491V8.83557H6.76941V11.859ZM14.4022 12.9762H12.5897L12.2225 10.6559H9.93347L9.56628 12.9762H7.7616V12.9449L10.1288 0.734009H12.0507L14.4022 12.9762ZM11.9647 9.08557L11.0741 3.56995L10.1757 9.08557H11.9647ZM20.7382 2.36682H18.7225V12.9762H16.9022V2.36682H14.8866V0.749634H20.7382V2.36682ZM27.6913 11.859C27.6913 12.6038 27.3189 12.9762 26.5741 12.9762H22.7616C22.0376 12.9762 21.6757 12.6038 21.6757 11.859V1.87463C21.6757 1.12463 22.0376 0.749634 22.7616 0.749634H26.5741C27.3189 0.749634 27.6913 1.12463 27.6913 1.87463V4.73401H25.871V2.31995H23.5038V11.4059H25.871V8.83557H27.6913V11.859ZM35.2772 12.9762H33.4335V7.49182H30.9569V12.9762H29.1288V0.749634H30.9569V5.7887H33.4335V0.749634H35.2772V12.9762ZM43.621 9.08557H39.8944V7.45276H43.621V9.08557ZM54.0116 4.2262C54.0116 4.61161 53.8788 5.0387 53.6132 5.50745L50.2538 11.3746H53.996V12.9762H48.0663V11.8434L52.2069 4.56213V2.30432H49.9803V4.57776H48.1913V1.85901C48.1913 1.11943 48.5637 0.749634 49.3085 0.749634H52.8944C53.6392 0.749634 54.0116 1.11943 54.0116 1.85901V4.2262ZM61.0741 4.2262C61.0741 4.61161 60.9413 5.0387 60.6757 5.50745L57.3163 11.3746H61.0585V12.9762H55.1288V11.8434L59.2694 4.56213V2.30432H57.0428V4.57776H55.2538V1.85901C55.2538 1.11943 55.6262 0.749634 56.371 0.749634H59.9569C60.7017 0.749634 61.0741 1.11943 61.0741 1.85901V4.2262Z" fill="#6B6B6B"/>
</svg>
