<svg width="80" height="13" viewBox="0 0 80 13" fill="none" xmlns="http://www.w3.org/2000/svg">
<path d="M0.371033 0.491821C1.25124 0.523071 2.15749 0.538696 3.08978 0.538696C4.02728 0.538696 4.93353 0.523071 5.80853 0.491821C5.82937 0.575155 5.83978 0.632446 5.83978 0.663696C5.83978 0.700155 5.82937 0.765259 5.80853 0.859009C5.65228 0.874634 5.52728 0.887655 5.43353 0.898071C5.33978 0.908488 5.20957 0.926717 5.04291 0.952759C4.88145 0.9788 4.74864 1.01005 4.64447 1.04651C4.54551 1.07776 4.44135 1.11943 4.33197 1.17151C4.2226 1.22359 4.13926 1.28609 4.08197 1.35901C4.02989 1.43193 4.00385 1.51526 4.00385 1.60901C3.98301 2.30172 3.9726 4.20536 3.9726 7.31995C3.9726 8.80432 4.21999 9.88245 4.71478 10.5543C5.21478 11.2262 6.06114 11.5621 7.25385 11.5621C8.45697 11.5621 9.38405 11.1976 10.0351 10.4684C10.6861 9.73401 11.0117 8.68453 11.0117 7.31995C11.0117 4.83557 10.996 2.96838 10.9648 1.71838C10.9544 1.24963 10.3788 0.963175 9.23822 0.859009C9.21739 0.744425 9.20697 0.674113 9.20697 0.648071C9.20697 0.606405 9.21739 0.554321 9.23822 0.491821C10.0663 0.523071 10.8059 0.538696 11.457 0.538696C11.8736 0.538696 12.5742 0.523071 13.5585 0.491821C13.5794 0.554321 13.5898 0.606405 13.5898 0.648071C13.5898 0.731405 13.5794 0.801717 13.5585 0.859009C12.4283 0.963175 11.8502 1.24963 11.8242 1.71838C11.7721 2.95797 11.746 4.82515 11.746 7.31995C11.746 8.08036 11.6471 8.76005 11.4492 9.35901C11.2512 9.95276 10.9986 10.4293 10.6913 10.7887C10.3841 11.1481 10.0247 11.4449 9.61322 11.6793C9.20697 11.9137 8.81374 12.0752 8.43353 12.1637C8.05332 12.2522 7.67051 12.2965 7.2851 12.2965C6.76947 12.2965 6.30593 12.2679 5.89447 12.2106C5.48301 12.1533 5.08197 12.0569 4.69135 11.9215C4.30072 11.7809 3.96218 11.5882 3.67572 11.3434C3.38926 11.0934 3.13666 10.7887 2.91791 10.4293C2.69916 10.0699 2.5351 9.62984 2.42572 9.10901C2.31635 8.58818 2.26166 7.99182 2.26166 7.31995V6.0387C2.26166 4.2939 2.23301 2.81734 2.17572 1.60901C2.17051 1.47359 2.11062 1.35901 1.99603 1.26526C1.88145 1.1663 1.71478 1.09078 1.49603 1.0387C1.28249 0.986613 1.1002 0.950155 0.949158 0.929321C0.803324 0.90328 0.610616 0.879842 0.371033 0.859009C0.350199 0.765259 0.339783 0.700155 0.339783 0.663696C0.339783 0.632446 0.350199 0.575155 0.371033 0.491821ZM14.4413 0.491821C15.608 0.533488 16.5143 0.554321 17.1601 0.554321C17.8059 0.554321 18.7122 0.533488 19.8788 0.491821C19.8997 0.575155 19.9101 0.632446 19.9101 0.663696C19.9101 0.700155 19.8997 0.765259 19.8788 0.859009C19.6393 0.879842 19.4439 0.90328 19.2929 0.929321C19.1471 0.950155 18.9648 0.986613 18.746 1.0387C18.5325 1.09078 18.3684 1.1663 18.2538 1.26526C18.1393 1.35901 18.0794 1.47359 18.0742 1.60901C18.0064 3.37984 17.9726 5.02828 17.9726 6.55432C17.9726 7.34078 18.0012 8.98922 18.0585 11.4996H20.4726C21.2382 11.4476 21.9231 11.3356 22.5273 11.1637C23.1314 10.9918 23.6341 10.7731 24.0351 10.5074C24.4413 10.2366 24.7747 9.95797 25.0351 9.67151C25.3007 9.37984 25.5299 9.05432 25.7226 8.69495C25.858 8.74703 25.9466 8.81734 25.9882 8.90588C25.7747 9.30172 25.608 9.62203 25.4882 9.86682C25.3736 10.1116 25.246 10.4345 25.1054 10.8356C24.97 11.2314 24.8814 11.6116 24.8398 11.9762H18.0585C16.6471 11.9762 15.4361 11.9918 14.4257 12.0231C14.4049 11.9606 14.3945 11.9085 14.3945 11.8668C14.3945 11.8304 14.4049 11.7601 14.4257 11.6559C14.6653 11.6351 14.858 11.6142 15.0038 11.5934C15.1549 11.5673 15.3372 11.5283 15.5507 11.4762C15.7695 11.4241 15.9361 11.3512 16.0507 11.2574C16.1653 11.1585 16.2252 11.0413 16.2304 10.9059C16.2929 9.27568 16.3242 7.63245 16.3242 5.9762C16.3242 4.2887 16.2981 2.83297 16.246 1.60901C16.2408 1.47359 16.1809 1.35901 16.0663 1.26526C15.9518 1.1663 15.7851 1.09078 15.5663 1.0387C15.3528 0.986613 15.1705 0.950155 15.0195 0.929321C14.8736 0.90328 14.6809 0.879842 14.4413 0.859009C14.4205 0.765259 14.4101 0.700155 14.4101 0.663696C14.4101 0.611613 14.4205 0.554321 14.4413 0.491821ZM26.3476 0.491821C27.5247 0.533488 28.47 0.554321 29.1835 0.554321C30.1575 0.554321 31.0377 0.533488 31.8242 0.491821C31.845 0.575155 31.8554 0.632446 31.8554 0.663696C31.8554 0.720988 31.845 0.786092 31.8242 0.859009C31.2148 0.88505 30.7669 0.939738 30.4804 1.02307C30.1992 1.1064 30.0585 1.24182 30.0585 1.42932C30.0585 1.49703 30.1028 1.61422 30.1913 1.78088L32.5898 6.08557H32.6523L35.2773 1.71838C35.3398 1.61422 35.371 1.50745 35.371 1.39807C35.371 1.23661 35.2669 1.11943 35.0585 1.04651C34.8554 0.968384 34.5481 0.905884 34.1367 0.859009C34.1158 0.744425 34.1054 0.674113 34.1054 0.648071C34.1054 0.606405 34.1158 0.554321 34.1367 0.491821C34.8085 0.523071 35.4179 0.538696 35.9648 0.538696C36.5533 0.538696 37.1445 0.523071 37.7382 0.491821C37.7591 0.554321 37.7695 0.606405 37.7695 0.648071C37.7695 0.731405 37.7591 0.801717 37.7382 0.859009C37.358 0.895467 37.0377 0.973592 36.7773 1.09338C36.5169 1.21318 36.2929 1.42151 36.1054 1.71838L32.8632 6.95276C32.8632 8.07776 32.8893 9.39547 32.9413 10.9059C32.9466 11.0413 33.0064 11.1585 33.121 11.2574C33.2356 11.3512 33.3997 11.4241 33.6132 11.4762C33.832 11.5283 34.0143 11.5673 34.1601 11.5934C34.3111 11.6142 34.5064 11.6351 34.746 11.6559C34.7669 11.7184 34.7773 11.7887 34.7773 11.8668C34.7773 11.9085 34.7669 11.9606 34.746 12.0231C33.871 11.9918 32.9648 11.9762 32.0273 11.9762C31.095 11.9762 30.1887 11.9918 29.3085 12.0231C29.2877 11.9606 29.2773 11.9085 29.2773 11.8668C29.2773 11.7783 29.2877 11.708 29.3085 11.6559C29.5481 11.6351 29.7408 11.6142 29.8867 11.5934C30.0377 11.5673 30.22 11.5283 30.4335 11.4762C30.6523 11.4241 30.8189 11.3512 30.9335 11.2574C31.0481 11.1585 31.108 11.0413 31.1132 10.9059C31.1653 9.59859 31.1992 8.28088 31.2148 6.95276L28.1601 1.60901C27.957 1.3538 27.707 1.17411 27.4101 1.06995C27.1132 0.96578 26.7591 0.895467 26.3476 0.859009C26.3268 0.765259 26.3163 0.700155 26.3163 0.663696C26.3163 0.611613 26.3268 0.554321 26.3476 0.491821ZM45.8945 3.79651C45.6966 2.84338 45.332 2.1038 44.8007 1.57776C44.2747 1.05172 43.6419 0.788696 42.9023 0.788696C42.1783 0.788696 41.6158 0.960571 41.2148 1.30432C40.8189 1.64807 40.621 2.1064 40.621 2.67932C40.621 2.99703 40.6497 3.26005 40.707 3.46838C40.7643 3.67672 40.8814 3.87984 41.0585 4.07776C41.2356 4.27047 41.4934 4.44234 41.832 4.59338C42.1705 4.73922 42.6132 4.87984 43.1601 5.01526C43.457 5.08818 43.7148 5.15588 43.9335 5.21838C44.1575 5.28088 44.4023 5.36682 44.6679 5.4762C44.9387 5.58557 45.1705 5.70276 45.3632 5.82776C45.5611 5.95276 45.7564 6.10901 45.9492 6.29651C46.1471 6.4788 46.3059 6.68193 46.4257 6.90588C46.5507 7.12984 46.6497 7.39547 46.7226 7.70276C46.8007 8.00484 46.8398 8.33557 46.8398 8.69495C46.8398 9.17411 46.7512 9.61682 46.5742 10.0231C46.3971 10.4241 46.1653 10.7627 45.8788 11.0387C45.5924 11.3147 45.2617 11.5491 44.8867 11.7418C44.5117 11.9345 44.1314 12.0752 43.746 12.1637C43.3606 12.2522 42.9778 12.2965 42.5976 12.2965C41.4413 12.2965 40.2096 11.997 38.9023 11.3981C38.9283 10.8356 38.9413 10.4892 38.9413 10.359C38.9413 9.51005 38.871 8.6637 38.7304 7.81995C38.7877 7.78349 38.845 7.76526 38.9023 7.76526C38.9752 7.76526 39.0403 7.78349 39.0976 7.81995C39.207 8.49182 39.3867 9.08557 39.6367 9.6012C39.8919 10.1168 40.1835 10.5257 40.5117 10.8278C40.8398 11.1246 41.1783 11.3486 41.5273 11.4996C41.8814 11.6455 42.2382 11.7184 42.5976 11.7184C43.4153 11.7184 44.0429 11.5074 44.4804 11.0856C44.9231 10.6585 45.1445 10.096 45.1445 9.39807C45.1445 8.69495 44.9804 8.1663 44.6523 7.81213C44.3294 7.45276 43.7096 7.16109 42.7929 6.93713C41.6471 6.65068 40.7512 6.2288 40.1054 5.67151C39.4648 5.10901 39.1445 4.36682 39.1445 3.44495C39.1445 2.96057 39.2226 2.52828 39.3788 2.14807C39.5403 1.76265 39.746 1.45536 39.996 1.2262C40.2512 0.991821 40.5481 0.799113 40.8867 0.648071C41.2252 0.491821 41.5585 0.38505 41.8867 0.327759C42.22 0.265259 42.5585 0.234009 42.9023 0.234009C43.9335 0.234009 45.0064 0.473592 46.121 0.952759C46.0898 1.26005 46.0742 1.58036 46.0742 1.9137C46.0742 2.69495 46.1367 3.32255 46.2617 3.79651C46.1939 3.82255 46.1367 3.83557 46.0898 3.83557C46.0377 3.83557 45.9726 3.82255 45.8945 3.79651ZM55.9257 3.79651C55.7278 2.84338 55.3632 2.1038 54.832 1.57776C54.3059 1.05172 53.6731 0.788696 52.9335 0.788696C52.2096 0.788696 51.6471 0.960571 51.246 1.30432C50.8502 1.64807 50.6523 2.1064 50.6523 2.67932C50.6523 2.99703 50.6809 3.26005 50.7382 3.46838C50.7955 3.67672 50.9127 3.87984 51.0898 4.07776C51.2669 4.27047 51.5247 4.44234 51.8632 4.59338C52.2018 4.73922 52.6445 4.87984 53.1913 5.01526C53.4882 5.08818 53.746 5.15588 53.9648 5.21838C54.1887 5.28088 54.4335 5.36682 54.6992 5.4762C54.97 5.58557 55.2018 5.70276 55.3945 5.82776C55.5924 5.95276 55.7877 6.10901 55.9804 6.29651C56.1783 6.4788 56.3372 6.68193 56.457 6.90588C56.582 7.12984 56.6809 7.39547 56.7538 7.70276C56.832 8.00484 56.871 8.33557 56.871 8.69495C56.871 9.17411 56.7825 9.61682 56.6054 10.0231C56.4283 10.4241 56.1966 10.7627 55.9101 11.0387C55.6236 11.3147 55.2929 11.5491 54.9179 11.7418C54.5429 11.9345 54.1627 12.0752 53.7773 12.1637C53.3919 12.2522 53.0091 12.2965 52.6288 12.2965C51.4726 12.2965 50.2408 11.997 48.9335 11.3981C48.9596 10.8356 48.9726 10.4892 48.9726 10.359C48.9726 9.51005 48.9023 8.6637 48.7617 7.81995C48.8189 7.78349 48.8762 7.76526 48.9335 7.76526C49.0064 7.76526 49.0716 7.78349 49.1288 7.81995C49.2382 8.49182 49.4179 9.08557 49.6679 9.6012C49.9231 10.1168 50.2148 10.5257 50.5429 10.8278C50.871 11.1246 51.2096 11.3486 51.5585 11.4996C51.9127 11.6455 52.2695 11.7184 52.6288 11.7184C53.4466 11.7184 54.0742 11.5074 54.5117 11.0856C54.9544 10.6585 55.1757 10.096 55.1757 9.39807C55.1757 8.69495 55.0117 8.1663 54.6835 7.81213C54.3606 7.45276 53.7408 7.16109 52.8242 6.93713C51.6783 6.65068 50.7825 6.2288 50.1367 5.67151C49.496 5.10901 49.1757 4.36682 49.1757 3.44495C49.1757 2.96057 49.2538 2.52828 49.4101 2.14807C49.5716 1.76265 49.7773 1.45536 50.0273 1.2262C50.2825 0.991821 50.5794 0.799113 50.9179 0.648071C51.2564 0.491821 51.5898 0.38505 51.9179 0.327759C52.2512 0.265259 52.5898 0.234009 52.9335 0.234009C53.9648 0.234009 55.0377 0.473592 56.1523 0.952759C56.121 1.26005 56.1054 1.58036 56.1054 1.9137C56.1054 2.69495 56.1679 3.32255 56.2929 3.79651C56.2252 3.82255 56.1679 3.83557 56.121 3.83557C56.0689 3.83557 56.0038 3.82255 55.9257 3.79651ZM58.4413 0.491821C59.608 0.533488 60.5195 0.554321 61.1757 0.554321C65.6445 0.52828 68.1184 0.507446 68.5976 0.491821C68.6653 1.01265 68.7981 1.50745 68.996 1.9762C69.1939 2.43974 69.4466 2.93453 69.7538 3.46057C69.7122 3.54911 69.621 3.61943 69.4804 3.67151C69.2929 3.31734 69.0663 3.00224 68.8007 2.7262C68.5351 2.45015 68.1992 2.18974 67.7929 1.94495C67.3919 1.70015 66.8893 1.49963 66.2851 1.34338C65.6861 1.18713 65.0012 1.08297 64.2304 1.03088H62.0742C62.0064 3.23401 61.9726 4.89286 61.9726 6.00745H64.1992C64.3502 6.00745 64.4908 5.99703 64.621 5.9762C64.7564 5.95015 64.8814 5.90849 64.996 5.8512C65.1106 5.7887 65.2122 5.7314 65.3007 5.67932C65.3945 5.62203 65.4882 5.5387 65.582 5.42932C65.6757 5.31474 65.7538 5.22099 65.8163 5.14807C65.8788 5.06995 65.9544 4.95276 66.0429 4.79651C66.1314 4.64026 66.1992 4.51786 66.246 4.42932C66.2929 4.34078 66.3632 4.20276 66.457 4.01526C66.5559 3.82776 66.6314 3.68713 66.6835 3.59338C66.845 3.65588 66.9439 3.72359 66.9804 3.79651C66.7617 4.18193 66.5768 4.60901 66.4257 5.07776C66.2747 5.54651 66.1992 5.93713 66.1992 6.24963C66.1992 6.98922 66.4596 7.80432 66.9804 8.69495C66.9387 8.77828 66.8398 8.84859 66.6835 8.90588C66.6262 8.80172 66.5455 8.65328 66.4413 8.46057C66.3424 8.26265 66.2643 8.11161 66.207 8.00745C66.1497 7.90328 66.0716 7.77047 65.9726 7.60901C65.8736 7.44755 65.7851 7.32255 65.707 7.23401C65.6341 7.14547 65.5377 7.04651 65.4179 6.93713C65.3033 6.82776 65.1887 6.74703 65.0742 6.69495C64.9596 6.63765 64.8268 6.59078 64.6757 6.55432C64.5299 6.51265 64.371 6.49182 64.1992 6.49182H61.9726C61.9726 7.31995 62.0012 8.98922 62.0585 11.4996H64.5507C65.3216 11.4476 66.0064 11.3434 66.6054 11.1871C67.2096 11.0309 67.7122 10.8304 68.1132 10.5856C68.5195 10.3408 68.8554 10.0804 69.121 9.80432C69.3867 9.52828 69.6132 9.21318 69.8007 8.85901C69.9413 8.91109 70.0325 8.9788 70.0742 9.06213C70.0481 9.11422 69.9804 9.23922 69.871 9.43713C69.7617 9.63505 69.6887 9.77047 69.6523 9.84338C69.6158 9.91109 69.5533 10.0335 69.4648 10.2106C69.3814 10.3824 69.3189 10.5231 69.2773 10.6324C69.2356 10.7366 69.1861 10.8694 69.1288 11.0309C69.0768 11.1923 69.0325 11.3512 68.996 11.5074C68.9648 11.6585 68.9387 11.8147 68.9179 11.9762H62.0585C60.6471 11.9762 59.4361 11.9918 58.4257 12.0231C58.4049 11.9606 58.3945 11.9085 58.3945 11.8668C58.3945 11.8304 58.4049 11.7601 58.4257 11.6559C58.6653 11.6351 58.858 11.6142 59.0038 11.5934C59.1549 11.5673 59.3372 11.5283 59.5507 11.4762C59.7695 11.4241 59.9361 11.3512 60.0507 11.2574C60.1653 11.1585 60.2252 11.0413 60.2304 10.9059C60.2929 9.27568 60.3242 7.63245 60.3242 5.9762C60.3242 4.2887 60.2981 2.83297 60.246 1.60901C60.2408 1.47359 60.1809 1.35901 60.0663 1.26526C59.9518 1.1663 59.7851 1.09078 59.5663 1.0387C59.3528 0.986613 59.1705 0.950155 59.0195 0.929321C58.8736 0.90328 58.6809 0.879842 58.4413 0.859009C58.4205 0.765259 58.4101 0.700155 58.4101 0.663696C58.4101 0.632446 58.4205 0.575155 58.4413 0.491821ZM78.5195 3.79651C78.3216 2.84338 77.957 2.1038 77.4257 1.57776C76.8997 1.05172 76.2669 0.788696 75.5273 0.788696C74.8033 0.788696 74.2408 0.960571 73.8398 1.30432C73.4439 1.64807 73.246 2.1064 73.246 2.67932C73.246 2.99703 73.2747 3.26005 73.332 3.46838C73.3893 3.67672 73.5064 3.87984 73.6835 4.07776C73.8606 4.27047 74.1184 4.44234 74.457 4.59338C74.7955 4.73922 75.2382 4.87984 75.7851 5.01526C76.082 5.08818 76.3398 5.15588 76.5585 5.21838C76.7825 5.28088 77.0273 5.36682 77.2929 5.4762C77.5637 5.58557 77.7955 5.70276 77.9882 5.82776C78.1861 5.95276 78.3814 6.10901 78.5742 6.29651C78.7721 6.4788 78.9309 6.68193 79.0507 6.90588C79.1757 7.12984 79.2747 7.39547 79.3476 7.70276C79.4257 8.00484 79.4648 8.33557 79.4648 8.69495C79.4648 9.17411 79.3762 9.61682 79.1992 10.0231C79.0221 10.4241 78.7903 10.7627 78.5038 11.0387C78.2174 11.3147 77.8867 11.5491 77.5117 11.7418C77.1367 11.9345 76.7564 12.0752 76.371 12.1637C75.9856 12.2522 75.6028 12.2965 75.2226 12.2965C74.0663 12.2965 72.8346 11.997 71.5273 11.3981C71.5533 10.8356 71.5663 10.4892 71.5663 10.359C71.5663 9.51005 71.496 8.6637 71.3554 7.81995C71.4127 7.78349 71.47 7.76526 71.5273 7.76526C71.6002 7.76526 71.6653 7.78349 71.7226 7.81995C71.832 8.49182 72.0117 9.08557 72.2617 9.6012C72.5169 10.1168 72.8085 10.5257 73.1367 10.8278C73.4648 11.1246 73.8033 11.3486 74.1523 11.4996C74.5064 11.6455 74.8632 11.7184 75.2226 11.7184C76.0403 11.7184 76.6679 11.5074 77.1054 11.0856C77.5481 10.6585 77.7695 10.096 77.7695 9.39807C77.7695 8.69495 77.6054 8.1663 77.2773 7.81213C76.9544 7.45276 76.3346 7.16109 75.4179 6.93713C74.2721 6.65068 73.3762 6.2288 72.7304 5.67151C72.0898 5.10901 71.7695 4.36682 71.7695 3.44495C71.7695 2.96057 71.8476 2.52828 72.0038 2.14807C72.1653 1.76265 72.371 1.45536 72.621 1.2262C72.8762 0.991821 73.1731 0.799113 73.5117 0.648071C73.8502 0.491821 74.1835 0.38505 74.5117 0.327759C74.845 0.265259 75.1835 0.234009 75.5273 0.234009C76.5585 0.234009 77.6314 0.473592 78.746 0.952759C78.7148 1.26005 78.6992 1.58036 78.6992 1.9137C78.6992 2.69495 78.7617 3.32255 78.8867 3.79651C78.8189 3.82255 78.7617 3.83557 78.7148 3.83557C78.6627 3.83557 78.5976 3.82255 78.5195 3.79651Z" fill="#6B6B6B"/>
</svg>
