<svg width="54" height="15" viewBox="0 0 54 15" fill="none" xmlns="http://www.w3.org/2000/svg">
<path d="M8.49941 14.9162C6.39274 14.9162 4.95941 14.1962 4.19941 12.7562C2.82608 13.9029 1.84608 14.4762 1.25941 14.4762C0.979409 14.4762 0.759409 14.3429 0.599409 14.0762C0.452743 13.8095 0.379409 13.5095 0.379409 13.1762C0.379409 12.3762 0.686076 11.4429 1.29941 10.3762C1.56608 9.90953 1.85941 9.48286 2.17941 9.0962C2.49941 8.70953 2.85941 8.5162 3.25941 8.5162C3.64608 8.5162 3.93941 8.8362 4.13941 9.4762L4.73941 11.3962C4.95274 11.1695 5.18608 10.8962 5.43941 10.5762C5.70608 10.2429 5.99941 9.8562 6.31941 9.4162L8.09941 7.0162C10.2861 4.1762 11.7194 2.62286 12.3994 2.3562C12.6394 2.26286 12.8794 2.2162 13.1194 2.2162C13.3861 2.2162 13.5994 2.2762 13.7594 2.3962C13.9327 2.50286 14.0194 2.62953 14.0194 2.7762C14.0194 3.0162 13.8261 3.1562 13.4394 3.1962C13.0394 3.42286 12.2594 4.0962 11.0994 5.2162C10.5661 5.7362 10.1327 6.16953 9.79941 6.5162C9.47941 6.84953 9.25941 7.10286 9.13941 7.2762C7.64608 9.3562 6.26608 10.9562 4.99941 12.0762C5.81274 13.6895 7.03274 14.4962 8.65941 14.4962C9.27274 14.4962 9.89274 14.3629 10.5194 14.0962C11.1594 13.8429 11.7461 13.5029 12.2794 13.0762C12.8261 12.6495 13.2661 12.1762 13.5994 11.6562C13.9327 11.1229 14.0994 10.5962 14.0994 10.0762C14.0994 9.52953 13.9061 9.0362 13.5194 8.5962C13.1327 8.1562 12.6594 7.84286 12.0994 7.6562C12.0994 7.6562 11.9994 7.64286 11.7994 7.6162C11.5994 7.58953 11.2927 7.54953 10.8794 7.4962C10.2527 7.4162 9.93941 7.28953 9.93941 7.1162C9.93941 6.9962 10.0127 6.88953 10.1594 6.7962C10.3194 6.70286 10.4794 6.6562 10.6394 6.6562C10.7594 6.6562 10.8994 6.68286 11.0594 6.7362C11.2194 6.78953 11.3594 6.84286 11.4794 6.8962C11.6127 6.9362 11.6794 6.9562 11.6794 6.9562C11.7861 6.96953 11.9061 6.98286 12.0394 6.9962C12.1727 6.9962 12.3061 6.9962 12.4394 6.9962C13.3194 6.9962 14.1194 6.8562 14.8394 6.5762C15.5327 6.2962 16.0394 5.90953 16.3594 5.4162C16.6794 4.92286 16.8394 4.34953 16.8394 3.6962C16.8394 3.02953 16.6261 2.50286 16.1994 2.1162C15.7861 1.72953 15.2327 1.4562 14.5394 1.2962C13.8594 1.12286 13.1194 1.0362 12.3194 1.0362C10.7594 1.0362 9.27274 1.26286 7.85941 1.7162C6.45941 2.16953 5.24608 2.92286 4.21941 3.9762C3.43274 4.78953 3.03941 5.46953 3.03941 6.0162C3.03941 6.40286 3.13941 6.72953 3.33941 6.9962C3.39274 7.06286 3.45274 7.12953 3.51941 7.1962C3.58608 7.26286 3.66608 7.32953 3.75941 7.3962C3.82608 7.4362 3.78608 7.4562 3.63941 7.4562C2.81274 7.26953 2.39941 6.7162 2.39941 5.7962C2.39941 4.8762 2.86608 4.00953 3.79941 3.1962C4.51941 2.56953 5.33941 2.06286 6.25941 1.6762C7.19274 1.28953 8.17274 1.00953 9.19941 0.836196C10.2394 0.662863 11.2661 0.576196 12.2794 0.576196C12.9994 0.576196 13.6927 0.629529 14.3594 0.736195C15.0261 0.842862 15.6261 1.02286 16.1594 1.2762C16.6927 1.5162 17.1127 1.8362 17.4194 2.2362C17.7394 2.6362 17.8994 3.12953 17.8994 3.7162C17.8994 4.54286 17.6794 5.20286 17.2394 5.6962C16.7994 6.18953 16.2061 6.56953 15.4594 6.8362C14.5794 7.14286 13.6327 7.30286 12.6194 7.3162C13.1794 7.34286 13.6661 7.48953 14.0794 7.7562C14.5061 8.02286 14.8327 8.36953 15.0594 8.7962C15.2994 9.22286 15.4194 9.68953 15.4194 10.1962C15.4194 10.8762 15.2127 11.5095 14.7994 12.0962C14.3994 12.6695 13.8594 13.1695 13.1794 13.5962C12.4994 14.0095 11.7527 14.3295 10.9394 14.5562C10.1261 14.7962 9.31274 14.9162 8.49941 14.9162ZM1.51941 14.0162C1.94608 14.0162 2.76608 13.4095 3.97941 12.1962L3.91941 12.1162C3.38608 10.3429 2.95941 9.4562 2.63941 9.4562C2.62608 9.4562 2.59274 9.46953 2.53941 9.4962C1.55274 10.9229 1.05941 12.0695 1.05941 12.9362C1.05941 13.1229 1.09274 13.3495 1.15941 13.6162C1.23941 13.8829 1.35941 14.0162 1.51941 14.0162ZM17.4261 14.2362C16.9995 14.2362 16.6128 14.1029 16.2661 13.8362C15.9195 13.5562 15.7461 13.1895 15.7461 12.7362C15.7461 11.7895 16.3261 10.7095 17.4861 9.4962C18.6728 8.26953 19.7328 7.6562 20.6661 7.6562C20.9728 7.6562 21.2195 7.74286 21.4061 7.9162C21.6061 8.0762 21.7061 8.2762 21.7061 8.5162C21.7061 9.26286 21.1128 9.9962 19.9261 10.7162C18.8728 11.3562 17.9861 11.6762 17.2661 11.6762C17.1595 11.6762 17.0661 11.6629 16.9861 11.6362C16.7861 11.9962 16.6861 12.3762 16.6861 12.7762C16.6861 13.4695 17.0128 13.8162 17.6661 13.8162C18.3328 13.8162 19.1928 13.3695 20.2461 12.4762C21.0595 11.8229 21.7528 11.1295 22.3261 10.3962C22.4461 10.2362 22.5528 10.1562 22.6461 10.1562C22.7261 10.1562 22.7661 10.1962 22.7661 10.2762C22.7661 10.3562 22.7128 10.4695 22.6061 10.6162C22.2328 11.1095 21.8328 11.5629 21.4061 11.9762C20.9795 12.3895 20.5195 12.7695 20.0261 13.1162C18.9995 13.8629 18.1328 14.2362 17.4261 14.2362ZM17.5461 11.2362C18.0528 11.2362 18.7128 10.9829 19.5261 10.4762C19.7928 10.2895 20.0528 10.0829 20.3061 9.8562C20.5728 9.6162 20.7861 9.3762 20.9461 9.1362C21.1195 8.8962 21.2061 8.68286 21.2061 8.4962C21.2061 8.32286 21.0661 8.2362 20.7861 8.2362C20.3861 8.2362 19.8261 8.5362 19.1061 9.1362C18.7595 9.42953 18.4261 9.74953 18.1061 10.0962C17.7861 10.4429 17.5128 10.8095 17.2861 11.1962C17.3661 11.2229 17.4528 11.2362 17.5461 11.2362ZM23.0628 14.0162C22.6762 14.0162 22.3162 13.9229 21.9828 13.7362C21.6495 13.5362 21.4828 13.2095 21.4828 12.7562C21.4828 12.1295 21.7028 11.3829 22.1428 10.5162C22.5962 9.64953 23.1095 8.74953 23.6828 7.8162C25.2428 5.28286 26.3495 4.0162 27.0028 4.0162C27.1362 4.0162 27.2695 4.06953 27.4028 4.1762C27.5495 4.26953 27.6295 4.3762 27.6428 4.4962L26.2428 6.3762C25.6962 7.10953 25.2028 7.78953 24.7628 8.4162C24.3228 9.02953 23.9428 9.58286 23.6228 10.0762C23.4628 10.3295 23.2828 10.6162 23.0828 10.9362C22.8828 11.2562 22.7028 11.5895 22.5428 11.9362C22.3962 12.2695 22.3228 12.6095 22.3228 12.9562C22.3228 13.1162 22.3695 13.2629 22.4628 13.3962C22.5562 13.5162 22.7228 13.5762 22.9628 13.5762C23.3895 13.5762 23.9495 13.3495 24.6428 12.8962C25.3362 12.4295 26.0228 11.7895 26.7028 10.9762C26.7695 10.8962 26.8428 10.8229 26.9228 10.7562C27.0028 10.6895 27.0695 10.6562 27.1228 10.6562C27.1895 10.6562 27.2228 10.6962 27.2228 10.7762C27.2228 10.8162 27.1762 10.8962 27.0828 11.0162C27.0028 11.1229 26.9362 11.2095 26.8828 11.2762L26.4028 11.8162C26.1362 12.1095 25.8162 12.4295 25.4428 12.7762C25.0828 13.1229 24.6962 13.4162 24.2828 13.6562C23.8828 13.8962 23.4762 14.0162 23.0628 14.0162ZM27.2661 14.0162C26.9328 14.0162 26.6728 13.8629 26.4861 13.5562C26.2995 13.2362 26.2061 12.9295 26.2061 12.6362C26.2061 11.8362 26.7861 10.7162 27.9461 9.2762C29.1195 7.82286 30.0661 7.0962 30.7861 7.0962C31.4661 7.0962 31.8061 7.4562 31.8061 8.1762C31.8061 8.28286 31.7928 8.3962 31.7661 8.5162C31.7528 8.6362 31.7328 8.76286 31.7061 8.8962C31.7328 8.9362 31.7995 8.9562 31.9061 8.9562C32.2661 8.9562 32.6928 8.82953 33.1861 8.5762C33.1728 8.80286 32.6461 9.12953 31.6061 9.5562C31.7528 9.9962 31.3128 10.8362 30.2861 12.0762C29.2328 13.3695 28.3328 14.0162 27.5861 14.0162H27.2661ZM27.6261 13.4162C28.1995 13.4162 28.9328 12.8895 29.8261 11.8362C30.6928 10.8095 31.1261 10.0695 31.1261 9.6162C30.9128 9.4962 30.6461 9.18953 30.3261 8.6962C29.8728 8.6962 29.2195 9.24286 28.3661 10.3362C27.5261 11.4029 27.1195 12.2229 27.1461 12.7962C27.1595 13.2095 27.3195 13.4162 27.6261 13.4162ZM32.6911 14.0362C32.6111 14.0362 32.4978 14.0029 32.3511 13.9362C32.2045 13.8562 32.0711 13.7695 31.9511 13.6762C31.8311 13.5695 31.7645 13.4762 31.7511 13.3962C31.7378 13.2895 31.8111 12.9895 31.9711 12.4962C32.1178 11.9895 32.3578 11.3029 32.6911 10.4362C33.0245 9.5562 33.3045 8.8762 33.5311 8.3962C33.7578 7.9162 33.9245 7.62953 34.0311 7.5362C34.0845 7.48286 34.1578 7.4562 34.2511 7.4562C34.3978 7.4562 34.5378 7.52286 34.6711 7.6562C34.8045 7.7762 34.8778 7.92286 34.8911 8.0962C34.8911 8.10953 34.5578 8.8962 33.8911 10.4562C33.2378 11.9629 32.9311 12.8629 32.9711 13.1562C33.5578 12.9695 34.5378 12.3095 35.9111 11.1762C36.7378 10.4829 37.3311 9.8562 37.6911 9.2962C38.0645 8.72286 38.2511 8.20953 38.2511 7.7562C38.2511 7.48953 38.1845 7.24953 38.0511 7.0362C37.9311 6.80953 37.7045 6.62286 37.3711 6.4762C37.2778 6.4362 37.2311 6.3762 37.2311 6.2962C37.2311 6.1762 37.3045 6.1162 37.4511 6.1162C37.8378 6.1162 38.1711 6.24286 38.4511 6.4962C38.7445 6.74953 38.8911 7.12953 38.8911 7.6362C38.8911 8.16953 38.6645 8.7762 38.2111 9.4562C37.7578 10.1229 37.1111 10.8362 36.2711 11.5962C35.5378 12.2495 34.8711 12.7829 34.2711 13.1962C33.6845 13.6095 33.1578 13.8895 32.6911 14.0362ZM39.0668 14.2362C38.6401 14.2362 38.2534 14.1029 37.9068 13.8362C37.5601 13.5562 37.3868 13.1895 37.3868 12.7362C37.3868 11.7895 37.9668 10.7095 39.1268 9.4962C40.3134 8.26953 41.3734 7.6562 42.3068 7.6562C42.6134 7.6562 42.8601 7.74286 43.0468 7.9162C43.2468 8.0762 43.3468 8.2762 43.3468 8.5162C43.3468 9.26286 42.7534 9.9962 41.5668 10.7162C40.5134 11.3562 39.6268 11.6762 38.9068 11.6762C38.8001 11.6762 38.7068 11.6629 38.6268 11.6362C38.4268 11.9962 38.3268 12.3762 38.3268 12.7762C38.3268 13.4695 38.6534 13.8162 39.3068 13.8162C39.9734 13.8162 40.8334 13.3695 41.8868 12.4762C42.7001 11.8229 43.3934 11.1295 43.9668 10.3962C44.0868 10.2362 44.1934 10.1562 44.2868 10.1562C44.3668 10.1562 44.4068 10.1962 44.4068 10.2762C44.4068 10.3562 44.3534 10.4695 44.2468 10.6162C43.8734 11.1095 43.4734 11.5629 43.0468 11.9762C42.6201 12.3895 42.1601 12.7695 41.6668 13.1162C40.6401 13.8629 39.7734 14.2362 39.0668 14.2362ZM39.1868 11.2362C39.6934 11.2362 40.3534 10.9829 41.1668 10.4762C41.4334 10.2895 41.6934 10.0829 41.9468 9.8562C42.2134 9.6162 42.4268 9.3762 42.5868 9.1362C42.7601 8.8962 42.8468 8.68286 42.8468 8.4962C42.8468 8.32286 42.7068 8.2362 42.4268 8.2362C42.0268 8.2362 41.4668 8.5362 40.7468 9.1362C40.4001 9.42953 40.0668 9.74953 39.7468 10.0962C39.4268 10.4429 39.1534 10.8095 38.9268 11.1962C39.0068 11.2229 39.0934 11.2362 39.1868 11.2362ZM44.5235 14.0762C44.1235 14.0762 43.7835 13.9695 43.5035 13.7562C43.2235 13.5295 43.0635 13.2562 43.0235 12.9362C42.9701 12.5095 43.0301 12.0829 43.2035 11.6562C43.3901 11.2162 43.6368 10.7962 43.9435 10.3962C44.2635 9.9962 44.6035 9.62286 44.9635 9.2762C46.3768 7.86286 47.6501 7.1562 48.7835 7.1562C49.1701 7.1562 49.4301 7.2562 49.5635 7.4562C49.6168 7.52286 49.6768 7.6762 49.7435 7.9162C51.2368 5.48953 52.2768 4.2762 52.8635 4.2762C52.9968 4.2762 53.1368 4.30953 53.2835 4.3762C53.4301 4.44286 53.5035 4.52953 53.5035 4.6362C53.5035 4.70286 53.4701 4.78953 53.4035 4.8962C53.0035 5.38953 52.6035 5.88286 52.2035 6.3762C51.8035 6.8562 51.4101 7.34286 51.0235 7.8362C50.3701 8.66286 49.8435 9.38286 49.4435 9.9962C49.0435 10.6095 48.7568 11.1295 48.5835 11.5562C48.5301 11.6895 48.4768 11.8562 48.4235 12.0562C48.3835 12.2429 48.3635 12.4362 48.3635 12.6362C48.3635 12.8895 48.4168 13.1095 48.5235 13.2962C48.6301 13.4829 48.8235 13.5762 49.1035 13.5762C49.5435 13.5762 50.0835 13.3629 50.7235 12.9362C51.3635 12.5095 52.1101 11.8095 52.9635 10.8362C53.0168 10.7829 53.0635 10.7362 53.1035 10.6962C53.1568 10.6562 53.2101 10.6295 53.2635 10.6162C53.3835 10.5895 53.4435 10.6162 53.4435 10.6962C53.4435 10.7362 53.4035 10.8095 53.3235 10.9162C52.9101 11.4095 52.4501 11.8962 51.9435 12.3762C51.4368 12.8562 50.9168 13.2562 50.3835 13.5762C49.8635 13.8829 49.3768 14.0362 48.9235 14.0362C48.4701 14.0362 48.1501 13.8829 47.9635 13.5762C47.7768 13.2695 47.6835 12.9229 47.6835 12.5362C47.6835 12.1362 47.7568 11.7695 47.9035 11.4362L46.2835 13.0562C45.9235 13.4162 45.5901 13.6762 45.2835 13.8362C44.9901 13.9962 44.7368 14.0762 44.5235 14.0762ZM44.3435 13.6362C44.9168 13.6362 45.8701 12.8495 47.2035 11.2762C47.2701 11.1962 47.5035 10.9029 47.9035 10.3962C48.3035 9.8762 48.8701 9.12286 49.6035 8.1362C49.5101 7.9762 49.3501 7.8962 49.1235 7.8962C48.2968 7.8962 47.1901 8.54953 45.8035 9.8562C44.4968 11.0695 43.8435 12.0895 43.8435 12.9162C43.8435 13.3962 44.0101 13.6362 44.3435 13.6362Z" fill="#6B6B6B"/>
</svg>
