<svg width="106" height="13" viewBox="0 0 106 13" fill="none" xmlns="http://www.w3.org/2000/svg">
<path d="M2.36322 12.4762C2.32676 12.4762 2.26687 12.4762 2.18353 12.4762C2.1002 12.4814 2.01166 12.484 1.91791 12.484C1.82416 12.484 1.73562 12.484 1.65228 12.484C1.56895 12.4892 1.51166 12.4918 1.48041 12.4918C1.48041 12.497 1.46218 12.5048 1.42572 12.5153C1.38926 12.5309 1.36062 12.5387 1.33978 12.5387C1.32416 12.5387 1.29291 12.5361 1.24603 12.5309C1.19916 12.5257 1.14968 12.5205 1.0976 12.5153C1.04551 12.5101 0.996033 12.5048 0.949158 12.4996C0.902283 12.4944 0.873637 12.4918 0.86322 12.4918C0.80072 12.4918 0.740824 12.4918 0.683533 12.4918C0.631449 12.497 0.58197 12.4996 0.535095 12.4996C0.472595 12.4996 0.415304 12.4918 0.36322 12.4762C0.316345 12.4554 0.26947 12.4111 0.222595 12.3434C0.20697 12.3434 0.193949 12.3252 0.183533 12.2887L0.167908 12.2418C0.183533 12.2002 0.209574 12.1715 0.246033 12.1559C0.282491 12.1351 0.321554 12.122 0.36322 12.1168C0.410095 12.1064 0.45697 12.0986 0.503845 12.0934C0.55072 12.083 0.589783 12.0673 0.621033 12.0465H1.20697C1.2226 12.0465 1.24603 12.0335 1.27728 12.0074C1.30853 11.9814 1.32937 11.9632 1.33978 11.9528C1.52728 11.9736 1.68093 11.9632 1.80072 11.9215C1.92572 11.8798 2.02728 11.8173 2.10541 11.734C2.18353 11.6455 2.24343 11.5413 2.2851 11.4215C2.32676 11.3017 2.35541 11.1741 2.37103 11.0387C2.39187 10.9033 2.40489 10.7653 2.4101 10.6246C2.4153 10.484 2.42051 10.3486 2.42572 10.2184C2.43093 10.2028 2.43614 10.1715 2.44135 10.1246C2.44655 10.0778 2.44916 10.0283 2.44916 9.9762C2.45437 9.9189 2.45957 9.86682 2.46478 9.81995C2.46999 9.76786 2.4752 9.73401 2.48041 9.71838V9.62463C2.48041 9.46838 2.46218 9.31213 2.42572 9.15588C2.39447 8.99963 2.37885 8.83818 2.37885 8.67151V8.55432C2.37885 8.5387 2.38145 8.50484 2.38666 8.45276C2.39187 8.40068 2.39707 8.34338 2.40228 8.28088C2.40749 8.21838 2.4127 8.16109 2.41791 8.10901C2.42312 8.05693 2.42572 8.02568 2.42572 8.01526V7.81995V7.31995C2.43614 7.29911 2.45176 7.25745 2.4726 7.19495C2.49343 7.13245 2.51426 7.09599 2.5351 7.08557V5.89026C2.60801 5.69755 2.64447 5.49703 2.64447 5.2887C2.64447 5.07515 2.65489 4.86682 2.67572 4.6637C2.67572 4.65849 2.68093 4.63505 2.69135 4.59338C2.70697 4.55172 2.71999 4.52307 2.73041 4.50745C2.73041 4.48661 2.73041 4.44234 2.73041 4.37463C2.73562 4.30172 2.73822 4.22359 2.73822 4.14026C2.74343 4.05693 2.74864 3.9814 2.75385 3.9137C2.75905 3.84078 2.76426 3.7939 2.76947 3.77307C2.7903 3.6012 2.82155 3.43974 2.86322 3.2887C2.90489 3.13245 2.92572 2.97099 2.92572 2.80432C2.92572 2.61161 2.90749 2.44755 2.87103 2.31213C2.83978 2.17672 2.77468 2.02568 2.67572 1.85901C2.62364 1.76526 2.55332 1.67672 2.46478 1.59338C2.37624 1.50484 2.27989 1.44495 2.17572 1.4137C2.1601 1.40849 2.13405 1.40068 2.0976 1.39026C2.06635 1.37984 2.03249 1.37203 1.99603 1.36682C1.95957 1.3564 1.92572 1.34859 1.89447 1.34338C1.86322 1.33297 1.84499 1.32515 1.83978 1.31995C1.78249 1.30953 1.70437 1.30172 1.60541 1.29651C1.51166 1.28609 1.41791 1.26786 1.32416 1.24182C1.23562 1.21578 1.15749 1.17672 1.08978 1.12463C1.02207 1.07255 0.98822 0.99703 0.98822 0.898071V0.859009C0.98822 0.848592 0.990824 0.835571 0.996033 0.819946C1.00645 0.819946 1.0377 0.812134 1.08978 0.796509C1.14187 0.775675 1.18093 0.765259 1.20697 0.765259H1.61322H2.08978C2.12103 0.765259 2.18093 0.767863 2.26947 0.773071C2.35801 0.77828 2.45176 0.786092 2.55072 0.796509C2.65489 0.801717 2.75124 0.806925 2.83978 0.812134C2.92832 0.817342 2.98822 0.819946 3.01947 0.819946C3.0403 0.830363 3.08718 0.843384 3.1601 0.859009C3.23301 0.869425 3.2877 0.874634 3.32416 0.874634C3.32937 0.874634 3.3502 0.88505 3.38666 0.905884C3.42832 0.921509 3.45437 0.929321 3.46478 0.929321C3.46999 0.929321 3.48301 0.926717 3.50385 0.921509C3.52989 0.9163 3.55853 0.911092 3.58978 0.905884C3.62103 0.895467 3.64707 0.887655 3.66791 0.882446C3.69395 0.877238 3.70957 0.874634 3.71478 0.874634H3.73822H3.80853C3.83457 0.874634 3.87624 0.877238 3.93353 0.882446C3.99603 0.882446 4.06114 0.88505 4.12885 0.890259C4.19655 0.895467 4.25905 0.90328 4.31635 0.913696C4.37885 0.918905 4.42312 0.924113 4.44916 0.929321C4.55332 1.01265 4.63926 1.10901 4.70697 1.21838C4.77468 1.32776 4.83197 1.44495 4.87885 1.56995C4.92572 1.68974 4.96739 1.81474 5.00385 1.94495C5.0403 2.06995 5.08197 2.18974 5.12885 2.30432C5.31635 2.74703 5.51166 3.18193 5.71478 3.60901C5.91791 4.03609 6.11843 4.46318 6.31635 4.89026C6.40489 5.08297 6.49343 5.28609 6.58197 5.49963C6.67051 5.71318 6.74864 5.9137 6.81635 6.1012C6.81635 6.1012 6.81895 6.11682 6.82416 6.14807C6.83457 6.17932 6.84499 6.21578 6.85541 6.25745C6.86582 6.2939 6.87624 6.33036 6.88666 6.36682C6.89707 6.40328 6.90228 6.42411 6.90228 6.42932C6.91791 6.45015 6.94655 6.48661 6.98822 6.5387C7.02989 6.58557 7.05332 6.61422 7.05853 6.62463C7.05853 6.63505 7.06374 6.65328 7.07416 6.67932C7.08978 6.70015 7.1028 6.71578 7.11322 6.7262C7.18093 6.90849 7.24864 7.09078 7.31635 7.27307C7.38405 7.45536 7.45697 7.63765 7.5351 7.81995C7.54551 7.83036 7.56114 7.8512 7.58197 7.88245C7.6028 7.9137 7.62364 7.95015 7.64447 7.99182C7.6653 8.02828 7.68353 8.06213 7.69916 8.09338C7.71478 8.12463 7.7252 8.14547 7.73041 8.15588C7.74603 8.17672 7.76426 8.21838 7.7851 8.28088C7.80593 8.34338 7.83197 8.40849 7.86322 8.4762C7.89447 8.5387 7.92832 8.59338 7.96478 8.64026C8.00124 8.68713 8.0403 8.70536 8.08197 8.69495C8.0976 8.68453 8.11582 8.6689 8.13666 8.64807C8.1627 8.62724 8.18093 8.61161 8.19135 8.6012V8.49963V8.46057C8.24343 8.31474 8.30593 8.18193 8.37885 8.06213C8.45176 7.94234 8.51687 7.80693 8.57416 7.65588C8.57937 7.65068 8.58457 7.63765 8.58978 7.61682C8.59499 7.59078 8.6002 7.56474 8.60541 7.5387C8.61062 7.50745 8.61322 7.4814 8.61322 7.46057C8.61843 7.43974 8.62103 7.42672 8.62103 7.42151C8.63145 7.40068 8.65489 7.35901 8.69135 7.29651C8.73301 7.2288 8.75905 7.18713 8.76947 7.17151C8.77989 7.16109 8.79291 7.14026 8.80853 7.10901C8.82416 7.07255 8.83978 7.03609 8.85541 6.99963C8.87103 6.96318 8.88666 6.92932 8.90228 6.89807C8.91791 6.86682 8.93093 6.84599 8.94135 6.83557C8.94135 6.81995 8.94916 6.78349 8.96478 6.7262C8.98562 6.6637 9.00645 6.59859 9.02728 6.53088C9.05332 6.46318 9.07416 6.40068 9.08978 6.34338C9.11062 6.28088 9.12103 6.24182 9.12103 6.2262C9.13145 6.22099 9.14707 6.19495 9.16791 6.14807C9.18874 6.1012 9.20437 6.06734 9.21478 6.04651C9.4127 5.73401 9.57937 5.40588 9.71478 5.06213C9.8502 4.71838 9.98041 4.37203 10.1054 4.02307C10.1158 3.99703 10.1314 3.95276 10.1523 3.89026C10.1731 3.82776 10.1887 3.7887 10.1992 3.77307C10.2044 3.76265 10.2148 3.74443 10.2304 3.71838C10.246 3.68713 10.2617 3.65588 10.2773 3.62463C10.2929 3.59338 10.3085 3.56474 10.3242 3.5387C10.3398 3.50745 10.3502 3.48661 10.3554 3.4762C10.3554 3.46578 10.3632 3.43453 10.3788 3.38245C10.3997 3.33036 10.4101 3.2939 10.4101 3.27307C10.4257 3.2262 10.4466 3.18193 10.4726 3.14026C10.5038 3.09338 10.5377 3.04911 10.5742 3.00745C10.6106 2.96578 10.6419 2.92411 10.6679 2.88245C10.6992 2.83557 10.7226 2.78609 10.7382 2.73401C10.8059 2.54651 10.871 2.3538 10.9335 2.15588C10.996 1.95797 11.0663 1.76265 11.1445 1.56995C11.1653 1.50224 11.1809 1.43453 11.1913 1.36682C11.207 1.29911 11.2226 1.23661 11.2382 1.17932C11.2591 1.11682 11.2851 1.06213 11.3163 1.01526C11.3528 0.963175 11.4049 0.9163 11.4726 0.874634C11.5403 0.874634 11.6445 0.87203 11.7851 0.866821C11.9309 0.856405 12.0924 0.845988 12.2695 0.835571C12.4518 0.825155 12.6393 0.814738 12.832 0.804321C13.0299 0.788696 13.2174 0.775675 13.3945 0.765259C13.5768 0.754842 13.7382 0.74703 13.8788 0.741821C14.0195 0.736613 14.1236 0.731405 14.1913 0.726196H14.4648H14.6445C14.7174 0.726196 14.7825 0.736613 14.8398 0.757446C14.9023 0.773071 14.9335 0.817342 14.9335 0.890259C14.9335 0.999634 14.9049 1.08297 14.8476 1.14026C14.7955 1.19755 14.7304 1.23922 14.6523 1.26526C14.5742 1.28609 14.4882 1.29911 14.3945 1.30432C14.3059 1.30432 14.2252 1.30953 14.1523 1.31995C14.1106 1.37724 14.0533 1.4137 13.9804 1.42932C13.9075 1.44495 13.8294 1.46578 13.746 1.49182C13.6627 1.51265 13.5768 1.54911 13.4882 1.6012C13.3997 1.64807 13.3216 1.73401 13.2538 1.85901C13.2434 1.88505 13.2226 1.92151 13.1913 1.96838C13.1653 2.01526 13.1523 2.0439 13.1523 2.05432V3.82776C13.1314 3.92672 13.1184 4.00484 13.1132 4.06213C13.1132 4.11422 13.1132 4.18453 13.1132 4.27307V4.4137C13.1132 4.42932 13.1158 4.46318 13.121 4.51526C13.1262 4.56734 13.1288 4.62463 13.1288 4.68713C13.1341 4.74443 13.1393 4.79911 13.1445 4.8512C13.1497 4.90328 13.1523 4.93713 13.1523 4.95276C13.1523 4.99443 13.1497 5.09338 13.1445 5.24963C13.1393 5.40068 13.1341 5.56474 13.1288 5.74182C13.1288 5.9189 13.1262 6.08557 13.121 6.24182C13.1158 6.39807 13.1132 6.49963 13.1132 6.54651V9.17932C13.1132 9.20536 13.1106 9.26526 13.1054 9.35901C13.1002 9.44755 13.0924 9.54651 13.082 9.65588C13.0768 9.76005 13.0716 9.85901 13.0663 9.95276C13.0611 10.0465 13.0585 10.1038 13.0585 10.1246V10.3356V10.5231C13.0585 10.5439 13.0585 10.5882 13.0585 10.6559C13.0637 10.7236 13.0689 10.7965 13.0742 10.8746C13.0794 10.9528 13.0846 11.0283 13.0898 11.1012C13.1002 11.1741 13.108 11.2262 13.1132 11.2574C13.1132 11.2783 13.1158 11.3095 13.121 11.3512C13.1262 11.3877 13.1288 11.4267 13.1288 11.4684C13.1341 11.5101 13.1393 11.5491 13.1445 11.5856C13.1497 11.6168 13.1523 11.6377 13.1523 11.6481C13.1679 11.7158 13.2018 11.7731 13.2538 11.8199C13.3111 11.8668 13.3736 11.9085 13.4413 11.9449C13.5143 11.9762 13.5872 11.9996 13.6601 12.0153C13.7382 12.0309 13.8007 12.0413 13.8476 12.0465C13.8684 12.0517 13.9049 12.0569 13.957 12.0621C14.0091 12.0673 14.0689 12.0699 14.1367 12.0699C14.1939 12.0699 14.2512 12.0673 14.3085 12.0621C14.371 12.0569 14.4153 12.0517 14.4413 12.0465C14.4674 12.0726 14.5064 12.1116 14.5585 12.1637C14.6106 12.2106 14.6367 12.2574 14.6367 12.3043C14.6367 12.3512 14.6184 12.3955 14.582 12.4371C14.5455 12.4788 14.5117 12.5127 14.4804 12.5387H13.9413H13.4023C13.3971 12.5387 13.3762 12.5361 13.3398 12.5309C13.3085 12.5257 13.2721 12.5205 13.2304 12.5153C13.1939 12.5101 13.1575 12.5048 13.121 12.4996C13.0846 12.4944 13.0637 12.4918 13.0585 12.4918H12.8632H12.3632C12.3528 12.4918 12.3268 12.484 12.2851 12.4684C12.2486 12.4528 12.2278 12.4371 12.2226 12.4215H12.1835H12.1132C12.0976 12.4319 12.0533 12.4449 11.9804 12.4606C11.9127 12.471 11.8372 12.4814 11.7538 12.4918C11.6705 12.5022 11.5924 12.5127 11.5195 12.5231C11.4518 12.5335 11.4101 12.5387 11.3945 12.5387H10.621H9.85541C9.80332 12.5387 9.75645 12.5231 9.71478 12.4918C9.67832 12.4606 9.6601 12.4163 9.6601 12.359C9.6601 12.2913 9.69135 12.2392 9.75385 12.2028C9.81635 12.1611 9.89707 12.1272 9.99603 12.1012C10.1002 12.0752 10.2122 12.0517 10.332 12.0309C10.4518 12.0101 10.5689 11.9866 10.6835 11.9606C10.7981 11.9345 10.9023 11.9007 10.996 11.859C11.0898 11.8173 11.1575 11.7653 11.1992 11.7028C11.2304 11.6455 11.2512 11.5908 11.2617 11.5387C11.2721 11.4814 11.2773 11.4267 11.2773 11.3746V11.109C11.2773 11.1038 11.2851 11.0804 11.3007 11.0387C11.3163 10.9918 11.3242 10.9632 11.3242 10.9528C11.3346 10.9423 11.3398 10.9137 11.3398 10.8668C11.3398 10.8199 11.3398 10.7783 11.3398 10.7418C11.3398 10.7106 11.3398 10.6689 11.3398 10.6168C11.3398 10.5595 11.3346 10.5283 11.3242 10.5231C11.3242 10.5074 11.3163 10.4762 11.3007 10.4293C11.2851 10.3772 11.2773 10.346 11.2773 10.3356C11.2773 10.3147 11.2851 10.2783 11.3007 10.2262C11.3163 10.1689 11.3242 10.1351 11.3242 10.1246C11.3346 10.1246 11.3398 10.1064 11.3398 10.0699C11.3398 10.0335 11.3398 10.0048 11.3398 9.98401C11.3398 9.87984 11.3294 9.77828 11.3085 9.67932C11.2877 9.57515 11.2773 9.46578 11.2773 9.3512V9.33557C11.2877 9.33557 11.2981 9.31995 11.3085 9.2887C11.3137 9.27307 11.3189 9.26005 11.3242 9.24963C11.3242 9.10901 11.3268 8.9788 11.332 8.85901C11.3372 8.73401 11.345 8.61422 11.3554 8.49963C11.3658 8.37984 11.3736 8.26005 11.3788 8.14026C11.3893 8.02047 11.3945 7.89026 11.3945 7.74963C11.3945 7.30172 11.3788 6.86682 11.3476 6.44495C11.3216 6.02307 11.2981 5.58818 11.2773 5.14026C11.2773 5.11943 11.2773 5.07515 11.2773 5.00745C11.2773 4.93974 11.2773 4.85901 11.2773 4.76526C11.2825 4.67151 11.2851 4.56995 11.2851 4.46057C11.2851 4.3512 11.2851 4.24963 11.2851 4.15588C11.2851 4.06213 11.2851 3.9814 11.2851 3.9137C11.2851 3.84078 11.2825 3.7939 11.2773 3.77307C11.2773 3.75224 11.2721 3.70536 11.2617 3.63245C11.2512 3.55432 11.2434 3.50224 11.2382 3.4762C11.233 3.47099 11.2278 3.46318 11.2226 3.45276L11.1992 3.42932H11.1601H11.1445C11.1028 3.45536 11.0742 3.4814 11.0585 3.50745C11.0429 3.53349 11.0299 3.56213 11.0195 3.59338C11.0143 3.61943 11.0064 3.65328 10.996 3.69495C10.9908 3.7314 10.9752 3.77568 10.9492 3.82776C10.9439 3.83297 10.9335 3.84599 10.9179 3.86682C10.9023 3.88245 10.8841 3.90328 10.8632 3.92932C10.8476 3.95015 10.832 3.97099 10.8163 3.99182C10.8007 4.00745 10.7929 4.01786 10.7929 4.02307C10.7044 4.1689 10.6393 4.32255 10.5976 4.48401C10.5559 4.64547 10.5064 4.80172 10.4492 4.95276C10.3762 5.13505 10.2955 5.33557 10.207 5.55432C10.1236 5.77307 10.0377 5.96838 9.94916 6.14026C9.94916 6.14547 9.94135 6.16109 9.92572 6.18713C9.9153 6.20797 9.90228 6.23401 9.88666 6.26526C9.87103 6.2913 9.85541 6.31474 9.83978 6.33557C9.82937 6.3564 9.82155 6.36943 9.81635 6.37463C9.80593 6.38505 9.79551 6.42151 9.7851 6.48401C9.77468 6.54651 9.76947 6.58297 9.76947 6.59338C9.75905 6.6038 9.74082 6.62724 9.71478 6.6637C9.68874 6.69495 9.67051 6.71578 9.6601 6.7262C9.64968 6.74182 9.63666 6.76265 9.62103 6.7887C9.61062 6.80953 9.60541 6.82515 9.60541 6.83557C9.60541 6.84078 9.6028 6.8564 9.5976 6.88245C9.5976 6.90328 9.59499 6.92932 9.58978 6.96057C9.58457 6.98661 9.57937 7.01265 9.57416 7.0387C9.57416 7.06474 9.57155 7.08036 9.56635 7.08557C9.54551 7.09599 9.52728 7.1064 9.51166 7.11682C9.48041 7.13765 9.46478 7.15588 9.46478 7.17151C9.45437 7.18193 9.44655 7.21578 9.44135 7.27307C9.43614 7.32515 9.42572 7.3564 9.4101 7.36682C9.4101 7.37724 9.40749 7.39026 9.40228 7.40588C9.39707 7.42151 9.39187 7.43713 9.38666 7.45276L9.37103 7.51526C9.36062 7.52568 9.33197 7.55172 9.2851 7.59338C9.23822 7.62984 9.21478 7.65068 9.21478 7.65588C9.20957 7.6663 9.20437 7.68713 9.19916 7.71838C9.19916 7.74443 9.19655 7.77568 9.19135 7.81213C9.18614 7.84338 9.18093 7.87463 9.17572 7.90588C9.17051 7.93193 9.1653 7.95015 9.1601 7.96057C9.11322 8.1064 9.04291 8.25224 8.94916 8.39807C8.85541 8.5439 8.78249 8.69495 8.73041 8.8512C8.64187 9.11161 8.54551 9.36943 8.44135 9.62463C8.33718 9.87984 8.21739 10.1272 8.08197 10.3668L7.5976 11.9528C7.59239 11.9632 7.56895 11.9892 7.52728 12.0309C7.49082 12.0673 7.46739 12.0882 7.45697 12.0934C7.43614 12.0934 7.40749 12.083 7.37103 12.0621C7.33457 12.0361 7.30593 12.0179 7.2851 12.0074C7.2278 11.9293 7.18353 11.8486 7.15228 11.7653C7.12103 11.6767 7.09239 11.5882 7.06635 11.4996C7.04551 11.4111 7.02207 11.3226 6.99603 11.234C6.96999 11.1403 6.93874 11.0465 6.90228 10.9528C6.84499 10.8069 6.78249 10.6611 6.71478 10.5153C6.64707 10.3694 6.57937 10.2262 6.51166 10.0856C6.50124 10.0804 6.49082 10.0569 6.48041 10.0153C6.4752 9.96838 6.46739 9.93453 6.45697 9.9137C6.45697 9.90849 6.45176 9.87984 6.44135 9.82776C6.43614 9.77568 6.42832 9.73922 6.41791 9.71838C6.31895 9.48401 6.21218 9.24443 6.0976 8.99963C5.98301 8.74963 5.87624 8.49963 5.77728 8.24963C5.71999 8.09859 5.66791 7.93713 5.62103 7.76526C5.57937 7.58818 5.52207 7.42151 5.44916 7.26526C5.43874 7.26005 5.42051 7.23922 5.39447 7.20276C5.36843 7.16109 5.34239 7.11943 5.31635 7.07776C5.2903 7.03088 5.26426 6.98922 5.23822 6.95276C5.21739 6.91109 5.20437 6.88505 5.19916 6.87463C5.04812 6.60901 4.90749 6.33557 4.77728 6.05432C4.64707 5.77307 4.52468 5.48922 4.4101 5.20276C4.39968 5.19234 4.38666 5.17672 4.37103 5.15588C4.36062 5.13505 4.35541 5.12203 4.35541 5.11682C4.18874 4.83036 4.0351 4.5439 3.89447 4.25745C3.75905 3.96578 3.61582 3.67411 3.46478 3.38245H3.44916H3.4101C3.40489 3.38765 3.38926 3.40328 3.36322 3.42932C3.33718 3.45015 3.32416 3.46578 3.32416 3.4762V4.13245C3.31895 4.13765 3.31114 4.16109 3.30072 4.20276C3.2903 4.24443 3.27728 4.2887 3.26166 4.33557C3.25124 4.38245 3.24082 4.42932 3.23041 4.4762C3.21999 4.51786 3.21478 4.54651 3.21478 4.56213C3.20437 4.66109 3.19655 4.76265 3.19135 4.86682C3.19135 4.96578 3.19135 5.06474 3.19135 5.1637C3.19135 5.30953 3.18874 5.45797 3.18353 5.60901C3.18353 5.75484 3.17572 5.90068 3.1601 6.04651C3.1601 6.04651 3.15749 6.05953 3.15228 6.08557C3.14707 6.1064 3.14187 6.13245 3.13666 6.1637C3.13666 6.18974 3.13405 6.21838 3.12885 6.24963C3.12364 6.27568 3.12103 6.2913 3.12103 6.29651C3.12103 6.45276 3.13666 6.61943 3.16791 6.79651C3.19916 6.96838 3.21478 7.13765 3.21478 7.30432V7.31995C3.21478 7.33036 3.20957 7.3564 3.19916 7.39807C3.18874 7.43453 3.17572 7.45536 3.1601 7.46057V8.24963C3.1601 8.51005 3.16791 8.76786 3.18353 9.02307C3.20437 9.27307 3.21478 9.52307 3.21478 9.77307V9.83557C3.21478 9.8564 3.21218 9.9163 3.20697 10.0153C3.20176 10.1142 3.19395 10.2236 3.18353 10.3434C3.17832 10.458 3.17312 10.5673 3.16791 10.6715C3.1627 10.7705 3.1601 10.833 3.1601 10.859V10.9137C3.1601 10.9814 3.16791 11.0621 3.18353 11.1559C3.19916 11.2496 3.2226 11.3434 3.25385 11.4371C3.2851 11.5309 3.32676 11.6194 3.37885 11.7028C3.43093 11.7861 3.49603 11.846 3.57416 11.8824C3.57937 11.8929 3.6028 11.9059 3.64447 11.9215C3.68614 11.9371 3.73041 11.9554 3.77728 11.9762C3.82937 11.9918 3.87624 12.0074 3.91791 12.0231C3.95957 12.0335 3.98301 12.0413 3.98822 12.0465C4.07676 12.0778 4.16791 12.096 4.26166 12.1012C4.36062 12.1012 4.45437 12.1064 4.54291 12.1168C4.63145 12.122 4.71739 12.1403 4.80072 12.1715C4.88405 12.2028 4.95957 12.2601 5.02728 12.3434V12.359C5.02728 12.4476 4.98822 12.5074 4.9101 12.5387C4.83718 12.5752 4.76687 12.5934 4.69916 12.5934H4.54291C4.17312 12.5673 3.80593 12.5413 3.44135 12.5153C3.08197 12.4892 2.7226 12.4762 2.36322 12.4762ZM20.9101 11.8199C20.9882 11.8304 21.0455 11.8538 21.082 11.8903C21.1236 11.9267 21.1783 11.9684 21.246 12.0153C21.3189 12.0569 21.3971 12.083 21.4804 12.0934C21.5637 12.1038 21.6445 12.109 21.7226 12.109H21.8398C21.9075 12.109 21.9726 12.1012 22.0351 12.0856C22.0976 12.0647 22.1627 12.0543 22.2304 12.0543C22.2773 12.0543 22.3242 12.0647 22.371 12.0856C22.4179 12.1012 22.4622 12.109 22.5038 12.109C22.733 12.109 22.9648 12.0439 23.1992 11.9137C23.4387 11.7835 23.6627 11.622 23.871 11.4293C24.0846 11.2314 24.2721 11.0179 24.4335 10.7887C24.595 10.5595 24.7174 10.3486 24.8007 10.1559C24.8632 10.0361 24.9127 9.90849 24.9492 9.77307C24.9856 9.63765 25.0195 9.51005 25.0507 9.39026C25.1236 9.14026 25.1992 8.89026 25.2773 8.64026C25.3554 8.38505 25.3945 8.12463 25.3945 7.85901C25.3945 7.71838 25.3971 7.58297 25.4023 7.45276C25.4075 7.31734 25.4101 7.17932 25.4101 7.0387C25.4101 6.88765 25.4075 6.73922 25.4023 6.59338C25.3971 6.44234 25.3945 6.2939 25.3945 6.14807C25.3841 6.14286 25.371 6.11422 25.3554 6.06213C25.345 6.01005 25.3398 5.97359 25.3398 5.95276V5.7262C25.3085 5.52828 25.2591 5.34338 25.1913 5.17151C25.1288 4.99963 25.0663 4.82255 25.0038 4.64026C25.0038 4.63505 25.0012 4.62203 24.996 4.6012C24.996 4.58036 24.9934 4.55693 24.9882 4.53088C24.983 4.49963 24.9752 4.47359 24.9648 4.45276C24.9596 4.42672 24.9544 4.41109 24.9492 4.40588C24.9492 4.39026 24.9257 4.3564 24.8788 4.30432C24.8372 4.25224 24.8111 4.22099 24.8007 4.21057C24.7955 4.20015 24.7903 4.18713 24.7851 4.17151C24.7799 4.16109 24.7747 4.15068 24.7695 4.14026C24.7643 4.12463 24.7591 4.11161 24.7538 4.1012C24.7486 4.08557 24.733 4.0439 24.707 3.9762C24.6809 3.90328 24.6523 3.82515 24.621 3.74182C24.5898 3.65849 24.5585 3.58297 24.5273 3.51526C24.5012 3.44234 24.483 3.39807 24.4726 3.38245C24.4361 3.30432 24.3893 3.23401 24.332 3.17151C24.2747 3.10901 24.2148 3.04911 24.1523 2.99182C24.095 2.93453 24.0403 2.87463 23.9882 2.81213C23.9413 2.74963 23.9075 2.67672 23.8867 2.59338L23.2929 2.01526C23.2408 2.01005 23.1783 1.98922 23.1054 1.95276C23.0377 1.9163 22.9648 1.87463 22.8867 1.82776C22.8137 1.78088 22.7408 1.73401 22.6679 1.68713C22.6002 1.64026 22.5377 1.6064 22.4804 1.58557C22.47 1.56995 22.4361 1.55693 22.3788 1.54651C22.3268 1.53609 22.2955 1.53088 22.2851 1.53088C22.2591 1.52047 22.2226 1.50745 22.1757 1.49182C22.1288 1.47099 22.0768 1.45015 22.0195 1.42932C21.9674 1.40849 21.9179 1.39026 21.871 1.37463C21.8294 1.3538 21.8007 1.34078 21.7851 1.33557C21.7226 1.36682 21.6575 1.38765 21.5898 1.39807C21.5221 1.40328 21.4518 1.40849 21.3788 1.4137C21.3111 1.4137 21.2408 1.4163 21.1679 1.42151C21.095 1.42672 21.0221 1.44495 20.9492 1.4762C20.6523 1.6064 20.3971 1.74182 20.1835 1.88245C19.9752 2.01786 19.7929 2.17151 19.6367 2.34338C19.4856 2.51526 19.3502 2.71057 19.2304 2.92932C19.1106 3.14286 18.9908 3.39286 18.871 3.67932C18.8189 3.78349 18.7643 3.88505 18.707 3.98401C18.6497 4.08297 18.6028 4.18713 18.5663 4.29651C18.5455 4.36422 18.5221 4.44755 18.496 4.54651C18.47 4.64547 18.4439 4.74182 18.4179 4.83557C18.3919 4.92932 18.3684 5.01265 18.3476 5.08557C18.332 5.15328 18.3242 5.18974 18.3242 5.19495V5.67932V6.34338C18.3242 6.36943 18.3268 6.4189 18.332 6.49182C18.3372 6.56474 18.3424 6.64286 18.3476 6.7262C18.3528 6.80953 18.358 6.89026 18.3632 6.96838C18.3684 7.04651 18.371 7.1012 18.371 7.13245C18.3919 7.28349 18.4205 7.43193 18.457 7.57776C18.4986 7.71838 18.5351 7.86422 18.5663 8.01526C18.6028 8.18193 18.6288 8.34859 18.6445 8.51526C18.6601 8.67672 18.7018 8.83818 18.7695 8.99963C18.832 9.1663 18.9153 9.34338 19.0195 9.53088C19.1288 9.71318 19.22 9.89026 19.2929 10.0621C19.3033 10.0726 19.3137 10.0986 19.3242 10.1403C19.3398 10.1767 19.3476 10.1976 19.3476 10.2028C19.3476 10.2132 19.3502 10.2262 19.3554 10.2418C19.3606 10.2522 19.3658 10.2627 19.371 10.2731C19.3762 10.2887 19.3841 10.3017 19.3945 10.3121C19.4049 10.3173 19.4283 10.3408 19.4648 10.3824C19.5064 10.4241 19.5325 10.4476 19.5429 10.4528C19.5429 10.458 19.5481 10.471 19.5585 10.4918C19.5689 10.5074 19.5794 10.5283 19.5898 10.5543C19.6054 10.5752 19.6158 10.596 19.621 10.6168C19.6314 10.6377 19.6367 10.6481 19.6367 10.6481C19.6471 10.6637 19.6627 10.6897 19.6835 10.7262C19.7096 10.7627 19.7278 10.7861 19.7382 10.7965C19.8163 10.8955 19.9075 10.9892 20.0117 11.0778C20.121 11.1611 20.2278 11.247 20.332 11.3356C20.3528 11.3512 20.3893 11.3824 20.4413 11.4293C20.4934 11.4762 20.5507 11.5257 20.6132 11.5778C20.6757 11.6298 20.733 11.6793 20.7851 11.7262C20.8424 11.7731 20.8841 11.8043 20.9101 11.8199ZM16.1288 6.9762V6.89807C16.1288 6.88245 16.1314 6.84859 16.1367 6.79651C16.1419 6.74443 16.1471 6.68713 16.1523 6.62463C16.1627 6.56213 16.1705 6.50484 16.1757 6.45276C16.1809 6.39547 16.1835 6.35901 16.1835 6.34338V5.67932C16.1835 5.67411 16.1861 5.66109 16.1913 5.64026C16.2018 5.61422 16.2096 5.58557 16.2148 5.55432C16.2252 5.52307 16.2356 5.49182 16.246 5.46057C16.2564 5.42932 16.2643 5.40588 16.2695 5.39026C16.2695 5.37463 16.2773 5.3538 16.2929 5.32776L16.3242 5.28088C16.3398 5.24963 16.358 5.20536 16.3788 5.14807C16.3997 5.08557 16.4205 5.02307 16.4413 4.96057C16.4622 4.89807 16.4804 4.84078 16.496 4.7887C16.5117 4.73661 16.5195 4.70536 16.5195 4.69495C16.5195 4.68974 16.5195 4.67151 16.5195 4.64026C16.5247 4.60901 16.5299 4.57776 16.5351 4.54651C16.5403 4.51526 16.5455 4.48661 16.5507 4.46057C16.5611 4.42932 16.5689 4.41109 16.5742 4.40588C16.6314 4.24963 16.7018 4.1038 16.7851 3.96838C16.8684 3.83297 16.957 3.70276 17.0507 3.57776C17.1497 3.45276 17.2538 3.33036 17.3632 3.21057C17.4726 3.09078 17.582 2.96838 17.6913 2.84338C17.8268 2.68713 17.9518 2.55693 18.0663 2.45276C18.1809 2.34338 18.3189 2.2288 18.4804 2.10901C18.5325 2.06213 18.5846 2.01005 18.6367 1.95276C18.6939 1.89547 18.7538 1.8512 18.8163 1.81995C18.8163 1.80953 18.8372 1.80172 18.8788 1.79651C18.9257 1.78609 18.9544 1.78088 18.9648 1.78088C19.0325 1.74443 19.1054 1.69755 19.1835 1.64026C19.2617 1.57776 19.332 1.5413 19.3945 1.53088H19.5976C19.6028 1.52568 19.6158 1.51786 19.6367 1.50745C19.6627 1.49182 19.6887 1.4762 19.7148 1.46057C19.746 1.43974 19.7721 1.42411 19.7929 1.4137C19.8137 1.39807 19.8268 1.38765 19.832 1.38245C19.8528 1.37203 19.8867 1.3564 19.9335 1.33557C19.9856 1.30953 20.0169 1.2913 20.0273 1.28088C20.0377 1.28088 20.0637 1.27307 20.1054 1.25745C20.1471 1.23661 20.1731 1.2262 20.1835 1.2262C20.1939 1.22099 20.2226 1.19755 20.2695 1.15588C20.3216 1.10901 20.358 1.08557 20.3788 1.08557C20.3841 1.08036 20.4049 1.07776 20.4413 1.07776C20.483 1.07255 20.5247 1.06734 20.5663 1.06213C20.6132 1.05693 20.6549 1.05172 20.6913 1.04651C20.733 1.0413 20.7617 1.03609 20.7773 1.03088C20.8606 1.02047 20.9387 0.994425 21.0117 0.952759C21.0846 0.911092 21.1731 0.890259 21.2773 0.890259H21.3007C21.3111 0.890259 21.3398 0.898071 21.3867 0.913696C21.4387 0.929321 21.4752 0.937134 21.496 0.937134H22.4804C22.4856 0.937134 22.5012 0.939738 22.5273 0.944946C22.5533 0.944946 22.582 0.94755 22.6132 0.952759C22.6445 0.957967 22.6731 0.96578 22.6992 0.976196C22.7304 0.981405 22.7538 0.986613 22.7695 0.991821C23.1288 1.08036 23.4804 1.19234 23.8242 1.32776C24.1731 1.46318 24.4986 1.64547 24.8007 1.87463C24.9049 1.93713 25.0091 1.99703 25.1132 2.05432C25.2226 2.11161 25.3163 2.17672 25.3945 2.24963C25.4101 2.26526 25.4492 2.30693 25.5117 2.37463C25.5742 2.43713 25.6419 2.50484 25.7148 2.57776C25.7877 2.64547 25.8554 2.71318 25.9179 2.78088C25.9804 2.84338 26.0195 2.88245 26.0351 2.89807C26.0663 2.92932 26.0924 2.95015 26.1132 2.96057C26.1341 2.97099 26.1523 2.9788 26.1679 2.98401C26.1887 2.98922 26.207 2.99963 26.2226 3.01526C26.2382 3.03088 26.2591 3.05693 26.2851 3.09338C26.2903 3.1038 26.3033 3.12724 26.3242 3.1637C26.3502 3.20015 26.3762 3.23922 26.4023 3.28088C26.4283 3.32255 26.4518 3.36422 26.4726 3.40588C26.4986 3.44234 26.5169 3.46838 26.5273 3.48401C26.6106 3.62984 26.6992 3.77307 26.7929 3.9137C26.8919 4.05432 26.9778 4.20015 27.0507 4.3512C27.1288 4.49703 27.1861 4.64807 27.2226 4.80432C27.2643 4.95536 27.3059 5.11422 27.3476 5.28088C27.3632 5.33818 27.3893 5.4189 27.4257 5.52307C27.4622 5.62724 27.4856 5.71318 27.496 5.78088C27.5117 5.89547 27.5221 5.99963 27.5273 6.09338C27.5325 6.18193 27.5377 6.27047 27.5429 6.35901C27.5481 6.44234 27.5507 6.53088 27.5507 6.62463C27.5507 6.71318 27.5507 6.81213 27.5507 6.92151C27.5507 7.39547 27.4856 7.84078 27.3554 8.25745C27.2304 8.6689 27.0507 9.07776 26.8163 9.48401C26.6497 9.76526 26.4518 10.0257 26.2226 10.2653C25.9934 10.5048 25.7669 10.747 25.5429 10.9918C25.5325 11.0022 25.5143 11.0283 25.4882 11.0699C25.4674 11.1064 25.4544 11.1298 25.4492 11.1403C25.4439 11.1455 25.4257 11.1559 25.3945 11.1715C25.3684 11.1871 25.3372 11.2028 25.3007 11.2184C25.2695 11.234 25.2382 11.2496 25.207 11.2653C25.1757 11.2809 25.1549 11.2913 25.1445 11.2965C25.1393 11.2965 25.1262 11.3043 25.1054 11.3199C25.0846 11.3356 25.0611 11.3538 25.0351 11.3746C25.0091 11.3955 24.983 11.4163 24.957 11.4371C24.9361 11.458 24.9205 11.4762 24.9101 11.4918C24.9049 11.497 24.8867 11.5153 24.8554 11.5465C24.8294 11.5726 24.8007 11.6012 24.7695 11.6324C24.7382 11.6637 24.707 11.6949 24.6757 11.7262C24.6497 11.7522 24.6314 11.7653 24.621 11.7653C24.6158 11.7705 24.595 11.7835 24.5585 11.8043C24.5273 11.8252 24.4882 11.8486 24.4413 11.8746C24.3945 11.9007 24.3476 11.9267 24.3007 11.9528C24.2538 11.9788 24.2174 11.9996 24.1913 12.0153C24.1757 12.0257 24.1549 12.0361 24.1288 12.0465C24.108 12.0517 24.0924 12.0543 24.082 12.0543C24.0351 12.0804 23.9752 12.109 23.9023 12.1403C23.8294 12.1715 23.7564 12.2028 23.6835 12.234C23.6106 12.2653 23.5455 12.2939 23.4882 12.3199C23.4361 12.3408 23.4075 12.3538 23.4023 12.359C23.3554 12.3798 23.2903 12.4059 23.207 12.4371C23.1288 12.4632 23.0507 12.4892 22.9726 12.5153C22.8945 12.5413 22.8268 12.5621 22.7695 12.5778C22.7122 12.5986 22.6809 12.609 22.6757 12.609H21.1054C21.0689 12.6038 21.0351 12.596 21.0038 12.5856C20.9778 12.5804 20.9492 12.5752 20.9179 12.5699C20.8919 12.5647 20.8736 12.5595 20.8632 12.5543C20.858 12.5543 20.8346 12.5439 20.7929 12.5231C20.7564 12.5074 20.733 12.4996 20.7226 12.4996C20.707 12.4996 20.6757 12.4944 20.6288 12.484C20.582 12.4736 20.5299 12.4658 20.4726 12.4606C20.4153 12.4502 20.3632 12.4397 20.3163 12.4293C20.2695 12.4189 20.2382 12.4137 20.2226 12.4137C20.2174 12.4085 20.1992 12.3981 20.1679 12.3824C20.1367 12.3668 20.1028 12.3512 20.0663 12.3356C20.0299 12.3199 19.9934 12.3043 19.957 12.2887C19.9205 12.2731 19.8945 12.2601 19.8788 12.2496C19.7018 12.1663 19.5221 12.083 19.3398 11.9996C19.1627 11.9163 18.9882 11.8226 18.8163 11.7184C18.6809 11.6403 18.5403 11.5465 18.3945 11.4371C18.2538 11.3226 18.1132 11.2028 17.9726 11.0778C17.8372 10.9528 17.707 10.8252 17.582 10.6949C17.457 10.5595 17.345 10.4319 17.246 10.3121C17.1887 10.234 17.1419 10.1559 17.1054 10.0778C17.0689 9.99443 17.0351 9.9137 17.0038 9.83557C16.9726 9.75224 16.9413 9.6689 16.9101 9.58557C16.8841 9.50224 16.8502 9.4189 16.8085 9.33557C16.8033 9.33036 16.7877 9.31474 16.7617 9.2887C16.7356 9.26265 16.7226 9.24443 16.7226 9.23401C16.6549 9.1038 16.5846 8.93974 16.5117 8.74182C16.4439 8.5387 16.3814 8.33036 16.3242 8.11682C16.2669 7.90328 16.22 7.69495 16.1835 7.49182C16.1471 7.2887 16.1288 7.11682 16.1288 6.9762ZM32.3007 4.73401V5.15588C32.3007 5.33297 32.3033 5.50745 32.3085 5.67932C32.3137 5.8512 32.3294 6.02047 32.3554 6.18713C32.3606 6.24443 32.3893 6.2913 32.4413 6.32776C32.4986 6.36422 32.5559 6.38245 32.6132 6.38245C32.7486 6.38245 32.871 6.35901 32.9804 6.31213C33.0898 6.26526 33.2044 6.22359 33.3242 6.18713C33.5742 6.1038 33.7799 6.02568 33.9413 5.95276C34.108 5.87984 34.2538 5.79651 34.3788 5.70276C34.5038 5.60901 34.621 5.49703 34.7304 5.36682C34.845 5.2314 34.9752 5.06474 35.121 4.86682C35.1783 4.80432 35.2304 4.73661 35.2773 4.6637C35.3294 4.59078 35.3606 4.51786 35.371 4.44495V4.29651V3.94495C35.371 3.93453 35.3788 3.90068 35.3945 3.84338C35.4153 3.78609 35.4257 3.75484 35.4257 3.74963V3.71838V3.69495C35.3997 3.59078 35.3736 3.4788 35.3476 3.35901C35.3268 3.23401 35.3007 3.11943 35.2695 3.01526C35.2538 2.95276 35.2226 2.87203 35.1757 2.77307C35.1288 2.67411 35.0768 2.57515 35.0195 2.4762C34.9622 2.37724 34.9049 2.28609 34.8476 2.20276C34.7903 2.11943 34.7408 2.06474 34.6992 2.0387C34.6887 2.03349 34.6601 2.02828 34.6132 2.02307C34.5663 2.01265 34.5429 2.00224 34.5429 1.99182C34.5377 1.9814 34.5221 1.95015 34.496 1.89807C34.47 1.84078 34.457 1.80432 34.457 1.7887C34.4518 1.7887 34.4413 1.78088 34.4257 1.76526C34.4153 1.76005 34.4075 1.75484 34.4023 1.74963C34.2669 1.68713 34.1288 1.62463 33.9882 1.56213C33.8476 1.49963 33.7044 1.43193 33.5585 1.35901C33.5325 1.3538 33.483 1.34599 33.4101 1.33557C33.3372 1.32515 33.2591 1.31474 33.1757 1.30432C33.0976 1.2939 33.0221 1.28349 32.9492 1.27307C32.8762 1.26265 32.8268 1.25745 32.8007 1.25745H32.7617C32.6262 1.25745 32.5221 1.30432 32.4492 1.39807C32.3762 1.48661 32.345 1.6038 32.3554 1.74963C32.3606 2.25484 32.3528 2.75224 32.332 3.24182C32.3111 3.7314 32.3007 4.2288 32.3007 4.73401ZM32.207 11.2809C32.207 11.4476 32.2252 11.5804 32.2617 11.6793C32.2981 11.7783 32.358 11.8955 32.4413 12.0309C32.4413 12.0413 32.4492 12.0595 32.4648 12.0856C32.4856 12.1116 32.496 12.1272 32.496 12.1324C32.5064 12.1324 32.5351 12.1351 32.582 12.1403C32.6288 12.1455 32.6575 12.1481 32.6679 12.1481C32.7721 12.1481 32.8632 12.1246 32.9413 12.0778C33.0247 12.0309 33.1184 12.0022 33.2226 11.9918C33.3163 11.9866 33.4023 11.984 33.4804 11.984C33.5637 11.9788 33.6445 11.9736 33.7226 11.9684C33.8007 11.9632 33.8788 11.9528 33.957 11.9371C34.0351 11.9163 34.1184 11.8824 34.207 11.8356C34.2174 11.8304 34.2356 11.8199 34.2617 11.8043C34.2929 11.7835 34.3242 11.7627 34.3554 11.7418C34.3867 11.721 34.4153 11.7028 34.4413 11.6871C34.4726 11.6715 34.4934 11.6637 34.5038 11.6637C34.5091 11.6585 34.5247 11.6507 34.5507 11.6403C34.582 11.6246 34.6132 11.6116 34.6445 11.6012C34.6809 11.5856 34.7122 11.5752 34.7382 11.5699C34.7695 11.5595 34.7877 11.5543 34.7929 11.5543C34.8137 11.5491 34.8476 11.5283 34.8945 11.4918C34.9466 11.4502 34.9778 11.4241 34.9882 11.4137C34.9986 11.3981 35.0247 11.3668 35.0663 11.3199C35.108 11.2679 35.1549 11.2106 35.207 11.1481C35.2591 11.0856 35.3085 11.0231 35.3554 10.9606C35.4023 10.8981 35.4387 10.8512 35.4648 10.8199C35.4856 10.7991 35.5064 10.7731 35.5273 10.7418C35.5533 10.7106 35.5663 10.6897 35.5663 10.6793C35.6132 10.5804 35.6471 10.4762 35.6679 10.3668C35.6939 10.2522 35.7278 10.1429 35.7695 10.0387V9.31213C35.7434 9.28609 35.7252 9.25484 35.7148 9.21838C35.7044 9.18193 35.6992 9.14807 35.6992 9.11682C35.6992 9.08557 35.7018 9.05432 35.707 9.02307C35.7122 8.99182 35.7148 8.96578 35.7148 8.94495V8.92151C35.7044 8.84338 35.6757 8.76786 35.6288 8.69495C35.582 8.61682 35.5585 8.53349 35.5585 8.44495C35.5585 8.43453 35.5585 8.42411 35.5585 8.4137C35.5637 8.40328 35.5663 8.39286 35.5663 8.38245C35.5507 8.36161 35.5195 8.32255 35.4726 8.26526C35.4309 8.20797 35.3814 8.14807 35.3242 8.08557C35.2721 8.02307 35.22 7.96578 35.1679 7.9137C35.121 7.86161 35.0872 7.82515 35.0663 7.80432C35.0663 7.7939 35.0455 7.77047 35.0038 7.73401C34.9622 7.69234 34.9413 7.6663 34.9413 7.65588C34.9309 7.64547 34.9205 7.62203 34.9101 7.58557C34.9049 7.5439 34.9023 7.51526 34.9023 7.49963C34.8867 7.49443 34.8658 7.4814 34.8398 7.46057C34.8189 7.43453 34.8033 7.4189 34.7929 7.4137C34.6731 7.31995 34.5429 7.23922 34.4023 7.17151C34.2669 7.1038 34.1262 7.04651 33.9804 6.99963C33.8346 6.95276 33.6861 6.91109 33.5351 6.87463C33.3841 6.83818 33.2356 6.80172 33.0898 6.76526C33.0794 6.76526 33.0585 6.76265 33.0273 6.75745C33.0012 6.74703 32.9726 6.73661 32.9413 6.7262C32.9101 6.71578 32.8788 6.70536 32.8476 6.69495C32.8216 6.68453 32.8059 6.67672 32.8007 6.67151C32.7538 6.6663 32.7018 6.67672 32.6445 6.70276C32.5872 6.7288 32.5325 6.76265 32.4804 6.80432C32.4283 6.84599 32.3841 6.89286 32.3476 6.94495C32.3163 6.99182 32.3007 7.03349 32.3007 7.06995V8.2262C32.3111 8.24703 32.3216 8.28349 32.332 8.33557C32.3476 8.38245 32.3554 8.41109 32.3554 8.42151V8.46057V8.4762C32.3554 8.4814 32.3476 8.49703 32.332 8.52307C32.3216 8.54911 32.3111 8.56734 32.3007 8.57776C32.3007 8.6663 32.3033 8.74703 32.3085 8.81995C32.3137 8.89286 32.3163 8.96578 32.3163 9.0387C32.3163 9.11682 32.3111 9.19234 32.3007 9.26526C32.2903 9.33818 32.2721 9.4189 32.246 9.50745C32.2356 9.51786 32.2278 9.53088 32.2226 9.54651C32.2122 9.57776 32.207 9.59599 32.207 9.6012V9.62463C32.207 9.67151 32.2122 9.71578 32.2226 9.75745C32.2382 9.79911 32.246 9.84859 32.246 9.90588V9.98401C32.246 9.98922 32.2382 10.0127 32.2226 10.0543C32.2122 10.096 32.207 10.1194 32.207 10.1246C32.207 10.1403 32.2122 10.1689 32.2226 10.2106C32.2382 10.247 32.246 10.2705 32.246 10.2809V10.4449C32.246 10.5804 32.2382 10.721 32.2226 10.8668C32.2122 11.0074 32.207 11.1455 32.207 11.2809ZM28.746 12.3824C28.746 12.3252 28.7617 12.2731 28.7929 12.2262C28.8294 12.1793 28.871 12.1377 28.9179 12.1012C28.97 12.0647 29.0247 12.0335 29.082 12.0074C29.1393 11.9814 29.1887 11.958 29.2304 11.9371C29.4023 11.9528 29.582 11.9606 29.7695 11.9606C29.8684 11.9606 29.9648 11.9554 30.0585 11.9449C30.1523 11.9293 30.2356 11.9007 30.3085 11.859C30.3814 11.8121 30.4387 11.7496 30.4804 11.6715C30.5221 11.5934 30.5429 11.4892 30.5429 11.359V9.50745C30.5325 9.48661 30.5221 9.44495 30.5117 9.38245C30.5064 9.31995 30.5038 9.27828 30.5038 9.25745V9.21057V9.17151C30.5038 9.15588 30.5064 9.12203 30.5117 9.06995C30.5169 9.01786 30.5195 8.96057 30.5195 8.89807C30.5247 8.83557 30.5299 8.77828 30.5351 8.7262C30.5403 8.6689 30.5429 8.63245 30.5429 8.61682C30.5429 8.57515 30.5429 8.49443 30.5429 8.37463C30.5481 8.25484 30.5507 8.12984 30.5507 7.99963C30.5559 7.86422 30.5585 7.73661 30.5585 7.61682C30.5637 7.49182 30.5663 7.40588 30.5663 7.35901V7.10901C30.5716 7.06213 30.5742 6.97359 30.5742 6.84338C30.5794 6.71318 30.582 6.57776 30.582 6.43713C30.5872 6.2913 30.5898 6.15328 30.5898 6.02307C30.595 5.89286 30.5976 5.80432 30.5976 5.75745C30.5976 5.74703 30.595 5.7288 30.5898 5.70276C30.5846 5.67151 30.5768 5.64026 30.5663 5.60901C30.5611 5.57255 30.5559 5.5413 30.5507 5.51526C30.5455 5.48401 30.5429 5.46318 30.5429 5.45276V5.39807V5.35901C30.5429 5.34859 30.5455 5.32776 30.5507 5.29651C30.5559 5.26005 30.5611 5.22359 30.5663 5.18713C30.5716 5.15068 30.5768 5.11682 30.582 5.08557C30.5872 5.04911 30.5924 5.02307 30.5976 5.00745V2.76526C30.5976 2.62984 30.6132 2.50484 30.6445 2.39026C30.6809 2.27047 30.6992 2.13765 30.6992 1.99182C30.6992 1.8512 30.6783 1.73401 30.6367 1.64026C30.6002 1.5413 30.5195 1.44755 30.3945 1.35901C30.3632 1.36943 30.3059 1.37463 30.2226 1.37463C30.1445 1.37463 30.0637 1.37463 29.9804 1.37463C29.8919 1.37463 29.8085 1.37463 29.7304 1.37463C29.6575 1.37463 29.608 1.36943 29.582 1.35901C29.5351 1.35901 29.4752 1.34599 29.4023 1.31995C29.3346 1.2939 29.2643 1.26526 29.1913 1.23401C29.1236 1.19755 29.0611 1.15849 29.0038 1.11682C28.9466 1.07515 28.9075 1.0387 28.8867 1.00745C28.9544 0.90328 29.0273 0.84078 29.1054 0.819946C29.1835 0.793905 29.2695 0.780884 29.3632 0.780884H29.6601C29.6757 0.780884 29.7096 0.773071 29.7617 0.757446C29.8189 0.736613 29.8528 0.726196 29.8632 0.726196C29.8684 0.726196 29.8814 0.7288 29.9023 0.734009C29.9231 0.739217 29.9439 0.74703 29.9648 0.757446C29.9856 0.762655 30.0038 0.767863 30.0195 0.773071C30.0403 0.77828 30.0533 0.780884 30.0585 0.780884H30.8945C30.9309 0.801717 30.9726 0.817342 31.0195 0.827759C31.0663 0.832967 31.1132 0.835571 31.1601 0.835571H31.3398H31.4335L31.496 0.851196C31.5377 0.861613 31.5611 0.869425 31.5663 0.874634H32.0663H32.246C32.2617 0.874634 32.2903 0.877238 32.332 0.882446C32.3788 0.887655 32.4257 0.892863 32.4726 0.898071C32.5195 0.90328 32.5637 0.908488 32.6054 0.913696C32.6471 0.918905 32.6757 0.924113 32.6913 0.929321L32.8007 0.874634H33.6132C33.6341 0.864217 33.6783 0.856405 33.746 0.851196C33.8137 0.84078 33.8528 0.835571 33.8632 0.835571L33.8945 0.819946C33.9153 0.80953 33.9257 0.804321 33.9257 0.804321C34.3893 0.804321 34.8372 0.87203 35.2695 1.00745L35.3163 1.05432C35.4518 1.14807 35.5924 1.2288 35.7382 1.29651C35.8841 1.36422 36.0247 1.43453 36.1601 1.50745L36.1757 1.52307C36.1913 1.5387 36.2044 1.54911 36.2148 1.55432C36.2148 1.56474 36.2278 1.59078 36.2538 1.63245C36.2799 1.6689 36.2955 1.69234 36.3007 1.70276C36.3059 1.71318 36.3137 1.72099 36.3242 1.7262C36.3294 1.74182 36.3398 1.74963 36.3554 1.74963C36.4752 1.90068 36.5846 2.04911 36.6835 2.19495C36.7825 2.34078 36.8684 2.49182 36.9413 2.64807C37.0143 2.80432 37.0689 2.96838 37.1054 3.14026C37.1471 3.31213 37.1679 3.49703 37.1679 3.69495V3.74963C37.1679 3.76005 37.1653 3.78349 37.1601 3.81995C37.1549 3.8564 37.1497 3.89807 37.1445 3.94495C37.1445 3.98661 37.1419 4.02568 37.1367 4.06213C37.1314 4.09859 37.1288 4.12463 37.1288 4.14026V4.3512V4.44495C37.1132 4.49182 37.095 4.53609 37.0742 4.57776C37.0585 4.61422 37.0403 4.65068 37.0195 4.68713C36.9986 4.71838 36.983 4.74703 36.9726 4.77307C36.9257 4.89286 36.8736 5.02828 36.8163 5.17932C36.7643 5.33036 36.6939 5.45797 36.6054 5.56213C36.595 5.56734 36.5663 5.57255 36.5195 5.57776C36.4726 5.58297 36.4492 5.59078 36.4492 5.6012C36.4387 5.61161 36.4127 5.63765 36.371 5.67932C36.3346 5.71578 36.3111 5.74182 36.3007 5.75745C36.2955 5.76265 36.2721 5.77307 36.2304 5.7887C36.1939 5.80432 36.1523 5.82255 36.1054 5.84338C36.0637 5.86422 36.0221 5.88505 35.9804 5.90588C35.9439 5.92672 35.9205 5.94234 35.9101 5.95276C35.8893 5.96838 35.8554 5.99963 35.8085 6.04651C35.7617 6.08818 35.7122 6.13505 35.6601 6.18713C35.608 6.23401 35.5585 6.28088 35.5117 6.32776C35.47 6.37463 35.4413 6.40849 35.4257 6.42932C35.4309 6.45015 35.4492 6.46578 35.4804 6.4762C35.5117 6.48661 35.5455 6.49443 35.582 6.49963C35.6184 6.49963 35.6549 6.50224 35.6913 6.50745C35.7278 6.50745 35.7538 6.51005 35.7695 6.51526C35.7747 6.53088 35.8033 6.55693 35.8554 6.59338C35.9075 6.62463 35.9439 6.65068 35.9648 6.67151C35.97 6.68193 35.9934 6.70797 36.0351 6.74963C36.0768 6.78609 36.1002 6.80953 36.1054 6.81995C36.1106 6.82515 36.1236 6.83557 36.1445 6.8512C36.1705 6.86161 36.1966 6.87463 36.2226 6.89026C36.2486 6.90588 36.2747 6.92151 36.3007 6.93713C36.3268 6.95276 36.345 6.96057 36.3554 6.96057C36.5117 7.08557 36.6523 7.2314 36.7773 7.39807C36.9023 7.56474 37.0195 7.7314 37.1288 7.89807C37.1341 7.90328 37.1445 7.9189 37.1601 7.94495C37.1809 7.96578 37.2018 7.99182 37.2226 8.02307C37.2434 8.04911 37.2643 8.07515 37.2851 8.1012C37.3059 8.12724 37.3189 8.14286 37.3242 8.14807C37.3658 8.21578 37.4075 8.31474 37.4492 8.44495C37.4908 8.57515 37.5273 8.71057 37.5585 8.8512C37.5898 8.99182 37.6158 9.12984 37.6367 9.26526C37.6575 9.39547 37.6679 9.49963 37.6679 9.57776C37.6679 9.65068 37.6549 9.7288 37.6288 9.81213C37.608 9.89547 37.5872 9.97099 37.5663 10.0387C37.5559 10.0699 37.5455 10.1168 37.5351 10.1793C37.5299 10.2366 37.5273 10.2705 37.5273 10.2809V10.5231C37.5117 10.5856 37.483 10.6611 37.4413 10.7496C37.3997 10.8382 37.3606 10.9111 37.3242 10.9684C37.2825 11.0413 37.2356 11.122 37.1835 11.2106C37.1314 11.2991 37.0742 11.3851 37.0117 11.4684C36.9492 11.5517 36.8841 11.6298 36.8163 11.7028C36.7486 11.7757 36.6783 11.8356 36.6054 11.8824C36.5898 11.8929 36.5585 11.9111 36.5117 11.9371C36.4648 11.9632 36.4127 11.9918 36.3554 12.0231C36.2981 12.0491 36.246 12.0752 36.1992 12.1012C36.1523 12.122 36.121 12.1324 36.1054 12.1324C36.0585 12.1585 36.0195 12.1819 35.9882 12.2028C35.9622 12.2184 35.9335 12.234 35.9023 12.2496C35.871 12.2653 35.8372 12.2809 35.8007 12.2965C35.7643 12.3121 35.7174 12.3252 35.6601 12.3356C35.6028 12.346 35.5325 12.359 35.4492 12.3746C35.3658 12.3903 35.2825 12.4059 35.1992 12.4215C35.1054 12.4423 35.0064 12.4606 34.9023 12.4762H32.207C32.1966 12.4814 32.1731 12.4866 32.1367 12.4918C32.1054 12.497 32.0716 12.5022 32.0351 12.5074C31.9986 12.5127 31.9622 12.5179 31.9257 12.5231C31.8945 12.5283 31.871 12.5309 31.8554 12.5309H30.3945C30.3216 12.5517 30.2512 12.5647 30.1835 12.5699C30.121 12.5752 30.0559 12.5778 29.9882 12.5778H29.6601H29.4804C29.47 12.5778 29.4439 12.583 29.4023 12.5934C29.3658 12.609 29.3424 12.6168 29.332 12.6168H29.207C29.1757 12.6168 29.1341 12.6142 29.082 12.609C29.0299 12.6038 28.9778 12.5908 28.9257 12.5699C28.8788 12.5543 28.8372 12.5309 28.8007 12.4996C28.7643 12.4684 28.746 12.4293 28.746 12.3824ZM41.5038 12.3199C41.5038 12.2002 41.5481 12.0986 41.6367 12.0153C41.7304 11.9267 41.8346 11.8824 41.9492 11.8824C41.9544 11.8824 41.9674 11.8851 41.9882 11.8903C42.0091 11.8955 42.0325 11.9007 42.0585 11.9059C42.0846 11.9111 42.1106 11.9163 42.1367 11.9215C42.1627 11.9267 42.1835 11.9319 42.1992 11.9371C42.2096 11.9371 42.233 11.9476 42.2695 11.9684C42.3059 11.984 42.3294 11.9918 42.3398 11.9918H42.371H42.3788C42.4778 11.9658 42.5768 11.9449 42.6757 11.9293C42.7799 11.9085 42.8736 11.8798 42.957 11.8434C43.0403 11.8017 43.1054 11.7444 43.1523 11.6715C43.2044 11.5986 43.2278 11.4918 43.2226 11.3512L43.1992 9.89026L43.1835 9.75745V8.59338C43.1367 8.49963 43.1054 8.42932 43.0898 8.38245C43.0794 8.33036 43.0742 8.26786 43.0742 8.19495V8.09338C43.0794 8.07255 43.0898 8.03609 43.1054 7.98401C43.121 7.92672 43.1367 7.86943 43.1523 7.81213C43.1731 7.75484 43.1887 7.70276 43.1992 7.65588C43.2148 7.6038 43.2226 7.57515 43.2226 7.56995C43.2226 7.55953 43.2174 7.5413 43.207 7.51526C43.1966 7.48922 43.1861 7.46318 43.1757 7.43713C43.1653 7.40588 43.1523 7.37984 43.1367 7.35901C43.1262 7.33297 43.121 7.31995 43.121 7.31995C43.121 7.30953 43.1158 7.28088 43.1054 7.23401C43.095 7.18713 43.0846 7.15068 43.0742 7.12463C43.0742 7.11943 43.0716 7.1064 43.0663 7.08557C43.0611 7.05953 43.0559 7.03349 43.0507 7.00745C43.0455 6.9762 43.0403 6.94755 43.0351 6.92151C43.0299 6.89547 43.0273 6.87984 43.0273 6.87463C43.0273 6.86943 43.0195 6.85901 43.0038 6.84338C42.9934 6.82255 42.9778 6.80172 42.957 6.78088C42.9413 6.76005 42.9257 6.74182 42.9101 6.7262C42.8945 6.70536 42.8841 6.69234 42.8788 6.68713C42.8268 6.60901 42.7929 6.52568 42.7773 6.43713C42.7617 6.34859 42.7304 6.26526 42.6835 6.18713C42.6575 6.1663 42.6158 6.12984 42.5585 6.07776C42.5012 6.02047 42.4413 5.95797 42.3788 5.89026C42.3163 5.82255 42.2564 5.76005 42.1992 5.70276C42.1471 5.64026 42.1106 5.59338 42.0898 5.56213C42.0012 5.44755 41.9205 5.31474 41.8476 5.1637C41.7799 5.00745 41.6992 4.86422 41.6054 4.73401C41.5325 4.61422 41.4518 4.50224 41.3632 4.39807C41.2799 4.2887 41.2044 4.17672 41.1367 4.06213C41.1262 4.04651 41.1106 4.02047 41.0898 3.98401C41.0742 3.94755 41.0559 3.90849 41.0351 3.86682C41.0195 3.82515 41.0012 3.78609 40.9804 3.74963C40.9648 3.71318 40.9518 3.68713 40.9413 3.67151C40.858 3.48922 40.7434 3.31995 40.5976 3.1637C40.457 3.00224 40.3268 2.84599 40.207 2.69495C40.1966 2.67932 40.1705 2.64026 40.1288 2.57776C40.0872 2.51526 40.0403 2.44755 39.9882 2.37463C39.9413 2.30172 39.8971 2.23401 39.8554 2.17151C39.8137 2.10901 39.7851 2.06995 39.7695 2.05432C39.7643 2.04911 39.7591 2.04651 39.7538 2.04651C39.7486 2.0413 39.7434 2.03609 39.7382 2.03088C39.7278 2.02568 39.72 2.02047 39.7148 2.01526C39.7044 2.01526 39.6887 2.00745 39.6679 1.99182C39.6523 1.9814 39.6393 1.97099 39.6288 1.96057C39.6184 1.95015 39.5976 1.93193 39.5663 1.90588C39.5403 1.87463 39.5091 1.84338 39.4726 1.81213C39.4413 1.78088 39.4101 1.75224 39.3788 1.7262C39.3528 1.70015 39.3346 1.68193 39.3242 1.67151C39.2669 1.61943 39.1939 1.58818 39.1054 1.57776C39.0169 1.56213 38.9309 1.54651 38.8476 1.53088C38.7643 1.51005 38.6939 1.4788 38.6367 1.43713C38.5794 1.39026 38.5507 1.31213 38.5507 1.20276C38.5507 1.19234 38.5481 1.17672 38.5429 1.15588C38.5377 1.13505 38.5351 1.11422 38.5351 1.09338C38.5351 1.0413 38.5585 1.00745 38.6054 0.991821C38.6314 0.986613 38.6809 0.9788 38.7538 0.968384C38.8268 0.957967 38.9049 0.94755 38.9882 0.937134C39.0716 0.926717 39.1497 0.9163 39.2226 0.905884C39.2955 0.895467 39.3476 0.890259 39.3788 0.890259H39.457H39.5195C39.5299 0.890259 39.5533 0.898071 39.5898 0.913696C39.6314 0.929321 39.6575 0.937134 39.6679 0.937134H40.3085C40.4075 0.94755 40.5038 0.96578 40.5976 0.991821C40.6966 1.01786 40.8007 1.03088 40.9101 1.03088C40.9986 1.03088 41.082 1.02828 41.1601 1.02307C41.2382 1.01265 41.3216 1.00224 41.4101 0.991821C41.4205 0.991821 41.4387 0.984009 41.4648 0.968384C41.4804 0.957967 41.4934 0.94755 41.5038 0.937134H41.5976C41.7643 0.937134 41.9179 0.955363 42.0585 0.991821C42.2044 1.02828 42.3606 1.04651 42.5273 1.04651C42.5533 1.04651 42.5794 1.0439 42.6054 1.0387C42.6314 1.03349 42.6575 1.03088 42.6835 1.03088C42.7252 1.05693 42.746 1.09078 42.746 1.13245C42.746 1.21578 42.7018 1.27828 42.6132 1.31995C42.5247 1.3564 42.4257 1.39547 42.3163 1.43713C42.2122 1.47359 42.1158 1.52047 42.0273 1.57776C41.9387 1.62984 41.8945 1.71057 41.8945 1.81995V1.96057C41.9049 1.96057 41.9335 1.99443 41.9804 2.06213C42.0273 2.12984 42.0637 2.17932 42.0898 2.21057C42.1419 2.26786 42.1861 2.32776 42.2226 2.39026C42.2643 2.45276 42.3033 2.51786 42.3398 2.58557C42.3762 2.65328 42.4127 2.72099 42.4492 2.7887C42.4856 2.8564 42.5299 2.92151 42.582 2.98401C42.5924 2.99443 42.6106 3.01526 42.6367 3.04651C42.6679 3.07255 42.6992 3.1012 42.7304 3.13245C42.7669 3.1637 42.7981 3.19495 42.8242 3.2262C42.8554 3.25224 42.8736 3.26786 42.8788 3.27307C42.8893 3.27307 42.8971 3.29651 42.9023 3.34338C42.9127 3.39026 42.9179 3.4189 42.9179 3.42932C43.0117 3.57515 43.1002 3.71318 43.1835 3.84338C43.2669 3.96838 43.358 4.1038 43.457 4.24963C43.4726 4.26005 43.4908 4.28349 43.5117 4.31995C43.5325 4.3564 43.5507 4.37984 43.5663 4.39026C43.5663 4.39547 43.5716 4.4137 43.582 4.44495C43.5872 4.46057 43.595 4.47359 43.6054 4.48401C43.6106 4.49443 43.6236 4.51005 43.6445 4.53088C43.6653 4.55172 43.6861 4.57255 43.707 4.59338C43.7278 4.61422 43.746 4.63245 43.7617 4.64807C43.7825 4.6637 43.7955 4.67411 43.8007 4.67932C43.8059 4.68974 43.8137 4.70797 43.8242 4.73401C43.8346 4.76005 43.845 4.78609 43.8554 4.81213C43.8658 4.83818 43.8762 4.86422 43.8867 4.89026C43.8971 4.91109 43.9023 4.92411 43.9023 4.92932C43.9231 4.9814 43.9648 5.05953 44.0273 5.1637C44.0898 5.26786 44.1549 5.37203 44.2226 5.4762C44.2955 5.57515 44.3658 5.6637 44.4335 5.74182C44.5012 5.81474 44.5533 5.8512 44.5898 5.8512C44.6523 5.8512 44.7252 5.84338 44.8085 5.82776C44.8919 5.81213 44.9492 5.77047 44.9804 5.70276C45.1835 5.3538 45.3684 4.99703 45.5351 4.63245C45.7018 4.26265 45.871 3.89286 46.0429 3.52307C46.0846 3.42932 46.1419 3.32776 46.2148 3.21838C46.2877 3.10901 46.358 2.99703 46.4257 2.88245C46.4986 2.76786 46.5585 2.65328 46.6054 2.5387C46.6575 2.42411 46.6835 2.31474 46.6835 2.21057C46.6835 2.13765 46.6627 2.07255 46.621 2.01526C46.5846 1.95797 46.5351 1.90849 46.4726 1.86682C46.4153 1.82515 46.3528 1.7887 46.2851 1.75745C46.2174 1.7262 46.1549 1.69755 46.0976 1.67151C46.0924 1.6663 46.0742 1.66109 46.0429 1.65588C46.0169 1.65068 45.9856 1.64547 45.9492 1.64026C45.9179 1.63505 45.8867 1.63245 45.8554 1.63245C45.8294 1.62724 45.8137 1.62463 45.8085 1.62463C45.7617 1.61422 45.6861 1.6012 45.582 1.58557C45.4778 1.56474 45.371 1.5413 45.2617 1.51526C45.1575 1.48401 45.0637 1.45015 44.9804 1.4137C44.9023 1.37203 44.8632 1.32776 44.8632 1.28088C44.8632 1.27047 44.8658 1.26005 44.871 1.24963C44.871 1.24443 44.8736 1.23661 44.8788 1.2262L45.1288 0.991821H45.6132H46.3867C46.5325 1.00224 46.6731 1.02047 46.8085 1.04651C46.9492 1.07255 47.0872 1.08557 47.2226 1.08557H47.3945C47.4101 1.08557 47.4439 1.08297 47.496 1.07776C47.5533 1.07255 47.6132 1.06734 47.6757 1.06213C47.7382 1.05172 47.7929 1.0439 47.8398 1.0387C47.8919 1.03349 47.9231 1.03088 47.9335 1.03088H48.5273C48.6731 1.02047 48.8111 1.00224 48.9413 0.976196C49.0768 0.950155 49.2148 0.937134 49.3554 0.937134H49.5507C49.5924 0.973592 49.6262 1.01265 49.6523 1.05432C49.6783 1.09599 49.6913 1.15068 49.6913 1.21838C49.6913 1.32255 49.6601 1.39547 49.5976 1.43713C49.5403 1.4788 49.47 1.50745 49.3867 1.52307C49.3085 1.5387 49.2252 1.54651 49.1367 1.54651C49.0481 1.54651 48.9752 1.55432 48.9179 1.56995C48.9127 1.56995 48.8919 1.57776 48.8554 1.59338C48.8189 1.6038 48.7773 1.61682 48.7304 1.63245C48.6835 1.64807 48.6367 1.6637 48.5898 1.67932C48.5429 1.69495 48.5038 1.70536 48.4726 1.71057C48.4622 1.7262 48.4257 1.74703 48.3632 1.77307C48.3007 1.79911 48.2591 1.81474 48.2382 1.81995C48.1184 1.86682 48.0247 1.94495 47.957 2.05432C47.8945 2.1637 47.8216 2.26526 47.7382 2.35901C47.733 2.36422 47.7174 2.38245 47.6913 2.4137C47.6653 2.43974 47.6341 2.46838 47.5976 2.49963C47.5663 2.53088 47.5351 2.56213 47.5038 2.59338C47.4778 2.62463 47.4596 2.64286 47.4492 2.64807C47.345 2.77307 47.2564 2.90849 47.1835 3.05432C47.1106 3.20015 47.0247 3.34078 46.9257 3.4762C46.9153 3.48661 46.8867 3.51526 46.8398 3.56213C46.7981 3.60901 46.7512 3.66109 46.6992 3.71838C46.6523 3.77047 46.6054 3.81995 46.5585 3.86682C46.5169 3.9137 46.4934 3.94495 46.4882 3.96057C46.4622 3.99182 46.4231 4.05172 46.371 4.14026C46.3189 4.22359 46.2643 4.31474 46.207 4.4137C46.1497 4.51265 46.095 4.6064 46.0429 4.69495C45.996 4.77828 45.9648 4.83818 45.9492 4.87463C45.8814 4.93713 45.8242 4.99443 45.7773 5.04651C45.7356 5.09859 45.6966 5.15068 45.6601 5.20276C45.6288 5.24963 45.5924 5.29911 45.5507 5.3512C45.5143 5.39807 45.47 5.45015 45.4179 5.50745C45.4075 5.51786 45.3867 5.5387 45.3554 5.56995C45.3294 5.59599 45.2981 5.62724 45.2617 5.6637C45.2304 5.69495 45.1992 5.7262 45.1679 5.75745C45.1419 5.78349 45.1288 5.80172 45.1288 5.81213C45.1132 5.84338 45.1002 5.90588 45.0898 5.99963C45.0794 6.09338 45.0742 6.1689 45.0742 6.2262V6.29651V8.88245C45.0742 8.90328 45.0716 8.96578 45.0663 9.06995C45.0611 9.17411 45.0533 9.28609 45.0429 9.40588C45.0377 9.52568 45.0325 9.64026 45.0273 9.74963C45.0221 9.8538 45.0195 9.9189 45.0195 9.94495V9.96838V9.98401C45.0195 10.0048 45.0273 10.0413 45.0429 10.0934C45.0637 10.1403 45.0742 10.1689 45.0742 10.1793C45.0742 10.2002 45.0637 10.2444 45.0429 10.3121C45.0273 10.3798 45.0195 10.4189 45.0195 10.4293V10.5309V10.6637C45.0195 10.6897 45.0221 10.7418 45.0273 10.8199C45.0325 10.8929 45.0377 10.9736 45.0429 11.0621C45.0533 11.1507 45.0611 11.234 45.0663 11.3121C45.0716 11.3851 45.0742 11.4319 45.0742 11.4528V11.6637V11.7418C45.0742 11.7522 45.0846 11.7731 45.1054 11.8043C45.1314 11.8304 45.1523 11.8434 45.1679 11.8434C45.1731 11.8486 45.1887 11.8538 45.2148 11.859C45.2408 11.8642 45.2695 11.8694 45.3007 11.8746C45.332 11.8746 45.3632 11.8772 45.3945 11.8824C45.4257 11.8824 45.4492 11.8824 45.4648 11.8824C45.4908 11.8929 45.5429 11.9007 45.621 11.9059C45.6992 11.9111 45.7825 11.9163 45.871 11.9215C45.9596 11.9267 46.0429 11.9319 46.121 11.9371C46.2044 11.9371 46.2617 11.9371 46.2929 11.9371C46.371 11.9632 46.4309 12.0127 46.4726 12.0856C46.5195 12.1533 46.5429 12.2314 46.5429 12.3199C46.5429 12.3824 46.5247 12.4319 46.4882 12.4684C46.4518 12.4996 46.4049 12.5231 46.3476 12.5387C46.2955 12.5543 46.2382 12.5621 46.1757 12.5621C46.1184 12.5673 46.0663 12.5699 46.0195 12.5699C45.957 12.5699 45.9023 12.5647 45.8554 12.5543C45.8137 12.5439 45.7747 12.5335 45.7382 12.5231C45.707 12.5127 45.6731 12.5022 45.6367 12.4918C45.6054 12.4814 45.5663 12.4762 45.5195 12.4762C45.5091 12.4762 45.4856 12.4788 45.4492 12.484C45.4179 12.4892 45.3814 12.4944 45.3398 12.4996C45.3033 12.5101 45.2669 12.5179 45.2304 12.5231C45.1992 12.5283 45.1783 12.5309 45.1679 12.5309H45.0898C45.0429 12.5309 44.9934 12.5205 44.9413 12.4996C44.8893 12.484 44.8372 12.4762 44.7851 12.4762C44.3476 12.4762 43.9101 12.4996 43.4726 12.5465C43.0403 12.5934 42.608 12.6168 42.1757 12.6168H41.9335C41.8242 12.6168 41.7252 12.6012 41.6367 12.5699C41.5481 12.5387 41.5038 12.4554 41.5038 12.3199ZM54.1679 8.94495V8.57776C54.2252 8.44234 54.2851 8.3564 54.3476 8.31995C54.4101 8.28349 54.5117 8.26526 54.6523 8.26526C54.9023 8.26526 55.1523 8.27828 55.4023 8.30432C55.6575 8.33036 55.9101 8.34338 56.1601 8.34338L56.3163 8.3512H58.0195C58.0559 8.3512 58.0872 8.36422 58.1132 8.39026C58.1393 8.4163 58.1601 8.44755 58.1757 8.48401C58.1913 8.52047 58.2018 8.55693 58.207 8.59338C58.2174 8.62463 58.2226 8.65068 58.2226 8.67151V9.05432V9.46057C58.2122 9.5387 58.1783 9.6064 58.121 9.6637C58.0637 9.72099 57.9908 9.74963 57.9023 9.74963H57.7773C57.7408 9.74963 57.6471 9.74703 57.496 9.74182C57.3502 9.73661 57.1913 9.7314 57.0195 9.7262C56.8528 9.71578 56.6939 9.70797 56.5429 9.70276C56.3971 9.69755 56.3085 9.69495 56.2773 9.69495H54.9101C54.8997 9.69495 54.8762 9.69234 54.8398 9.68713C54.8085 9.68193 54.7721 9.67932 54.7304 9.67932C54.6939 9.67411 54.6575 9.6689 54.621 9.6637C54.5898 9.65849 54.5689 9.65588 54.5585 9.65588H54.371C54.2825 9.60901 54.2252 9.53609 54.1992 9.43713C54.1783 9.33297 54.1679 9.23401 54.1679 9.14026V8.94495ZM67.082 8.02307V11.6324C67.082 11.6741 67.108 11.7158 67.1601 11.7574C67.2174 11.7939 67.2825 11.8278 67.3554 11.859C67.4283 11.8851 67.4986 11.9085 67.5663 11.9293C67.6341 11.9449 67.6809 11.9528 67.707 11.9528C67.858 11.9528 68.0143 11.9397 68.1757 11.9137C68.3372 11.8824 68.4934 11.8564 68.6445 11.8356C68.6497 11.8356 68.6809 11.8382 68.7382 11.8434C68.7955 11.8434 68.845 11.8434 68.8867 11.8434C68.9439 11.8434 68.9752 11.8408 68.9804 11.8356C68.996 11.8356 69.0195 11.8356 69.0507 11.8356C69.0872 11.8304 69.1236 11.8252 69.1601 11.8199C69.1966 11.8147 69.2304 11.8095 69.2617 11.8043C69.2929 11.7991 69.3137 11.7965 69.3242 11.7965C69.4439 11.7757 69.5533 11.734 69.6523 11.6715C69.7564 11.6038 69.8606 11.5491 69.9648 11.5074C70.0481 11.4762 70.1367 11.4476 70.2304 11.4215C70.3242 11.3903 70.4179 11.359 70.5117 11.3278C70.6106 11.2913 70.7044 11.2548 70.7929 11.2184C70.8814 11.1767 70.9596 11.1272 71.0273 11.0699C71.0481 11.0543 71.0846 11.0231 71.1367 10.9762C71.1887 10.9241 71.2434 10.8694 71.3007 10.8121C71.358 10.7548 71.4127 10.7002 71.4648 10.6481C71.5169 10.5908 71.5559 10.5491 71.582 10.5231C71.5872 10.5179 71.595 10.5048 71.6054 10.484C71.621 10.4632 71.6367 10.4397 71.6523 10.4137C71.6679 10.3824 71.6835 10.3564 71.6992 10.3356C71.7148 10.3095 71.7226 10.2913 71.7226 10.2809C71.8268 10.1351 71.9335 10.0022 72.0429 9.88245C72.1575 9.75745 72.2434 9.61682 72.3007 9.46057C72.3111 9.43974 72.3189 9.42151 72.3242 9.40588C72.3294 9.39547 72.3346 9.38245 72.3398 9.36682C72.5064 9.11682 72.6549 8.84859 72.7851 8.56213C72.9205 8.27568 73.0038 7.98661 73.0351 7.69495C73.0403 7.63245 73.0507 7.53088 73.0663 7.39026C73.082 7.24443 73.0976 7.09599 73.1132 6.94495C73.1288 6.7887 73.1419 6.64286 73.1523 6.50745C73.1679 6.37203 73.1783 6.27828 73.1835 6.2262V6.10901C73.1835 5.98401 73.1679 5.87463 73.1367 5.78088C73.1054 5.68193 73.0716 5.57255 73.0351 5.45276C73.0038 5.32776 72.9752 5.20015 72.9492 5.06995C72.9231 4.93974 72.8919 4.81213 72.8554 4.68713C72.8242 4.56213 72.7825 4.43974 72.7304 4.31995C72.6835 4.20015 72.621 4.08818 72.5429 3.98401C72.5377 3.97359 72.5325 3.96057 72.5273 3.94495C72.5221 3.93453 72.5169 3.92411 72.5117 3.9137C72.5064 3.90328 72.5012 3.89286 72.496 3.88245C72.496 3.87724 72.4908 3.85901 72.4804 3.82776C72.47 3.7913 72.4596 3.75484 72.4492 3.71838C72.4387 3.68193 72.4283 3.64807 72.4179 3.61682C72.4075 3.58557 72.3997 3.56474 72.3945 3.55432C72.3945 3.54911 72.3867 3.53609 72.371 3.51526C72.3606 3.49443 72.345 3.47359 72.3242 3.45276C72.3085 3.42672 72.2929 3.40588 72.2773 3.39026C72.2669 3.36943 72.2617 3.3564 72.2617 3.3512C72.1262 3.1637 72.0038 2.99963 71.8945 2.85901C71.7851 2.71318 71.6445 2.56734 71.4726 2.42151C71.3632 2.33297 71.2486 2.2288 71.1288 2.10901C71.0091 1.98922 70.8788 1.90068 70.7382 1.84338C70.733 1.83818 70.6939 1.82776 70.621 1.81213C70.5533 1.79651 70.5091 1.7887 70.4882 1.7887C70.483 1.78349 70.4596 1.76005 70.4179 1.71838C70.3814 1.67151 70.358 1.64807 70.3476 1.64807C70.3476 1.63765 70.3372 1.62724 70.3163 1.61682C70.2955 1.6012 70.2799 1.59338 70.2695 1.59338C70.2591 1.59338 70.246 1.59078 70.2304 1.58557C70.22 1.58036 70.2044 1.57515 70.1835 1.56995C70.1627 1.56474 70.1393 1.55953 70.1132 1.55432C70.0455 1.52307 69.9882 1.49703 69.9413 1.4762C69.8997 1.45536 69.858 1.43713 69.8163 1.42151C69.7747 1.40588 69.7304 1.39286 69.6835 1.38245C69.6419 1.37203 69.5872 1.36422 69.5195 1.35901C69.5143 1.35901 69.4986 1.3564 69.4726 1.3512C69.4466 1.34599 69.4179 1.34078 69.3867 1.33557C69.3554 1.32515 69.3242 1.31734 69.2929 1.31213C69.2669 1.30693 69.246 1.30432 69.2304 1.30432C69.095 1.27307 68.9544 1.24182 68.8085 1.21057C68.6679 1.17932 68.5247 1.1637 68.3788 1.1637H68.207C68.1705 1.1689 68.108 1.17672 68.0195 1.18713C67.9309 1.19755 67.8372 1.21057 67.7382 1.2262C67.6393 1.24182 67.5455 1.25745 67.457 1.27307C67.3684 1.28349 67.3085 1.2939 67.2773 1.30432C67.2356 1.33036 67.1992 1.38245 67.1679 1.46057C67.1419 1.5387 67.1288 1.6012 67.1288 1.64807V4.21838C67.1445 4.28609 67.1549 4.34599 67.1601 4.39807C67.1653 4.44495 67.1705 4.48922 67.1757 4.53088C67.1809 4.57255 67.1835 4.61682 67.1835 4.6637C67.1835 4.70536 67.1835 4.75484 67.1835 4.81213V5.00745C67.1835 5.01786 67.1809 5.0439 67.1757 5.08557C67.1705 5.12203 67.1627 5.16109 67.1523 5.20276C67.1471 5.24443 67.1419 5.28609 67.1367 5.32776C67.1314 5.36422 67.1288 5.38765 67.1288 5.39807C67.1288 5.45015 67.1262 5.5413 67.121 5.67151C67.1158 5.79651 67.1106 5.93193 67.1054 6.07776C67.1002 6.22359 67.095 6.36161 67.0898 6.49182C67.0846 6.62203 67.082 6.71318 67.082 6.76526C67.0559 6.82255 67.0403 6.88765 67.0351 6.96057C67.0299 7.03349 67.0273 7.1012 67.0273 7.1637V7.2887C67.0273 7.42932 67.0299 7.55432 67.0351 7.6637C67.0403 7.76786 67.0559 7.88765 67.082 8.02307ZM63.5195 12.3199C63.5195 12.2731 63.5351 12.2314 63.5663 12.1949C63.5976 12.1533 63.6367 12.1194 63.6835 12.0934C63.7304 12.0673 63.7773 12.0465 63.8242 12.0309C63.8762 12.0101 63.9231 11.997 63.9648 11.9918C64.0689 11.9762 64.1861 11.971 64.3163 11.9762C64.4466 11.9762 64.5768 11.9736 64.707 11.9684C64.8372 11.958 64.957 11.9345 65.0663 11.8981C65.1757 11.8564 65.2617 11.7861 65.3242 11.6871V11.4293C65.3242 11.3356 65.3163 11.2522 65.3007 11.1793C65.2851 11.1012 65.2773 11.0205 65.2773 10.9371V10.9137C65.2773 10.9033 65.2799 10.8798 65.2851 10.8434C65.2903 10.8017 65.2955 10.7601 65.3007 10.7184C65.3059 10.6767 65.3111 10.6377 65.3163 10.6012C65.3216 10.5595 65.3242 10.5335 65.3242 10.5231V10.4528C65.3242 10.3434 65.3163 10.2366 65.3007 10.1324C65.2851 10.0231 65.2773 9.90849 65.2773 9.7887V9.69495C65.2773 9.68974 65.2799 9.67151 65.2851 9.64026C65.2903 9.60901 65.2955 9.57776 65.3007 9.54651C65.3059 9.51526 65.3111 9.48661 65.3163 9.46057C65.3216 9.42932 65.3242 9.41109 65.3242 9.40588V8.71057C65.3242 8.38765 65.3163 8.06995 65.3007 7.75745C65.2851 7.43974 65.2773 7.12203 65.2773 6.80432V6.12463C65.2773 6.10901 65.2799 6.06474 65.2851 5.99182C65.2903 5.9189 65.2955 5.84338 65.3007 5.76526C65.3059 5.68193 65.3111 5.6038 65.3163 5.53088C65.3216 5.45797 65.3242 5.4137 65.3242 5.39807V4.02307C65.3242 4.01265 65.3268 3.99443 65.332 3.96838C65.3372 3.93713 65.3424 3.90328 65.3476 3.86682C65.3528 3.83036 65.358 3.79651 65.3632 3.76526C65.3684 3.73401 65.371 3.71057 65.371 3.69495V1.74963C65.371 1.72359 65.358 1.68453 65.332 1.63245C65.3111 1.57515 65.2929 1.53349 65.2773 1.50745C65.2669 1.4814 65.2486 1.45276 65.2226 1.42151C65.2018 1.39026 65.1861 1.36943 65.1757 1.35901C65.1497 1.32255 65.095 1.2913 65.0117 1.26526C64.9283 1.23922 64.8294 1.21838 64.7148 1.20276C64.6054 1.18713 64.4882 1.17151 64.3632 1.15588C64.2382 1.14026 64.1236 1.12463 64.0195 1.10901C63.9205 1.08818 63.8372 1.06213 63.7695 1.03088C63.7018 0.999634 63.6679 0.960571 63.6679 0.913696C63.6679 0.84078 63.7018 0.7913 63.7695 0.765259C63.8424 0.734009 63.9075 0.718384 63.9648 0.718384H64.3242H64.6913C64.733 0.744425 64.7851 0.762655 64.8476 0.773071C64.9101 0.77828 64.9726 0.780884 65.0351 0.780884C65.0872 0.780884 65.1341 0.77828 65.1757 0.773071C65.2174 0.767863 65.2512 0.765259 65.2773 0.765259C65.5898 0.780884 65.8971 0.801717 66.1992 0.827759C66.5064 0.848592 66.8163 0.859009 67.1288 0.859009H67.2226C67.233 0.859009 67.2591 0.851196 67.3007 0.835571C67.3424 0.814738 67.3684 0.804321 67.3788 0.804321C67.6861 0.783488 67.9908 0.773071 68.2929 0.773071C68.6002 0.767863 68.9075 0.765259 69.2148 0.765259H69.5742C69.72 0.775675 69.8606 0.796509 69.996 0.827759C70.1314 0.8538 70.2643 0.88505 70.3945 0.921509C70.5299 0.957967 70.6653 0.994425 70.8007 1.03088C70.9361 1.06213 71.0794 1.08818 71.2304 1.10901C71.3085 1.17672 71.3971 1.22359 71.496 1.24963C71.595 1.27568 71.6887 1.31213 71.7773 1.35901C71.9908 1.45797 72.2122 1.55693 72.4413 1.65588C72.6705 1.75484 72.8684 1.87984 73.0351 2.03088C73.3997 2.3538 73.7174 2.67932 73.9882 3.00745C74.2591 3.33557 74.483 3.67932 74.6601 4.0387C74.8372 4.39286 74.97 4.77307 75.0585 5.17932C75.1471 5.58557 75.1913 6.02828 75.1913 6.50745C75.1913 7.00224 75.1471 7.45797 75.0585 7.87463C74.97 8.2913 74.8346 8.68453 74.6523 9.05432C74.47 9.4189 74.2408 9.77047 73.9648 10.109C73.6887 10.4423 73.3632 10.7757 72.9882 11.109C72.9049 11.1663 72.8085 11.208 72.6992 11.234C72.595 11.2601 72.4934 11.3017 72.3945 11.359C72.2903 11.4267 72.1835 11.5048 72.0742 11.5934C71.9648 11.6819 71.8476 11.7496 71.7226 11.7965C71.4101 11.9007 71.095 11.9996 70.7773 12.0934C70.4648 12.1871 70.1471 12.2679 69.8242 12.3356H69.7148C69.5064 12.346 69.2955 12.372 69.082 12.4137C68.8684 12.4554 68.6601 12.4762 68.457 12.4762C68.3528 12.4762 68.2669 12.4736 68.1992 12.4684C68.1367 12.4632 68.0429 12.4476 67.9179 12.4215C67.9075 12.4215 67.8814 12.4241 67.8398 12.4293C67.8033 12.4345 67.7825 12.4371 67.7773 12.4371H67.7226H67.6679C67.6627 12.4423 67.6471 12.4476 67.621 12.4528C67.6002 12.4528 67.5742 12.4554 67.5429 12.4606C67.5169 12.4606 67.4908 12.4632 67.4648 12.4684C67.4439 12.4684 67.4283 12.471 67.4179 12.4762H65.7695C65.4986 12.4866 65.2252 12.5048 64.9492 12.5309C64.6731 12.5621 64.3997 12.5778 64.1288 12.5778C64.0768 12.5778 64.0143 12.5778 63.9413 12.5778C63.8736 12.5778 63.8085 12.5699 63.746 12.5543C63.6835 12.5387 63.6288 12.5127 63.582 12.4762C63.5403 12.4397 63.5195 12.3877 63.5195 12.3199ZM76.7851 12.4137V12.3824C76.8111 12.3252 76.8398 12.2679 76.871 12.2106C76.9023 12.1481 76.957 12.1064 77.0351 12.0856H77.3632C77.3788 12.0856 77.4127 12.0778 77.4648 12.0621C77.5169 12.0413 77.5481 12.0309 77.5585 12.0309H77.6367C77.6992 12.0309 77.7564 12.0413 77.8085 12.0621C77.8658 12.0778 77.9231 12.0856 77.9804 12.0856C78.0221 12.0856 78.0559 12.0752 78.082 12.0543C78.108 12.0283 78.1288 11.9996 78.1445 11.9684C78.1601 11.9319 78.1705 11.8929 78.1757 11.8512C78.1809 11.8095 78.1861 11.7731 78.1913 11.7418V11.3043C78.1913 11.2835 78.1939 11.2236 78.1992 11.1246C78.2044 11.0205 78.2096 10.9111 78.2148 10.7965C78.2252 10.6767 78.233 10.5673 78.2382 10.4684C78.2434 10.3694 78.246 10.3069 78.246 10.2809V10.2574V10.234C78.1992 9.94234 78.1705 9.65849 78.1601 9.38245C78.1549 9.1012 78.1523 8.81213 78.1523 8.51526V7.65588C78.1523 7.62463 78.1523 7.56474 78.1523 7.4762C78.1575 7.38245 78.1601 7.27307 78.1601 7.14807C78.1653 7.02307 78.1679 6.89286 78.1679 6.75745C78.1731 6.61682 78.1757 6.48401 78.1757 6.35901C78.1809 6.23401 78.1835 6.12724 78.1835 6.0387C78.1887 5.94495 78.1913 5.88245 78.1913 5.8512C78.1913 5.7887 78.1887 5.68453 78.1835 5.5387C78.1835 5.38765 78.1835 5.2314 78.1835 5.06995C78.1835 4.90328 78.1809 4.74703 78.1757 4.6012C78.1757 4.45015 78.1757 4.34599 78.1757 4.2887V4.14026C78.1757 4.09338 78.1731 4.01526 78.1679 3.90588C78.1679 3.79651 78.1653 3.67932 78.1601 3.55432C78.1601 3.42932 78.1575 3.31213 78.1523 3.20276C78.1523 3.08818 78.1523 3.00745 78.1523 2.96057C78.1523 2.94495 78.1549 2.90068 78.1601 2.82776C78.1653 2.75484 78.1679 2.67411 78.1679 2.58557C78.1731 2.49703 78.1783 2.4163 78.1835 2.34338C78.1887 2.26526 78.1913 2.21318 78.1913 2.18713V2.07776C78.1913 1.92151 78.1497 1.81213 78.0663 1.74963C77.9882 1.68193 77.8736 1.64807 77.7226 1.64807C77.5559 1.64807 77.3919 1.65849 77.2304 1.67932C77.0742 1.69495 76.9127 1.70276 76.746 1.70276C76.6419 1.70276 76.5559 1.68193 76.4882 1.64026C76.4257 1.59338 76.3945 1.51265 76.3945 1.39807C76.3945 1.31995 76.4361 1.25745 76.5195 1.21057C76.6028 1.15849 76.6992 1.11943 76.8085 1.09338C76.9231 1.06213 77.0351 1.0413 77.1445 1.03088C77.2591 1.01526 77.3424 1.00745 77.3945 1.00745C77.5611 1.00745 77.7356 1.01526 77.9179 1.03088C78.1002 1.0413 78.2747 1.04911 78.4413 1.05432C78.4518 1.06474 78.483 1.07776 78.5351 1.09338C78.5924 1.1038 78.6262 1.10901 78.6367 1.10901C78.6419 1.11422 78.6497 1.11682 78.6601 1.11682C78.6653 1.12203 78.6757 1.12463 78.6913 1.12463C78.7018 1.12463 78.7122 1.12203 78.7226 1.11682C78.7278 1.11682 78.7356 1.11422 78.746 1.10901C78.746 1.10901 78.7591 1.1064 78.7851 1.1012C78.8163 1.09078 78.8476 1.08036 78.8788 1.06995C78.9153 1.05432 78.9466 1.0413 78.9726 1.03088C79.0038 1.02047 79.0247 1.01265 79.0351 1.00745C79.0455 1.00745 79.0689 1.00745 79.1054 1.00745C79.1471 1.00745 79.1939 1.01005 79.246 1.01526C79.2981 1.01526 79.3528 1.01526 79.4101 1.01526C79.4726 1.01526 79.5299 1.01526 79.582 1.01526C79.6393 1.01526 79.6861 1.01526 79.7226 1.01526C79.7643 1.01526 79.7929 1.01265 79.8085 1.00745C79.8137 1.00745 79.8294 1.00745 79.8554 1.00745C79.8867 1.00224 79.9179 0.99703 79.9492 0.991821C79.9804 0.986613 80.0091 0.981405 80.0351 0.976196C80.0663 0.970988 80.0872 0.968384 80.0976 0.968384H80.5898H80.7929C80.7981 0.968384 80.8268 0.963175 80.8788 0.952759C80.9309 0.937134 80.9622 0.929321 80.9726 0.929321C80.983 0.918905 81.0012 0.913696 81.0273 0.913696C81.0585 0.913696 81.0846 0.913696 81.1054 0.913696C81.2408 0.913696 81.3502 0.931925 81.4335 0.968384C81.5169 1.00484 81.5924 1.08297 81.6601 1.20276V1.25745C81.6601 1.33036 81.6236 1.37984 81.5507 1.40588C81.483 1.42672 81.4231 1.44234 81.371 1.45276C81.1731 1.48401 80.9752 1.49703 80.7773 1.49182C80.5846 1.48661 80.3919 1.50745 80.1992 1.55432C80.1575 1.69495 80.1236 1.83818 80.0976 1.98401C80.0716 2.12463 80.0585 2.27047 80.0585 2.42151C80.0585 2.71318 80.0637 2.99963 80.0742 3.28088C80.0898 3.55693 80.0976 3.84078 80.0976 4.13245C80.0976 4.48661 80.0898 4.83557 80.0742 5.17932C80.0637 5.52307 80.0585 5.87203 80.0585 6.2262C80.0585 6.63245 80.0637 7.0439 80.0742 7.46057C80.0898 7.87203 80.0976 8.2887 80.0976 8.71057C80.0976 9.0387 80.0898 9.36161 80.0742 9.67932C80.0637 9.99703 80.0585 10.3252 80.0585 10.6637V11.0699C79.9856 11.2731 79.9492 11.4788 79.9492 11.6871C79.9492 11.7653 79.97 11.8252 80.0117 11.8668C80.0533 11.9085 80.1028 11.9423 80.1601 11.9684C80.2226 11.9892 80.2877 12.0048 80.3554 12.0153C80.4231 12.0205 80.4856 12.0257 80.5429 12.0309C80.5742 12.0361 80.6314 12.0439 80.7148 12.0543C80.7981 12.0595 80.8841 12.0647 80.9726 12.0699C81.0663 12.0752 81.1549 12.0804 81.2382 12.0856C81.3216 12.0856 81.3788 12.0856 81.4101 12.0856C81.4674 12.1116 81.5299 12.1429 81.5976 12.1793C81.6705 12.2158 81.707 12.2705 81.707 12.3434V12.3981C81.707 12.4189 81.7044 12.4345 81.6992 12.4449C81.6992 12.4554 81.6861 12.4658 81.6601 12.4762C81.6445 12.4814 81.6132 12.4866 81.5663 12.4918C81.5195 12.497 81.47 12.5022 81.4179 12.5074C81.3658 12.5127 81.3163 12.5179 81.2695 12.5231C81.2226 12.5283 81.1887 12.5309 81.1679 12.5309H81.1445H81.121C81.1106 12.5309 81.0872 12.5231 81.0507 12.5074C81.0143 12.497 80.9882 12.4866 80.9726 12.4762H80.1992C80.1471 12.4762 80.0716 12.4762 79.9726 12.4762C79.8736 12.4762 79.7591 12.4762 79.6288 12.4762C79.5038 12.471 79.371 12.4658 79.2304 12.4606C79.095 12.4554 78.9648 12.4528 78.8398 12.4528C78.72 12.4476 78.6106 12.4423 78.5117 12.4371C78.4127 12.4319 78.3398 12.4267 78.2929 12.4215C78.0742 12.4788 77.858 12.5179 77.6445 12.5387C77.4309 12.5647 77.2148 12.5778 76.996 12.5778C76.9387 12.5778 76.8893 12.5647 76.8476 12.5387C76.8059 12.5179 76.7851 12.4762 76.7851 12.4137ZM86.6288 12.3199C86.4986 12.247 86.3632 12.1845 86.2226 12.1324C86.0872 12.0804 85.9518 12.0101 85.8163 11.9215C85.8059 11.9215 85.7877 11.9137 85.7617 11.8981C85.7356 11.8772 85.7096 11.8564 85.6835 11.8356C85.6575 11.8147 85.6314 11.7939 85.6054 11.7731C85.5846 11.7522 85.5716 11.7366 85.5663 11.7262C85.4986 11.6845 85.4309 11.6481 85.3632 11.6168C85.2955 11.5856 85.233 11.5491 85.1757 11.5074L84.6757 11.0074C84.6653 10.997 84.6393 10.9788 84.5976 10.9528C84.5611 10.9267 84.5403 10.9137 84.5351 10.9137C84.5351 10.8772 84.5169 10.859 84.4804 10.859C84.4075 10.7548 84.3268 10.6533 84.2382 10.5543C84.1549 10.4502 84.0768 10.3382 84.0038 10.2184C83.9986 10.2184 83.983 10.1923 83.957 10.1403C83.9361 10.0882 83.9231 10.0491 83.9179 10.0231C83.6731 9.5439 83.457 9.05693 83.2695 8.56213C83.2643 8.55693 83.246 8.52568 83.2148 8.46838C83.1835 8.41109 83.1679 8.37724 83.1679 8.36682V8.06995C83.1523 7.90328 83.1314 7.74443 83.1054 7.59338C83.0846 7.43713 83.0742 7.27568 83.0742 7.10901V6.85901C83.0794 6.80693 83.0846 6.71578 83.0898 6.58557C83.1002 6.45015 83.1106 6.30693 83.121 6.15588C83.1314 6.00484 83.1393 5.86422 83.1445 5.73401C83.1549 5.59859 83.1627 5.50224 83.1679 5.44495C83.1783 5.29911 83.2096 5.1637 83.2617 5.0387C83.3189 4.9137 83.371 4.78609 83.4179 4.65588C83.4179 4.65068 83.4205 4.63765 83.4257 4.61682C83.4309 4.59599 83.4361 4.57255 83.4413 4.54651C83.4466 4.51526 83.4518 4.48922 83.457 4.46838C83.4622 4.44234 83.4648 4.42411 83.4648 4.4137C83.47 4.40328 83.4778 4.37984 83.4882 4.34338C83.5038 4.30172 83.5195 4.26005 83.5351 4.21838C83.5559 4.17672 83.5716 4.13765 83.582 4.1012C83.5976 4.05953 83.608 4.03349 83.6132 4.02307C83.6132 4.01786 83.6158 4.00484 83.621 3.98401C83.6262 3.95797 83.6314 3.93193 83.6367 3.90588C83.6419 3.87463 83.6471 3.84859 83.6523 3.82776C83.6575 3.80172 83.6627 3.78349 83.6679 3.77307C83.6679 3.76786 83.6783 3.75484 83.6992 3.73401C83.7252 3.71318 83.7512 3.68974 83.7773 3.6637C83.8085 3.63245 83.8372 3.6064 83.8632 3.58557C83.8893 3.55953 83.9075 3.5439 83.9179 3.5387C84.0377 3.39286 84.1523 3.24443 84.2617 3.09338C84.3762 2.94234 84.5012 2.79651 84.6367 2.65588C84.8867 2.38505 85.1445 2.13765 85.4101 1.9137C85.6757 1.68974 85.9856 1.51786 86.3398 1.39807C86.3762 1.38245 86.4179 1.36161 86.4648 1.33557C86.5169 1.30953 86.5689 1.28349 86.621 1.25745C86.6731 1.2314 86.7252 1.20797 86.7773 1.18713C86.8346 1.1663 86.8867 1.15328 86.9335 1.14807H87.1288C87.1393 1.14807 87.1679 1.14286 87.2148 1.13245C87.2617 1.11682 87.2981 1.1038 87.3242 1.09338C87.345 1.08818 87.3814 1.07776 87.4335 1.06213C87.4908 1.0413 87.5507 1.02047 87.6132 0.999634C87.6757 0.9788 87.7356 0.960571 87.7929 0.944946C87.8502 0.924113 87.8919 0.908488 87.9179 0.898071H88.8788C89.0351 0.898071 89.1627 0.900675 89.2617 0.905884C89.3606 0.911092 89.4413 0.9163 89.5038 0.921509C89.5663 0.926717 89.6132 0.931925 89.6445 0.937134C89.6757 0.942342 89.6992 0.94755 89.7148 0.952759C89.7408 0.957967 89.8085 0.976196 89.9179 1.00745C90.0273 1.03349 90.1445 1.06474 90.2695 1.1012C90.3945 1.13245 90.5117 1.1637 90.621 1.19495C90.7304 1.22099 90.8007 1.23661 90.832 1.24182C90.8528 1.24182 90.8971 1.24963 90.9648 1.26526C91.0325 1.27568 91.0716 1.28609 91.082 1.29651C91.0872 1.29651 91.1028 1.30693 91.1288 1.32776C91.1601 1.34859 91.1913 1.37203 91.2226 1.39807C91.2538 1.4189 91.2825 1.43974 91.3085 1.46057C91.3398 1.4762 91.3606 1.48661 91.371 1.49182C91.3814 1.49182 91.4127 1.49963 91.4648 1.51526C91.5221 1.53088 91.5559 1.5413 91.5663 1.54651C91.608 1.57776 91.6471 1.61682 91.6835 1.6637C91.72 1.70536 91.7564 1.74703 91.7929 1.7887C91.8346 1.83036 91.8762 1.86682 91.9179 1.89807C91.9648 1.92411 92.0195 1.93713 92.082 1.93713C92.1445 1.93713 92.1966 1.89286 92.2382 1.80432C92.2851 1.71578 92.3294 1.61943 92.371 1.51526C92.4127 1.41109 92.457 1.31474 92.5038 1.2262C92.5507 1.13765 92.6106 1.09338 92.6835 1.09338C92.7356 1.09338 92.7773 1.12203 92.8085 1.17932C92.845 1.2314 92.871 1.2939 92.8867 1.36682C92.9075 1.43974 92.9205 1.51265 92.9257 1.58557C92.9309 1.65849 92.9335 1.71057 92.9335 1.74182C92.9335 1.7887 92.9309 1.82776 92.9257 1.85901C92.9205 1.88505 92.9049 1.9189 92.8788 1.96057V4.21838C92.8788 4.32255 92.858 4.4189 92.8163 4.50745C92.7799 4.59078 92.7044 4.64026 92.5898 4.65588C92.5637 4.66109 92.5377 4.65328 92.5117 4.63245C92.4856 4.61161 92.4622 4.58818 92.4413 4.56213C92.4205 4.53088 92.3997 4.50224 92.3788 4.4762C92.3632 4.44495 92.3502 4.42411 92.3398 4.4137C92.3398 4.40328 92.3163 4.37984 92.2695 4.34338C92.2278 4.30172 92.2044 4.27307 92.1992 4.25745C92.1835 4.23661 92.1575 4.20276 92.121 4.15588C92.0898 4.10901 92.0559 4.06213 92.0195 4.01526C91.9882 3.96318 91.957 3.9137 91.9257 3.86682C91.8945 3.81995 91.8762 3.7887 91.871 3.77307C91.8033 3.67411 91.7538 3.56474 91.7226 3.44495C91.6966 3.31995 91.6445 3.20536 91.5663 3.1012C91.4778 2.9814 91.3893 2.88245 91.3007 2.80432C91.2174 2.7262 91.1262 2.64286 91.0273 2.55432C90.9127 2.45536 90.8137 2.36682 90.7304 2.2887C90.6471 2.20536 90.5637 2.13245 90.4804 2.06995C90.3971 2.00745 90.3033 1.95276 90.1992 1.90588C90.1002 1.8538 89.9752 1.80693 89.8242 1.76526C89.6262 1.71838 89.4205 1.67411 89.207 1.63245C88.9986 1.59078 88.7955 1.56995 88.5976 1.56995C88.4934 1.56995 88.3919 1.58818 88.2929 1.62463C88.1992 1.66109 88.1054 1.70797 88.0117 1.76526C87.9179 1.81734 87.8242 1.87724 87.7304 1.94495C87.6419 2.00745 87.5559 2.06474 87.4726 2.11682C87.3997 2.1637 87.3242 2.19495 87.246 2.21057C87.1679 2.2262 87.095 2.26265 87.0273 2.31995C86.8867 2.43974 86.7564 2.57255 86.6367 2.71838C86.5221 2.86422 86.3893 2.99182 86.2382 3.1012C86.2278 3.11161 86.2122 3.12984 86.1913 3.15588C86.1705 3.17672 86.1549 3.18974 86.1445 3.19495C86.1445 3.20536 86.1288 3.24443 86.0976 3.31213C86.0663 3.37984 86.0481 3.42411 86.0429 3.44495C86.0221 3.4814 85.9908 3.52568 85.9492 3.57776C85.9127 3.62463 85.8736 3.67411 85.832 3.7262C85.7955 3.77307 85.7591 3.82255 85.7226 3.87463C85.6913 3.92672 85.6705 3.9762 85.6601 4.02307C85.6288 4.15849 85.608 4.2913 85.5976 4.42151C85.5872 4.54651 85.5611 4.67672 85.5195 4.81213C85.4778 4.92151 85.4387 5.03088 85.4023 5.14026C85.3658 5.24443 85.3372 5.36161 85.3163 5.49182C85.3059 5.55953 85.2981 5.64547 85.2929 5.74963C85.2929 5.8538 85.2721 5.94234 85.2304 6.01526C85.22 6.05172 85.2122 6.11422 85.207 6.20276C85.2018 6.2913 85.1966 6.38505 85.1913 6.48401C85.1861 6.58297 85.1809 6.67672 85.1757 6.76526C85.1757 6.8538 85.1757 6.9163 85.1757 6.95276C85.1757 7.10901 85.1887 7.27307 85.2148 7.44495C85.246 7.61682 85.2825 7.7913 85.3242 7.96838C85.371 8.14547 85.4205 8.31995 85.4726 8.49182C85.5247 8.65849 85.5742 8.81474 85.621 8.96057C85.621 8.96578 85.6236 8.98661 85.6288 9.02307C85.6393 9.05953 85.6497 9.1012 85.6601 9.14807C85.6705 9.18974 85.6809 9.2314 85.6913 9.27307C85.7018 9.30953 85.7096 9.33557 85.7148 9.3512C85.7148 9.36682 85.7278 9.39547 85.7538 9.43713C85.7851 9.4788 85.8163 9.52568 85.8476 9.57776C85.8841 9.62463 85.9179 9.6689 85.9492 9.71057C85.9804 9.74703 86.0012 9.76786 86.0117 9.77307C86.0169 9.78349 86.0273 9.80693 86.0429 9.84338C86.0637 9.87463 86.082 9.91109 86.0976 9.95276C86.1184 9.98922 86.1367 10.0257 86.1523 10.0621C86.1731 10.0934 86.1835 10.1142 86.1835 10.1246C86.2564 10.2132 86.3268 10.2913 86.3945 10.359C86.4622 10.4267 86.5299 10.4892 86.5976 10.5465C86.6705 10.6038 86.7434 10.6611 86.8163 10.7184C86.8945 10.7757 86.9804 10.8408 87.0742 10.9137L87.2226 11.0621C87.3111 11.1038 87.4205 11.1611 87.5507 11.234C87.6861 11.3017 87.7903 11.3929 87.8632 11.5074C88.1028 11.5283 88.3346 11.5673 88.5585 11.6246C88.7877 11.6767 89.0247 11.7028 89.2695 11.7028H89.4257C89.4986 11.7028 89.5689 11.7002 89.6367 11.6949C89.7044 11.6897 89.7799 11.6689 89.8632 11.6324C89.8684 11.6324 89.8788 11.6298 89.8945 11.6246C89.9153 11.6142 89.9361 11.6038 89.957 11.5934C89.9778 11.5778 89.996 11.5673 90.0117 11.5621C90.0273 11.5517 90.0377 11.5465 90.0429 11.5465C90.0585 11.5413 90.095 11.5309 90.1523 11.5153C90.2148 11.4996 90.2773 11.484 90.3398 11.4684C90.4075 11.4528 90.47 11.4397 90.5273 11.4293C90.5846 11.4137 90.621 11.4033 90.6367 11.3981C90.6419 11.3981 90.6627 11.3851 90.6992 11.359C90.7408 11.333 90.7669 11.3147 90.7773 11.3043C90.7825 11.2991 90.7955 11.2887 90.8163 11.2731C90.8372 11.2522 90.858 11.234 90.8788 11.2184C90.9049 11.1976 90.9257 11.1819 90.9413 11.1715C90.9622 11.1559 90.9726 11.1481 90.9726 11.1481C90.9882 11.1429 91.0143 11.1351 91.0507 11.1246C91.0924 11.1142 91.121 11.109 91.1367 11.109C91.1419 11.0986 91.1471 11.0908 91.1523 11.0856L91.1757 11.0621C91.1966 11.0361 91.2252 10.997 91.2617 10.9449C91.3033 10.8929 91.345 10.8408 91.3867 10.7887C91.4283 10.7366 91.4648 10.6897 91.496 10.6481C91.5325 10.6012 91.5559 10.5726 91.5663 10.5621C91.5716 10.5569 91.5872 10.5387 91.6132 10.5074C91.6393 10.471 91.6653 10.4345 91.6913 10.3981C91.7174 10.3564 91.7434 10.3199 91.7695 10.2887C91.7955 10.2522 91.8111 10.2288 91.8163 10.2184C91.8216 10.2132 91.832 10.2028 91.8476 10.1871C91.8684 10.1715 91.8893 10.1533 91.9101 10.1324C91.9309 10.1116 91.9492 10.0908 91.9648 10.0699C91.9856 10.0491 91.996 10.0335 91.996 10.0231C92.0064 10.0231 92.0169 10.0022 92.0273 9.96057C92.0429 9.9137 92.0507 9.88505 92.0507 9.87463C92.0559 9.86422 92.0689 9.83818 92.0898 9.79651C92.1106 9.75484 92.1314 9.71057 92.1523 9.6637C92.1731 9.61161 92.1913 9.56474 92.207 9.52307C92.2278 9.4814 92.2408 9.45536 92.246 9.44495C92.2512 9.43453 92.2591 9.41109 92.2695 9.37463C92.2799 9.33297 92.2903 9.2913 92.3007 9.24963C92.3111 9.20797 92.3189 9.1689 92.3242 9.13245C92.3346 9.09078 92.3398 9.06474 92.3398 9.05432C92.3502 9.03349 92.3632 9.00745 92.3788 8.9762C92.3945 8.93974 92.4101 8.90588 92.4257 8.87463C92.4466 8.84338 92.47 8.81734 92.496 8.79651C92.5273 8.77568 92.5585 8.76526 92.5898 8.76526C92.6158 8.76526 92.6419 8.76786 92.6679 8.77307C92.6992 8.77307 92.7226 8.78609 92.7382 8.81213C92.7486 8.82776 92.7617 8.8512 92.7773 8.88245C92.7929 8.9137 92.8085 8.94495 92.8242 8.9762C92.8398 9.00745 92.8528 9.03609 92.8632 9.06213C92.8736 9.08297 92.8788 9.09599 92.8788 9.1012C92.8788 9.11161 92.8736 9.13765 92.8632 9.17932C92.858 9.22099 92.8502 9.26786 92.8398 9.31995C92.8294 9.37203 92.8189 9.42151 92.8085 9.46838C92.7981 9.51005 92.7903 9.53609 92.7851 9.54651C92.7695 9.63505 92.7512 9.73922 92.7304 9.85901C92.7096 9.97359 92.6887 10.0934 92.6679 10.2184C92.6523 10.3434 92.6367 10.4684 92.621 10.5934C92.6054 10.7132 92.595 10.8199 92.5898 10.9137V11.2574V11.3981C92.5794 11.4345 92.5663 11.4658 92.5507 11.4918C92.5403 11.5179 92.5299 11.5439 92.5195 11.5699C92.5091 11.596 92.4986 11.6168 92.4882 11.6324C92.4726 11.6793 92.4622 11.7106 92.457 11.7262C92.457 11.7366 92.4361 11.7418 92.3945 11.7418C92.3476 11.7418 92.3085 11.7132 92.2773 11.6559C92.2512 11.5986 92.2226 11.5361 92.1913 11.4684C92.1653 11.3955 92.1314 11.3304 92.0898 11.2731C92.0533 11.2158 92.0012 11.1871 91.9335 11.1871C91.8814 11.1871 91.8554 11.1897 91.8554 11.1949C91.8606 11.2002 91.8476 11.221 91.8163 11.2574C91.6028 11.4345 91.3841 11.5934 91.1601 11.734C90.9361 11.8694 90.6966 11.9814 90.4413 12.0699C90.3268 12.122 90.2174 12.1793 90.1132 12.2418C90.0091 12.3043 89.8945 12.3486 89.7695 12.3746C89.6809 12.3851 89.5898 12.3955 89.496 12.4059C89.4023 12.4111 89.3268 12.4476 89.2695 12.5153L88.1445 12.6168C87.9049 12.5283 87.6549 12.4658 87.3945 12.4293C87.1341 12.3877 86.8788 12.3512 86.6288 12.3199ZM102.09 12.4762C102.074 12.471 102.051 12.4632 102.019 12.4528C101.993 12.4371 101.965 12.4215 101.934 12.4059C101.902 12.3903 101.871 12.3772 101.84 12.3668C101.814 12.3512 101.796 12.3408 101.785 12.3356C101.769 12.3199 101.743 12.2861 101.707 12.234C101.676 12.1767 101.639 12.1142 101.598 12.0465C101.561 11.9736 101.522 11.9059 101.48 11.8434C101.444 11.7809 101.415 11.734 101.394 11.7028C101.29 11.5309 101.186 11.3616 101.082 11.1949C100.983 11.0231 100.881 10.8512 100.777 10.6793C100.72 10.5908 100.66 10.5101 100.598 10.4371C100.535 10.359 100.48 10.2731 100.434 10.1793C100.392 10.1116 100.35 10.0387 100.309 9.96057C100.272 9.88245 100.23 9.81474 100.184 9.75745C100.064 9.6064 99.9361 9.46578 99.8007 9.33557C99.6705 9.20536 99.5533 9.06734 99.4492 8.92151C99.4492 8.91109 99.4413 8.88765 99.4257 8.8512C99.4153 8.80953 99.4075 8.78349 99.4023 8.77307C99.2981 8.57515 99.1705 8.39286 99.0195 8.2262C98.8684 8.05432 98.72 7.87724 98.5742 7.69495C98.5637 7.68453 98.5481 7.66109 98.5273 7.62463C98.5064 7.58818 98.4908 7.56474 98.4804 7.55432C98.47 7.5439 98.457 7.52047 98.4413 7.48401C98.4309 7.44234 98.4257 7.4189 98.4257 7.4137C98.4205 7.40328 98.3971 7.38505 98.3554 7.35901C98.3189 7.33297 98.2955 7.31474 98.2851 7.30432C98.2591 7.28349 98.2356 7.26005 98.2148 7.23401C98.1992 7.20276 98.1835 7.17672 98.1679 7.15588C98.1523 7.12984 98.1314 7.10901 98.1054 7.09338C98.0846 7.07776 98.0559 7.06995 98.0195 7.06995H97.9413C97.9257 7.15849 97.9075 7.24182 97.8867 7.31995C97.8658 7.39286 97.845 7.46838 97.8242 7.54651C97.8033 7.61943 97.7851 7.69755 97.7695 7.78088C97.7538 7.86422 97.746 7.95536 97.746 8.05432C97.746 8.1012 97.7617 8.14547 97.7929 8.18713C97.8242 8.2288 97.8398 8.27568 97.8398 8.32776V8.38245C97.7981 8.58557 97.7721 8.80432 97.7617 9.0387C97.7512 9.26786 97.746 9.49963 97.746 9.73401V10.3199C97.746 10.4658 97.746 10.6168 97.746 10.7731C97.7512 10.9293 97.7643 11.0778 97.7851 11.2184C97.7903 11.2288 97.7981 11.2418 97.8085 11.2574L97.8398 11.3043C97.8398 11.3199 97.8424 11.3512 97.8476 11.3981C97.8528 11.4449 97.858 11.497 97.8632 11.5543C97.8684 11.6064 97.8736 11.6559 97.8788 11.7028C97.8841 11.7496 97.8867 11.7809 97.8867 11.7965C97.97 11.8069 98.0351 11.8356 98.082 11.8824C98.1288 11.9293 98.1966 11.9658 98.2851 11.9918C98.2955 12.0022 98.332 12.0127 98.3945 12.0231C98.4622 12.0283 98.5091 12.0309 98.5351 12.0309C98.5559 12.0361 98.595 12.0439 98.6523 12.0543C98.7148 12.0595 98.7799 12.0647 98.8476 12.0699C98.9153 12.0752 98.9778 12.0804 99.0351 12.0856C99.0924 12.0856 99.1314 12.0856 99.1523 12.0856C99.2096 12.1064 99.2434 12.1351 99.2538 12.1715C99.2643 12.2028 99.2695 12.2392 99.2695 12.2809C99.2695 12.3903 99.233 12.4606 99.1601 12.4918C99.0872 12.5231 99.0012 12.5387 98.9023 12.5387C98.8554 12.5387 98.8085 12.5361 98.7617 12.5309C98.7148 12.5309 98.6705 12.5309 98.6288 12.5309C98.4882 12.5309 98.3476 12.5205 98.207 12.4996C98.0716 12.484 97.9309 12.4762 97.7851 12.4762H97.746C97.7356 12.4762 97.7096 12.4788 97.6679 12.484C97.6262 12.4892 97.5794 12.4944 97.5273 12.4996C97.4804 12.5101 97.4361 12.5179 97.3945 12.5231C97.3528 12.5283 97.3268 12.5309 97.3163 12.5309C97.2851 12.5309 97.2174 12.5283 97.1132 12.5231C97.0143 12.5179 96.9049 12.5101 96.7851 12.4996C96.6705 12.4944 96.5637 12.4892 96.4648 12.484C96.3658 12.4788 96.3033 12.4762 96.2773 12.4762H96.2617C96.0898 12.4762 95.9205 12.484 95.7538 12.4996C95.5924 12.5205 95.4283 12.5309 95.2617 12.5309H94.8163C94.8059 12.5205 94.7825 12.497 94.746 12.4606C94.7096 12.4241 94.6861 12.3981 94.6757 12.3824V12.2887C94.6757 12.2002 94.7122 12.1429 94.7851 12.1168C94.858 12.0856 94.9387 12.0699 95.0273 12.0699C95.1002 12.0699 95.1705 12.0726 95.2382 12.0778C95.3111 12.083 95.3684 12.0856 95.4101 12.0856C95.4622 12.0804 95.5221 12.0752 95.5898 12.0699C95.6575 12.0647 95.7226 12.0517 95.7851 12.0309C95.8476 12.0101 95.9049 11.9814 95.957 11.9449C96.0143 11.9085 96.0559 11.859 96.082 11.7965C96.0872 11.7653 96.0924 11.7132 96.0976 11.6403C96.1028 11.5621 96.108 11.4788 96.1132 11.3903C96.1184 11.3017 96.121 11.2184 96.121 11.1403C96.1262 11.0569 96.1288 10.9996 96.1288 10.9684V10.9528C96.1288 10.7444 96.1262 10.5439 96.121 10.3512C96.1158 10.1585 96.108 9.96838 96.0976 9.78088C96.0924 9.58818 96.0872 9.39807 96.082 9.21057C96.0768 9.01786 96.0768 8.81995 96.082 8.61682C96.0611 8.59599 96.0481 8.57515 96.0429 8.55432C96.0429 8.53349 96.0429 8.50745 96.0429 8.4762C96.0429 8.40849 96.0559 8.34338 96.082 8.28088C96.1132 8.21318 96.1288 8.14286 96.1288 8.06995V7.99963C96.1288 7.9788 96.121 7.93453 96.1054 7.86682C96.0898 7.79911 96.082 7.76005 96.082 7.74963V6.71057L96.0429 6.62463L96.0663 5.45276V5.31213V2.73401C96.0768 2.69755 96.0872 2.63505 96.0976 2.54651C96.108 2.45797 96.1184 2.36422 96.1288 2.26526C96.1445 2.1663 96.1549 2.07255 96.1601 1.98401C96.1705 1.89547 96.1783 1.83036 96.1835 1.7887V1.76526V1.74963C96.1731 1.7288 96.1549 1.68713 96.1288 1.62463C96.108 1.55693 96.0924 1.51786 96.082 1.50745C96.0768 1.50224 96.0716 1.49443 96.0663 1.48401C96.0611 1.47359 96.0559 1.46838 96.0507 1.46838C96.0455 1.46318 96.0429 1.45797 96.0429 1.45276C96.0064 1.45797 95.9492 1.46057 95.871 1.46057C95.7981 1.46057 95.7226 1.46057 95.6445 1.46057C95.5559 1.46057 95.4752 1.46057 95.4023 1.46057C95.3346 1.46057 95.2877 1.45797 95.2617 1.45276H95.2148C95.1731 1.45276 95.1236 1.45276 95.0663 1.45276C95.0143 1.44755 94.9622 1.43713 94.9101 1.42151C94.8632 1.40588 94.8216 1.38245 94.7851 1.3512C94.7486 1.31995 94.7304 1.27828 94.7304 1.2262C94.7304 1.15849 94.7564 1.11161 94.8085 1.08557C94.8658 1.05953 94.9179 1.0413 94.9648 1.03088C94.9856 1.02568 95.0169 1.02047 95.0585 1.01526C95.1054 1.00484 95.1523 0.99703 95.1992 0.991821C95.246 0.986613 95.2877 0.984009 95.3242 0.984009C95.3658 0.9788 95.3945 0.976196 95.4101 0.976196C95.4205 0.976196 95.4413 0.9788 95.4726 0.984009C95.5091 0.984009 95.5455 0.986613 95.582 0.991821C95.6184 0.99703 95.6523 1.00484 95.6835 1.01526C95.7148 1.02047 95.733 1.02568 95.7382 1.03088H96.0038H96.2773C96.2929 1.02568 96.3242 1.02047 96.371 1.01526C96.4179 1.00484 96.47 0.99703 96.5273 0.991821C96.5846 0.986613 96.6367 0.984009 96.6835 0.984009C96.7304 0.9788 96.7617 0.976196 96.7773 0.976196H97.0273H97.6913C97.707 0.976196 97.7434 0.973592 97.8007 0.968384C97.858 0.963175 97.9205 0.957967 97.9882 0.952759C98.0559 0.94755 98.1184 0.942342 98.1757 0.937134C98.233 0.931925 98.2695 0.929321 98.2851 0.929321H98.3085H98.3398C98.3606 0.929321 98.3893 0.931925 98.4257 0.937134C98.4674 0.942342 98.5091 0.94755 98.5507 0.952759C98.5924 0.957967 98.6288 0.963175 98.6601 0.968384C98.6966 0.973592 98.72 0.976196 98.7304 0.976196C98.7721 0.986613 98.8137 0.999634 98.8554 1.01526C98.9023 1.03088 98.9257 1.06734 98.9257 1.12463C98.9257 1.17672 98.8788 1.22099 98.7851 1.25745C98.6913 1.2887 98.5846 1.31734 98.4648 1.34338C98.345 1.36422 98.2278 1.38245 98.1132 1.39807C98.0038 1.4137 97.9283 1.43193 97.8867 1.45276C97.8606 1.46838 97.8372 1.49443 97.8163 1.53088C97.8007 1.56734 97.7877 1.6064 97.7773 1.64807C97.7669 1.68453 97.7591 1.72099 97.7538 1.75745C97.7486 1.7939 97.746 1.82255 97.746 1.84338V3.6012C97.746 3.61161 97.7382 3.63765 97.7226 3.67932C97.7122 3.71578 97.7018 3.73922 97.6913 3.74963V3.80432C97.6913 3.9137 97.707 4.03349 97.7382 4.1637C97.7695 4.2887 97.7851 4.4137 97.7851 4.5387C97.7955 4.58036 97.8007 4.6637 97.8007 4.7887C97.8007 4.90849 97.8007 5.03349 97.8007 5.1637C97.8007 5.29911 97.8007 5.42672 97.8007 5.54651C97.8007 5.6663 97.7955 5.74963 97.7851 5.79651C97.8111 5.82776 97.8372 5.86943 97.8632 5.92151C97.8945 5.96838 97.9335 5.99182 97.9804 5.99182H98.0351C98.0403 5.9814 98.0481 5.96578 98.0585 5.94495C98.0742 5.9189 98.0898 5.89286 98.1054 5.86682C98.121 5.84078 98.1341 5.81734 98.1445 5.79651C98.1601 5.77568 98.1705 5.76265 98.1757 5.75745C98.1809 5.74703 98.1966 5.7314 98.2226 5.71057C98.2538 5.68453 98.2825 5.65849 98.3085 5.63245C98.3398 5.6012 98.3658 5.57515 98.3867 5.55432C98.4127 5.52828 98.4257 5.51265 98.4257 5.50745C98.4361 5.49182 98.457 5.46318 98.4882 5.42151C98.5247 5.37984 98.5611 5.33557 98.5976 5.2887C98.6341 5.23661 98.6679 5.18974 98.6992 5.14807C98.7356 5.1064 98.7591 5.07776 98.7695 5.06213C98.7851 5.0413 98.8163 5.00745 98.8632 4.96057C98.9153 4.90849 98.97 4.8538 99.0273 4.79651C99.0846 4.73922 99.1367 4.68713 99.1835 4.64026C99.2356 4.58818 99.2721 4.55432 99.2929 4.5387C99.3137 4.47099 99.3398 4.42411 99.371 4.39807C99.4075 4.36682 99.4466 4.33036 99.4882 4.2887C99.5038 4.26786 99.5299 4.23661 99.5663 4.19495C99.6028 4.14807 99.6393 4.1012 99.6757 4.05432C99.7174 4.00745 99.7538 3.96578 99.7851 3.92932C99.8163 3.88765 99.8372 3.86161 99.8476 3.8512C99.8476 3.84599 99.8528 3.83297 99.8632 3.81213C99.8736 3.7913 99.8841 3.77047 99.8945 3.74963C99.9049 3.7288 99.9127 3.71057 99.9179 3.69495C99.9283 3.67411 99.9361 3.66109 99.9413 3.65588C99.9518 3.64026 99.9726 3.61161 100.004 3.56995C100.04 3.52828 100.079 3.4814 100.121 3.42932C100.163 3.37724 100.202 3.32515 100.238 3.27307C100.28 3.22099 100.311 3.18193 100.332 3.15588C100.389 3.08818 100.452 3.00745 100.519 2.9137C100.592 2.81474 100.657 2.71057 100.715 2.6012C100.777 2.49182 100.827 2.38245 100.863 2.27307C100.905 2.15849 100.926 2.05172 100.926 1.95276C100.926 1.85901 100.902 1.77828 100.855 1.71057C100.814 1.63765 100.759 1.57515 100.691 1.52307C100.624 1.46578 100.548 1.4189 100.465 1.38245C100.387 1.34599 100.311 1.31995 100.238 1.30432H100.027H99.9413C99.9309 1.30432 99.8997 1.28088 99.8476 1.23401C99.8007 1.18713 99.7643 1.14547 99.7382 1.10901V1.09338C99.7382 1.05693 99.7564 1.02307 99.7929 0.991821C99.8346 0.960571 99.8814 0.937134 99.9335 0.921509C99.9908 0.900675 100.048 0.88505 100.105 0.874634C100.163 0.864217 100.207 0.859009 100.238 0.859009C100.285 0.859009 100.332 0.87203 100.379 0.898071C100.431 0.918905 100.486 0.929321 100.543 0.929321H100.582C100.603 0.924113 100.668 0.918905 100.777 0.913696C100.887 0.908488 101.004 0.90328 101.129 0.898071C101.259 0.892863 101.379 0.887655 101.488 0.882446C101.598 0.877238 101.668 0.874634 101.699 0.874634H102.574C102.585 0.874634 102.608 0.87203 102.644 0.866821C102.686 0.861613 102.728 0.859009 102.769 0.859009C102.816 0.8538 102.858 0.848592 102.894 0.843384C102.931 0.838175 102.952 0.835571 102.957 0.835571H103.012H103.059C103.09 0.835571 103.147 0.838175 103.23 0.843384C103.314 0.848592 103.402 0.8538 103.496 0.859009C103.59 0.864217 103.678 0.869425 103.762 0.874634C103.85 0.879842 103.91 0.88505 103.941 0.890259C103.957 0.890259 103.978 0.898071 104.004 0.913696C104.03 0.929321 104.056 0.94755 104.082 0.968384C104.108 0.989217 104.131 1.01265 104.152 1.0387C104.173 1.05953 104.186 1.07776 104.191 1.09338V1.13245C104.191 1.20536 104.165 1.26786 104.113 1.31995C104.066 1.37203 104.009 1.39807 103.941 1.39807H103.387C103.241 1.39807 103.095 1.4189 102.949 1.46057C102.809 1.49703 102.671 1.54911 102.535 1.61682C102.405 1.68453 102.275 1.76005 102.144 1.84338C102.019 1.92672 101.9 2.01005 101.785 2.09338C101.78 2.09859 101.762 2.11682 101.73 2.14807C101.699 2.17411 101.665 2.20536 101.629 2.24182C101.592 2.27828 101.556 2.31474 101.519 2.3512C101.488 2.38765 101.465 2.4163 101.449 2.43713C101.314 2.58818 101.184 2.74182 101.059 2.89807C100.934 3.05432 100.806 3.20536 100.676 3.3512L100.527 3.49963C100.48 3.55693 100.434 3.61422 100.387 3.67151C100.34 3.72359 100.303 3.78349 100.277 3.8512C100.23 3.95536 100.173 4.04651 100.105 4.12463C100.038 4.20276 99.9518 4.27307 99.8476 4.33557C99.832 4.34599 99.8163 4.3538 99.8007 4.35901C99.7903 4.36943 99.7773 4.37724 99.7617 4.38245C99.7512 4.38245 99.7434 4.38505 99.7382 4.39026C99.733 4.40068 99.7174 4.43974 99.6913 4.50745C99.6705 4.57515 99.6575 4.61943 99.6523 4.64026C99.6419 4.64547 99.6341 4.65068 99.6288 4.65588C99.6184 4.66109 99.608 4.6637 99.5976 4.6637C99.4986 4.7314 99.3997 4.81995 99.3007 4.92932C99.2018 5.0387 99.1523 5.16109 99.1523 5.29651V5.31213C99.2096 5.42151 99.2799 5.52568 99.3632 5.62463C99.4518 5.72359 99.5299 5.83297 99.5976 5.95276C99.6028 5.95797 99.6106 5.9762 99.621 6.00745C99.6367 6.03349 99.6523 6.06474 99.6679 6.1012C99.6835 6.13245 99.6992 6.1637 99.7148 6.19495C99.7304 6.22099 99.7382 6.23661 99.7382 6.24182C99.8059 6.33036 99.8814 6.41109 99.9648 6.48401C100.053 6.55172 100.126 6.62724 100.184 6.71057C100.267 6.86161 100.35 7.02568 100.434 7.20276C100.517 7.37463 100.613 7.52568 100.723 7.65588L100.965 7.89807C101.006 7.95536 101.043 8.01786 101.074 8.08557C101.111 8.14807 101.147 8.21318 101.184 8.28088C101.22 8.34859 101.259 8.4137 101.301 8.4762C101.342 8.53349 101.392 8.58036 101.449 8.61682L102.184 9.71057C102.21 9.7262 102.243 9.76786 102.285 9.83557C102.332 9.89807 102.379 9.96838 102.426 10.0465C102.478 10.1246 102.525 10.2002 102.566 10.2731C102.608 10.346 102.642 10.3981 102.668 10.4293C102.814 10.6533 102.97 10.8694 103.137 11.0778C103.309 11.2809 103.512 11.458 103.746 11.609C103.871 11.6819 103.996 11.7601 104.121 11.8434C104.251 11.9267 104.384 11.9892 104.519 12.0309C104.572 12.0465 104.639 12.0569 104.723 12.0621C104.806 12.0621 104.887 12.0699 104.965 12.0856C105.043 12.096 105.111 12.1194 105.168 12.1559C105.225 12.1923 105.254 12.2522 105.254 12.3356C105.254 12.3981 105.238 12.4476 105.207 12.484C105.176 12.5205 105.134 12.5465 105.082 12.5621C105.035 12.583 104.983 12.596 104.926 12.6012C104.868 12.6116 104.816 12.6168 104.769 12.6168C104.634 12.6168 104.504 12.6038 104.379 12.5778C104.254 12.5517 104.126 12.5361 103.996 12.5309C103.751 12.5101 103.506 12.4944 103.262 12.484C103.022 12.4788 102.78 12.4762 102.535 12.4762H102.09Z" fill="#6B6B6B"/>
</svg>
