<svg width="77" height="32" viewBox="0 0 77 32" fill="none" xmlns="http://www.w3.org/2000/svg">
<path d="M3.63447 10.4762C3.63447 9.4762 3.63947 8.4312 3.64947 7.3412C3.65947 6.2412 3.67947 5.1962 3.70947 4.2062C3.72947 3.8262 3.75947 3.4562 3.79947 3.0962C3.83947 2.7362 3.86947 2.3762 3.88947 2.0162H3.82947C3.27947 2.0562 2.72947 2.1112 2.17947 2.1812C1.62947 2.2512 1.07447 2.2862 0.51447 2.2862V1.0862C1.04447 1.0862 1.57447 1.0562 2.10447 0.996196C2.64447 0.926196 3.18947 0.871196 3.73947 0.831196C4.34947 0.781196 4.98447 0.746196 5.64447 0.726196C6.31447 0.696196 7.02447 0.681195 7.77447 0.681195V1.8812C7.26447 1.8812 6.77447 1.8862 6.30447 1.8962C5.83447 1.9062 5.37947 1.9212 4.93947 1.9412C4.91947 2.3412 4.88947 2.7362 4.84947 3.1262C4.80947 3.5062 4.77947 3.8812 4.75947 4.2512C4.72947 5.2312 4.70947 6.2662 4.69947 7.3562C4.68947 8.4462 4.68447 9.4862 4.68447 10.4762H3.63447ZM9.5174 10.8062C9.3174 10.8062 9.1024 10.8012 8.8724 10.7912C8.6424 10.7912 8.5224 10.7912 8.5124 10.7912C8.3524 10.7112 8.1624 10.6362 7.9424 10.5662C7.7324 10.4962 7.5474 10.4112 7.3874 10.3112C7.2074 10.2012 7.0724 10.0512 6.9824 9.8612C6.9024 9.6712 6.8724 9.4112 6.8924 9.0812C6.9124 8.7012 6.9724 8.3262 7.0724 7.9562C7.1724 7.5862 7.2474 7.3212 7.2974 7.1612C7.4274 6.7712 7.5474 6.3612 7.6574 5.9312C7.7774 5.5012 7.9274 5.0762 8.1074 4.6562C8.2974 4.2362 8.5574 3.8512 8.8874 3.5012C8.7574 3.4412 8.7074 3.3912 8.7374 3.3512C8.7774 3.3112 8.9274 3.2412 9.1874 3.1412C9.5074 3.0212 9.8524 2.9362 10.2224 2.8862C10.6024 2.8362 11.0424 2.8112 11.5424 2.8112H11.5724L11.5574 3.1112L11.8424 2.7962H11.8574C12.0874 2.7962 12.2024 2.9812 12.2024 3.3512C12.2024 3.4812 12.1924 3.6062 12.1724 3.7262C12.1524 3.8362 12.1374 3.9612 12.1274 4.1012C12.1074 4.4412 12.0774 4.7812 12.0374 5.1212C11.9974 5.4512 11.9574 5.7762 11.9174 6.0962C11.8874 6.3362 11.8474 6.6712 11.7974 7.1012C11.7474 7.5212 11.6724 7.9262 11.5724 8.3162C11.7424 8.0962 11.8374 8.0062 11.8574 8.0462C11.8774 8.0862 11.8374 8.2062 11.7374 8.4062C11.6474 8.6062 11.5174 8.8462 11.3474 9.1262C11.1774 9.4062 10.9924 9.6862 10.7924 9.9662C10.5924 10.2362 10.3924 10.4562 10.1924 10.6262C10.0624 10.7362 9.9624 10.7912 9.8924 10.7912C9.8324 10.8012 9.7074 10.8062 9.5174 10.8062ZM9.6224 9.5912H9.7124C9.8824 9.3312 10.0474 9.1262 10.2074 8.9762C10.3774 8.8162 10.4974 8.6862 10.5674 8.5862C10.6474 8.4562 10.7174 8.2962 10.7774 8.1062C10.8474 7.9062 10.9074 7.6462 10.9574 7.3262C11.0174 6.9962 11.0724 6.5712 11.1224 6.0512C11.1524 5.7212 11.1874 5.3912 11.2274 5.0612C11.2774 4.7312 11.3074 4.4112 11.3174 4.1012V4.0262C10.4774 4.0262 9.8374 4.1112 9.3974 4.2812L9.4274 4.2962H9.4424C9.0324 4.7362 8.7424 5.2212 8.5724 5.7512C8.4124 6.2812 8.2424 6.8462 8.0624 7.4462C8.0124 7.6562 7.9474 7.9112 7.8674 8.2112C7.7874 8.5012 7.7324 8.7912 7.7024 9.0812C7.6924 9.2112 7.6924 9.3062 7.7024 9.3662C7.7224 9.4162 7.7624 9.4662 7.8224 9.5162C7.8424 9.5162 7.9174 9.5262 8.0474 9.5462C8.1774 9.5662 8.3624 9.5762 8.6024 9.5762C8.6124 9.5762 8.7324 9.5812 8.9624 9.5912C9.2024 9.5912 9.4224 9.5912 9.6224 9.5912ZM23.6903 10.7912C23.5103 10.7912 23.2853 10.6762 23.0153 10.4462C22.7453 10.2162 22.4153 9.9012 22.0253 9.5012C21.8453 9.3212 21.6403 9.1412 21.4103 8.9612C21.1903 8.7712 20.9653 8.5512 20.7353 8.3012C20.5353 8.0812 20.3553 7.9062 20.1953 7.7762C20.0353 7.6362 19.8553 7.4812 19.6553 7.3112C19.5053 7.1812 19.3153 7.0362 19.0853 6.8762C18.8553 6.7062 18.6553 6.4762 18.4853 6.1862C18.4453 6.9062 18.4103 7.6212 18.3803 8.3312C18.3603 9.0412 18.3503 9.7612 18.3503 10.4912H17.3003C17.3003 9.4212 17.3253 8.3762 17.3753 7.3562C17.4253 6.3262 17.4703 5.2862 17.5103 4.2362C17.5303 3.6762 17.5003 3.1062 17.4203 2.5262C17.3503 1.9362 17.3153 1.3362 17.3153 0.726196H18.3653C18.3653 1.2862 18.4003 1.8662 18.4703 2.4662C18.5503 3.0562 18.5803 3.6612 18.5603 4.2812C18.5503 4.4112 18.5453 4.5412 18.5453 4.6712C18.5453 4.7912 18.5403 4.9162 18.5303 5.0462C18.6903 4.8462 18.8753 4.6512 19.0853 4.4612C19.2953 4.2712 19.4953 4.0962 19.6853 3.9362C19.8753 3.7662 20.0203 3.6312 20.1203 3.5312C20.4903 3.1812 20.8203 2.8212 21.1103 2.4512C21.4103 2.0812 21.7303 1.7012 22.0703 1.3112C22.2403 1.1112 22.4103 0.951196 22.5803 0.831196C22.7503 0.701196 22.8853 0.586196 22.9853 0.486196L23.7353 1.3412C23.5653 1.5012 23.4003 1.6412 23.2403 1.7612C23.0803 1.8812 22.9553 1.9962 22.8653 2.1062C22.5253 2.4962 22.2003 2.8812 21.8903 3.2612C21.5903 3.6412 21.2453 4.0212 20.8553 4.4012C20.7553 4.5012 20.6203 4.6262 20.4503 4.7762C20.2803 4.9262 20.1053 5.0812 19.9253 5.2412C19.7453 5.4012 19.5903 5.5462 19.4603 5.6762C19.5603 5.7762 19.6903 5.8862 19.8503 6.0062C20.0103 6.1162 20.1753 6.2512 20.3453 6.4112C20.5753 6.6112 20.7803 6.7912 20.9603 6.9512C21.1403 7.1112 21.3203 7.2912 21.5003 7.4912C21.6703 7.6612 21.8703 7.8412 22.1003 8.0312C22.3303 8.2212 22.5553 8.4312 22.7753 8.6612C22.7953 8.6712 22.8503 8.7312 22.9403 8.8412C23.0403 8.9412 23.1603 9.0612 23.3003 9.2012C23.4403 9.3312 23.5703 9.4612 23.6903 9.5912V10.7912ZM18.4853 6.0062L18.7853 5.8412L18.5003 5.7062L18.4853 6.0062ZM25.8526 10.4912C25.8526 9.5712 25.8426 8.6112 25.8226 7.6112C25.8026 6.6012 25.7676 5.5662 25.7176 4.5062C25.7076 4.4162 25.7026 4.3212 25.7026 4.2212C25.7026 4.1212 25.7026 4.0262 25.7026 3.9362C25.7026 3.3962 25.7176 2.8562 25.7476 2.3162C25.7876 1.7662 25.8076 1.2362 25.8076 0.726196H26.8576C26.8576 1.2562 26.8376 1.7962 26.7976 2.3462C26.7676 2.8962 26.7526 3.4262 26.7526 3.9362C26.7526 4.0362 26.7526 4.1312 26.7526 4.2212C26.7526 4.3012 26.7576 4.3812 26.7676 4.4612C26.8176 5.5212 26.8526 6.5612 26.8726 7.5812C26.8926 8.6012 26.9026 9.5712 26.9026 10.4912H25.8526ZM29.5709 10.5812C29.4609 10.5812 29.4059 10.4862 29.4059 10.2962C29.4059 10.0762 29.4059 9.8612 29.4059 9.6512C29.4159 9.4412 29.4209 9.2312 29.4209 9.0212C29.4209 8.9112 29.4209 8.7612 29.4209 8.5712C29.4209 8.3812 29.4159 8.2312 29.4059 8.1212C29.3759 7.7812 29.3609 7.4412 29.3609 7.1012C29.3709 6.7612 29.3659 6.4212 29.3459 6.0812C29.3159 5.6412 29.2759 5.1962 29.2259 4.7462C29.1759 4.2962 29.1509 3.8412 29.1509 3.3812C29.1509 3.3012 29.1559 3.2162 29.1659 3.1262C29.1759 3.0362 29.1759 2.9512 29.1659 2.8712C29.1559 2.4712 29.1559 2.1362 29.1659 1.8662C29.1859 1.5862 29.2259 1.3062 29.2859 1.0262C29.3059 0.946196 29.3209 0.886196 29.3309 0.846196C29.3509 0.796196 29.3609 0.766196 29.3609 0.756196H30.2609C30.2609 0.966196 30.2409 1.1262 30.2009 1.2362C30.1609 1.3362 30.1459 1.3512 30.1559 1.2812C30.1059 1.5612 30.0809 1.8662 30.0809 2.1962C30.0909 2.5162 30.0859 2.7662 30.0659 2.9462C30.0559 3.0162 30.0509 3.0862 30.0509 3.1562C30.0509 3.2262 30.0509 3.3012 30.0509 3.3812C30.0509 3.7912 30.0759 4.2162 30.1259 4.6562C30.1759 5.0862 30.2159 5.5362 30.2459 6.0062C30.2659 6.3762 30.2709 6.7312 30.2609 7.0712C30.2609 7.4012 30.2709 7.7212 30.2909 8.0312C30.3009 8.1312 30.3059 8.2862 30.3059 8.4962C30.3159 8.7062 30.3209 8.8812 30.3209 9.0212V9.5462C30.5109 9.5262 30.7009 9.5062 30.8909 9.4862C31.0809 9.4562 31.2359 9.4412 31.3559 9.4412C31.6859 9.4412 32.0109 9.4562 32.3309 9.4862C32.6509 9.5162 32.9659 9.5312 33.2759 9.5312C33.6259 9.5312 33.9759 9.5262 34.3259 9.5162C34.6859 9.4962 35.0509 9.4862 35.4209 9.4862V10.4762C35.0709 10.4762 34.7159 10.4812 34.3559 10.4912C33.9959 10.5112 33.6359 10.5212 33.2759 10.5212C32.9559 10.5212 32.6359 10.5062 32.3159 10.4762C31.9959 10.4462 31.6759 10.4312 31.3559 10.4312C31.2259 10.4312 31.0459 10.4462 30.8159 10.4762C30.5859 10.5062 30.3559 10.5312 30.1259 10.5512C29.8959 10.5812 29.7109 10.5912 29.5709 10.5812ZM37.7301 10.5812C37.6201 10.5812 37.5651 10.4862 37.5651 10.2962C37.5651 10.0762 37.5651 9.8612 37.5651 9.6512C37.5751 9.4412 37.5801 9.2312 37.5801 9.0212C37.5801 8.9112 37.5801 8.7612 37.5801 8.5712C37.5801 8.3812 37.5751 8.2312 37.5651 8.1212C37.5351 7.7812 37.5201 7.4412 37.5201 7.1012C37.5301 6.7612 37.5251 6.4212 37.5051 6.0812C37.4751 5.6412 37.4351 5.1962 37.3851 4.7462C37.3351 4.2962 37.3101 3.8412 37.3101 3.3812C37.3101 3.3012 37.3151 3.2162 37.3251 3.1262C37.3351 3.0362 37.3351 2.9512 37.3251 2.8712C37.3151 2.4712 37.3151 2.1362 37.3251 1.8662C37.3451 1.5862 37.3851 1.3062 37.4451 1.0262C37.4651 0.946196 37.4801 0.886196 37.4901 0.846196C37.5101 0.796196 37.5201 0.766196 37.5201 0.756196H38.4201C38.4201 0.966196 38.4001 1.1262 38.3601 1.2362C38.3201 1.3362 38.3051 1.3512 38.3151 1.2812C38.2651 1.5612 38.2401 1.8662 38.2401 2.1962C38.2501 2.5162 38.2451 2.7662 38.2251 2.9462C38.2151 3.0162 38.2101 3.0862 38.2101 3.1562C38.2101 3.2262 38.2101 3.3012 38.2101 3.3812C38.2101 3.7912 38.2351 4.2162 38.2851 4.6562C38.3351 5.0862 38.3751 5.5362 38.4051 6.0062C38.4251 6.3762 38.4301 6.7312 38.4201 7.0712C38.4201 7.4012 38.4301 7.7212 38.4501 8.0312C38.4601 8.1312 38.4651 8.2862 38.4651 8.4962C38.4751 8.7062 38.4801 8.8812 38.4801 9.0212V9.5462C38.6701 9.5262 38.8601 9.5062 39.0501 9.4862C39.2401 9.4562 39.3951 9.4412 39.5151 9.4412C39.8451 9.4412 40.1701 9.4562 40.4901 9.4862C40.8101 9.5162 41.1251 9.5312 41.4351 9.5312C41.7851 9.5312 42.1351 9.5262 42.4851 9.5162C42.8451 9.4962 43.2101 9.4862 43.5801 9.4862V10.4762C43.2301 10.4762 42.8751 10.4812 42.5151 10.4912C42.1551 10.5112 41.7951 10.5212 41.4351 10.5212C41.1151 10.5212 40.7951 10.5062 40.4751 10.4762C40.1551 10.4462 39.8351 10.4312 39.5151 10.4312C39.3851 10.4312 39.2051 10.4462 38.9751 10.4762C38.7451 10.5062 38.5151 10.5312 38.2851 10.5512C38.0551 10.5812 37.8701 10.5912 37.7301 10.5812ZM55.5342 11.0012C55.3542 11.0012 55.2042 10.9262 55.0842 10.7762C54.9742 10.6362 54.9192 10.4562 54.9192 10.2362C54.9192 10.0862 54.9542 9.9662 55.0242 9.8762C54.8942 9.6162 54.7742 9.3462 54.6642 9.0662C54.5642 8.7862 54.4592 8.5062 54.3492 8.2262C54.2892 8.0762 54.2292 7.9262 54.1692 7.7762C54.1092 7.6262 54.0492 7.4762 53.9892 7.3262V7.4162C53.9092 7.4162 53.8242 7.4262 53.7342 7.4462C53.6442 7.4562 53.5442 7.4662 53.4342 7.4762C53.3642 7.4862 53.2942 7.4912 53.2242 7.4912C53.1642 7.4912 53.0942 7.4912 53.0142 7.4912C52.8542 7.4912 52.6892 7.4862 52.5192 7.4762C52.3492 7.4662 52.1842 7.4612 52.0242 7.4612C51.9542 7.4612 51.8842 7.4662 51.8142 7.4762C51.7542 7.4762 51.6992 7.4812 51.6492 7.4912C51.4892 7.5012 51.3142 7.5362 51.1242 7.5962C50.9442 7.6462 50.7392 7.6712 50.5092 7.6712C50.3792 7.6712 50.2542 7.6712 50.1342 7.6712C50.0242 7.6612 49.9142 7.6512 49.8042 7.6412C49.7742 7.7212 49.7442 7.8012 49.7142 7.8812C49.6842 7.9612 49.6542 8.0412 49.6242 8.1212C49.3842 8.7512 49.1942 9.2512 49.0542 9.6212C48.9142 9.9812 48.8042 10.2512 48.7242 10.4312C48.6442 10.6012 48.5742 10.7112 48.5142 10.7612L47.8542 9.9512C47.8642 9.9412 47.8992 9.8662 47.9592 9.7262C48.0192 9.5762 48.0892 9.3962 48.1692 9.1862C48.2492 8.9662 48.3292 8.7512 48.4092 8.5412C48.4892 8.3312 48.5592 8.1512 48.6192 8.0012C48.6792 7.8412 48.7142 7.7562 48.7242 7.7462C49.0142 6.9762 49.2692 6.1962 49.4892 5.4062C49.7192 4.6062 49.9792 3.8112 50.2692 3.0212C50.5592 2.2312 50.9492 1.4712 51.4392 0.741196L51.6642 0.921196L52.6392 0.636196C52.7192 0.946196 52.8292 1.2562 52.9692 1.5662C53.1092 1.8762 53.2492 2.2062 53.3892 2.5562C53.5592 2.9562 53.6892 3.3562 53.7792 3.7562C53.8792 4.1562 53.9992 4.5412 54.1392 4.9112C54.3092 5.3712 54.4942 5.8412 54.6942 6.3212C54.8942 6.8012 55.0892 7.2912 55.2792 7.7912C55.3892 8.0812 55.4992 8.3662 55.6092 8.6462C55.7292 8.9262 55.8592 9.2062 55.9992 9.4862C56.1492 9.7762 56.2492 10.0162 56.2992 10.2062C56.3492 10.3862 56.2992 10.5462 56.1492 10.6862C55.9292 10.8962 55.7242 11.0012 55.5342 11.0012ZM50.1342 6.6212C50.2042 6.6012 50.2692 6.5862 50.3292 6.5762C50.3892 6.5662 50.4492 6.5612 50.5092 6.5612C50.6492 6.5612 50.7992 6.5662 50.9592 6.5762C51.1292 6.5762 51.3142 6.5612 51.5142 6.5312C51.5942 6.5212 51.6742 6.5162 51.7542 6.5162C51.8442 6.5062 51.9342 6.5012 52.0242 6.5012C52.1942 6.5012 52.3642 6.5062 52.5342 6.5162C52.7042 6.5262 52.8642 6.5312 53.0142 6.5312H53.3292C53.3792 6.5212 53.4292 6.5162 53.4792 6.5162C53.5392 6.5062 53.5942 6.4962 53.6442 6.4862C53.5742 6.2962 53.5042 6.1062 53.4342 5.9162C53.3642 5.7262 53.2892 5.5362 53.2092 5.3462C53.0592 4.9462 52.9342 4.5512 52.8342 4.1612C52.7442 3.7612 52.6242 3.3812 52.4742 3.0212C52.3942 2.8312 52.3042 2.6412 52.2042 2.4512C52.1142 2.2512 52.0292 2.0412 51.9492 1.8212C51.5192 2.5512 51.1742 3.3262 50.9142 4.1462C50.6642 4.9562 50.4042 5.7812 50.1342 6.6212ZM11.2845 28.6262V28.1612C11.1545 28.1612 11.0745 28.1262 11.0445 28.0562C11.0245 27.9862 11.0295 27.8512 11.0595 27.6512C11.0895 27.4512 11.1095 27.1562 11.1195 26.7662C11.1395 26.2662 11.1645 25.7662 11.1945 25.2662C11.2245 24.7562 11.2395 24.2562 11.2395 23.7662C11.2395 23.4762 11.2345 23.2112 11.2245 22.9712C11.2145 22.7312 11.1945 22.4712 11.1645 22.1912C11.0845 21.5712 11.0245 20.9212 10.9845 20.2412C10.9845 20.1612 10.9845 20.0812 10.9845 20.0012C10.9845 19.9212 10.9795 19.8462 10.9695 19.7762C10.8695 19.9462 10.7745 20.1262 10.6845 20.3162C10.6045 20.4962 10.5395 20.6212 10.4895 20.6912C10.2395 21.1212 10.0345 21.5412 9.87447 21.9512C9.72447 22.3512 9.56447 22.7262 9.39447 23.0762C9.24447 23.4162 9.09947 23.7662 8.95947 24.1262C8.82947 24.4862 8.69447 24.8412 8.55447 25.1912C8.41447 25.5412 8.26947 25.8762 8.11947 26.1962C7.97947 26.5162 7.79947 26.8362 7.57947 27.1562C7.59947 27.1762 7.61447 27.2062 7.62447 27.2462C7.64447 27.2762 7.66447 27.3062 7.68447 27.3362L7.29447 27.9812C7.23447 28.2212 7.14447 28.3812 7.02447 28.4612C6.91447 28.5312 6.79447 28.5512 6.66447 28.5212C6.54447 28.5012 6.43447 28.4612 6.33447 28.4012C6.24447 28.3312 6.18447 28.2712 6.15447 28.2212C6.11447 28.1312 6.10447 27.9962 6.12447 27.8162C6.15447 27.6262 6.14947 27.4712 6.10947 27.3512L6.09447 27.2912C5.90447 26.9312 5.71947 26.6012 5.53947 26.3012C5.36947 26.0012 5.18947 25.6512 4.99947 25.2512C4.78947 24.8012 4.55447 24.3462 4.29447 23.8862C4.03447 23.4262 3.75947 22.9662 3.46947 22.5062C3.29947 22.2462 3.14947 21.9612 3.01947 21.6512C2.89947 21.3412 2.76447 21.0512 2.61447 20.7812C2.56447 20.6812 2.50947 20.5762 2.44947 20.4662C2.38947 20.3562 2.32447 20.2462 2.25447 20.1362C2.24447 20.7762 2.22447 21.4162 2.19447 22.0562C2.17447 22.6862 2.15947 23.3112 2.14947 23.9312C2.13947 24.1312 2.13447 24.3362 2.13447 24.5462C2.13447 24.7462 2.13447 24.9612 2.13447 25.1912C2.13447 25.5212 2.13447 25.8612 2.13447 26.2112C2.14447 26.5512 2.15447 26.9062 2.16447 27.2762C2.16447 27.4362 2.16447 27.6312 2.16447 27.8612C2.17447 28.0812 2.17947 28.2862 2.17947 28.4762H1.12947C1.12947 28.3562 1.12947 28.1862 1.12947 27.9662C1.12947 27.7462 1.12447 27.5262 1.11447 27.3062C1.10447 26.9462 1.09447 26.5912 1.08447 26.2412C1.08447 25.8812 1.08447 25.5312 1.08447 25.1912C1.08447 24.9712 1.08447 24.7562 1.08447 24.5462C1.08447 24.3362 1.08947 24.1262 1.09947 23.9162C1.11947 23.0562 1.14447 22.2012 1.17447 21.3512C1.20447 20.5012 1.21947 19.6562 1.21947 18.8162H2.19447L2.64447 18.5912C2.73447 18.8012 2.86447 19.0512 3.03447 19.3412C3.21447 19.6312 3.38447 19.9212 3.54447 20.2112C3.69447 20.4912 3.82447 20.7712 3.93447 21.0512C4.05447 21.3312 4.19447 21.6012 4.35447 21.8612C4.61447 22.3012 4.85947 22.7512 5.08947 23.2112C5.31947 23.6712 5.58447 24.1362 5.88447 24.6062C6.02447 24.8262 6.18947 25.0562 6.37947 25.2962C6.57947 25.5262 6.77447 25.7862 6.96447 26.0762C7.06447 25.9062 7.15947 25.7212 7.24947 25.5212C7.34947 25.3112 7.45947 25.0512 7.57947 24.7412C7.71947 24.4012 7.85447 24.0562 7.98447 23.7062C8.12447 23.3462 8.26947 22.9962 8.41947 22.6562C8.61947 22.2162 8.80947 21.7762 8.98947 21.3362C9.16947 20.8862 9.36947 20.4712 9.58947 20.0912C9.61947 20.0312 9.67447 19.9212 9.75447 19.7612C9.83447 19.6012 9.92447 19.4262 10.0245 19.2362C10.1345 19.0462 10.2495 18.8662 10.3695 18.6962C10.4995 18.5262 10.6295 18.4062 10.7595 18.3362L12.0195 19.2512V19.5212C12.0195 19.6312 12.0195 19.7412 12.0195 19.8512C12.0295 19.9612 12.0345 20.0712 12.0345 20.1812C12.0545 20.4312 12.0745 20.7112 12.0945 21.0212C12.1245 21.3312 12.1595 21.6762 12.1995 22.0562C12.2295 22.3362 12.2495 22.6062 12.2595 22.8662C12.2795 23.1162 12.2895 23.4162 12.2895 23.7662C12.2895 24.2862 12.2795 24.8062 12.2595 25.3262C12.2395 25.8362 12.2095 26.3362 12.1695 26.8262C12.1395 27.2662 12.1195 27.6212 12.1095 27.8912C12.1095 28.1512 12.0545 28.3412 11.9445 28.4612C11.8345 28.5712 11.6145 28.6262 11.2845 28.6262ZM16.3582 28.8062C16.1582 28.8062 15.9432 28.8012 15.7132 28.7912C15.4832 28.7912 15.3632 28.7912 15.3532 28.7912C15.1932 28.7112 15.0032 28.6362 14.7832 28.5662C14.5732 28.4962 14.3882 28.4112 14.2282 28.3112C14.0482 28.2012 13.9132 28.0512 13.8232 27.8612C13.7432 27.6712 13.7132 27.4112 13.7332 27.0812C13.7532 26.7012 13.8132 26.3262 13.9132 25.9562C14.0132 25.5862 14.0882 25.3212 14.1382 25.1612C14.2682 24.7712 14.3882 24.3612 14.4982 23.9312C14.6182 23.5012 14.7682 23.0762 14.9482 22.6562C15.1382 22.2362 15.3982 21.8512 15.7282 21.5012C15.5982 21.4412 15.5482 21.3912 15.5782 21.3512C15.6182 21.3112 15.7682 21.2412 16.0282 21.1412C16.3482 21.0212 16.6932 20.9362 17.0632 20.8862C17.4432 20.8362 17.8832 20.8112 18.3832 20.8112H18.4132L18.3982 21.1112L18.6832 20.7962H18.6982C18.9282 20.7962 19.0432 20.9812 19.0432 21.3512C19.0432 21.4812 19.0332 21.6062 19.0132 21.7262C18.9932 21.8362 18.9782 21.9612 18.9682 22.1012C18.9482 22.4412 18.9182 22.7812 18.8782 23.1212C18.8382 23.4512 18.7982 23.7762 18.7582 24.0962C18.7282 24.3362 18.6882 24.6712 18.6382 25.1012C18.5882 25.5212 18.5132 25.9262 18.4132 26.3162C18.5832 26.0962 18.6782 26.0062 18.6982 26.0462C18.7182 26.0862 18.6782 26.2062 18.5782 26.4062C18.4882 26.6062 18.3582 26.8462 18.1882 27.1262C18.0182 27.4062 17.8332 27.6862 17.6332 27.9662C17.4332 28.2362 17.2332 28.4562 17.0332 28.6262C16.9032 28.7362 16.8032 28.7912 16.7332 28.7912C16.6732 28.8012 16.5482 28.8062 16.3582 28.8062ZM16.4632 27.5912H16.5532C16.7232 27.3312 16.8882 27.1262 17.0482 26.9762C17.2182 26.8162 17.3382 26.6862 17.4082 26.5862C17.4882 26.4562 17.5582 26.2962 17.6182 26.1062C17.6882 25.9062 17.7482 25.6462 17.7982 25.3262C17.8582 24.9962 17.9132 24.5712 17.9632 24.0512C17.9932 23.7212 18.0282 23.3912 18.0682 23.0612C18.1182 22.7312 18.1482 22.4112 18.1582 22.1012V22.0262C17.3182 22.0262 16.6782 22.1112 16.2382 22.2812L16.2682 22.2962H16.2832C15.8732 22.7362 15.5832 23.2212 15.4132 23.7512C15.2532 24.2812 15.0832 24.8462 14.9032 25.4462C14.8532 25.6562 14.7882 25.9112 14.7082 26.2112C14.6282 26.5012 14.5732 26.7912 14.5432 27.0812C14.5332 27.2112 14.5332 27.3062 14.5432 27.3662C14.5632 27.4162 14.6032 27.4662 14.6632 27.5162C14.6832 27.5162 14.7582 27.5262 14.8882 27.5462C15.0182 27.5662 15.2032 27.5762 15.4432 27.5762C15.4532 27.5762 15.5732 27.5812 15.8032 27.5912C16.0432 27.5912 16.2632 27.5912 16.4632 27.5912ZM21.9511 28.7762C21.7811 28.7762 21.6111 28.7462 21.4411 28.6862C21.2811 28.6262 21.1161 28.5462 20.9461 28.4462C20.7561 28.3162 20.6111 28.2112 20.5111 28.1312C20.4211 28.0512 20.3461 27.9562 20.2861 27.8462C20.2161 27.7362 20.1761 27.5862 20.1661 27.3962C20.1661 27.2062 20.1561 27.0812 20.1361 27.0212C20.0961 26.8412 20.0461 26.6462 19.9861 26.4362C19.9261 26.2262 19.8761 26.0112 19.8361 25.7912C19.8261 25.6512 19.8161 25.5312 19.8061 25.4312C19.8061 25.3312 19.8061 25.2312 19.8061 25.1312C19.8061 24.6112 19.8661 24.0912 19.9861 23.5712C20.1161 23.0512 20.2861 22.5912 20.4961 22.1912C20.7661 21.6812 21.0861 21.2812 21.4561 20.9912C21.8261 20.7012 22.2061 20.5562 22.5961 20.5562C22.9561 20.5562 23.3111 20.6812 23.6611 20.9312C23.9911 21.1612 24.2511 21.4662 24.4411 21.8462C24.4711 21.9162 24.4911 21.9862 24.5011 22.0562C24.5111 22.1162 24.5161 22.1762 24.5161 22.2362C24.5161 22.4162 24.4861 22.5762 24.4261 22.7162C24.3661 22.8562 24.3361 22.9712 24.3361 23.0612H23.5261C23.5261 22.8912 23.5411 22.7412 23.5711 22.6112C23.6011 22.4712 23.6311 22.3662 23.6611 22.2962C23.6211 22.2462 23.5661 22.1962 23.4961 22.1462C23.4261 22.0862 23.3211 22.0112 23.1811 21.9212C23.1111 21.8712 23.0211 21.8312 22.9111 21.8012C22.8111 21.7712 22.7061 21.7562 22.5961 21.7562C22.3361 21.7562 22.0811 21.8462 21.8311 22.0262C21.5811 22.2062 21.3761 22.4462 21.2161 22.7462C20.8261 23.5162 20.6311 24.3112 20.6311 25.1312C20.6311 25.2012 20.6311 25.2762 20.6311 25.3562C20.6411 25.4362 20.6461 25.5162 20.6461 25.5962C20.6661 25.7162 20.7011 25.8712 20.7511 26.0612C20.8111 26.2512 20.8711 26.4762 20.9311 26.7362L20.9911 27.4412C21.0211 27.4112 21.0761 27.3912 21.1561 27.3812C21.2361 27.3612 21.3411 27.3912 21.4711 27.4712C21.5911 27.5312 21.7511 27.5612 21.9511 27.5612C22.2811 27.5612 22.5761 27.4362 22.8361 27.1862C23.0661 26.9762 23.2411 26.8212 23.3611 26.7212C23.4811 26.6112 23.5611 26.5362 23.6011 26.4962H23.6461L24.2611 27.2012C24.1311 27.3912 23.9861 27.5562 23.8261 27.6962C23.6661 27.8262 23.5211 27.9562 23.3911 28.0862C22.8911 28.5462 22.4111 28.7762 21.9511 28.7762ZM26.2083 28.7612C26.0183 28.9712 25.8433 29.0362 25.6833 28.9562C25.5233 28.8862 25.4133 28.7262 25.3533 28.4762C25.3033 28.2362 25.3483 27.9612 25.4883 27.6512C25.5483 27.5012 25.6083 27.3662 25.6683 27.2462C25.7583 26.7662 25.8333 26.3812 25.8933 26.0912C25.9533 25.8012 26.0133 25.5462 26.0733 25.3262C26.1333 25.0962 26.1983 24.8462 26.2683 24.5762C26.3383 24.3062 26.4283 23.9562 26.5383 23.5262C26.6383 23.1562 26.7133 22.8662 26.7633 22.6562C26.8233 22.4362 26.8783 22.2212 26.9283 22.0112C26.9783 21.8012 27.0433 21.5312 27.1233 21.2012C27.2033 20.8612 27.2833 20.5312 27.3633 20.2112C27.4433 19.8912 27.5183 19.5712 27.5883 19.2512C27.3883 19.3312 27.1933 19.4162 27.0033 19.5062C26.8233 19.5862 26.6483 19.6612 26.4783 19.7312H26.4483L26.1933 18.5762H26.2233C26.4433 18.4962 26.6433 18.4162 26.8233 18.3362C27.0033 18.2462 27.1733 18.1712 27.3333 18.1112C27.4133 18.0712 27.4883 18.0362 27.5583 18.0062C27.6383 17.9762 27.6983 17.9462 27.7383 17.9162C27.9383 17.7762 28.0883 17.7112 28.1883 17.7212C28.2883 17.7312 28.3933 17.7812 28.5033 17.8712C28.5733 17.9112 28.6083 18.0712 28.6083 18.3512C28.6083 18.5812 28.5733 18.7712 28.5033 18.9212C28.4433 19.0612 28.4083 19.1412 28.3983 19.1612C28.3283 19.6512 28.2483 20.0862 28.1583 20.4662C28.0783 20.8362 27.9983 21.1812 27.9183 21.5012C27.8283 21.8812 27.7533 22.1812 27.6933 22.4012C27.6433 22.6212 27.5933 22.8362 27.5433 23.0462C27.4933 23.2462 27.4233 23.5062 27.3333 23.8262C27.2933 23.9962 27.2533 24.1562 27.2133 24.3062C27.1733 24.4562 27.1333 24.5962 27.0933 24.7262C27.4633 24.1862 27.8183 23.7012 28.1583 23.2712C28.5083 22.8412 28.9133 22.3812 29.3733 21.8912C29.7733 21.4612 30.1083 21.1612 30.3783 20.9912C30.6583 20.8112 30.9583 20.7262 31.2783 20.7362C31.4383 20.7462 31.5583 20.8262 31.6383 20.9762C31.7183 21.1262 31.7683 21.2812 31.7883 21.4412C31.8183 21.6012 31.8283 21.7112 31.8183 21.7712H31.8633C31.8833 21.8412 31.8933 21.9262 31.8933 22.0262C31.9033 22.1262 31.9083 22.2212 31.9083 22.3112C31.9083 22.4312 31.9033 22.5412 31.8933 22.6412C31.8933 22.7412 31.8883 22.8312 31.8783 22.9112C31.8683 23.3212 31.7083 23.7262 31.3983 24.1262C31.0883 24.5262 30.6783 24.8712 30.1683 25.1612H30.1533C30.5033 25.5612 30.8533 25.9912 31.2033 26.4512C31.5633 26.9112 31.9883 27.3062 32.4783 27.6362H32.4933L32.0733 28.6562H32.0283C31.7083 28.4462 31.4033 28.1862 31.1133 27.8762C30.8333 27.5662 30.5633 27.2412 30.3033 26.9012C30.0433 26.5612 29.7833 26.2462 29.5233 25.9562C29.4933 25.9262 29.4583 25.8862 29.4183 25.8362C29.3883 25.7762 29.3533 25.7162 29.3133 25.6562C29.3033 25.6662 29.2933 25.6762 29.2833 25.6862C29.2733 25.6862 29.2583 25.6912 29.2383 25.7012C29.1883 25.7312 29.0983 25.7812 28.9683 25.8512C28.8483 25.9212 28.7183 25.9712 28.5783 26.0012C28.4483 26.0212 28.3333 25.9812 28.2333 25.8812C28.1333 25.7712 28.0833 25.5612 28.0833 25.2512C28.0833 25.1112 28.0983 24.9962 28.1283 24.9062C27.9783 25.1062 27.8283 25.3162 27.6783 25.5362C27.5283 25.7562 27.3733 25.9962 27.2133 26.2562C27.0933 26.4462 26.9933 26.6062 26.9133 26.7362C26.8333 26.8662 26.7583 27.0062 26.6883 27.1562C26.6183 27.2962 26.5333 27.4762 26.4333 27.6962V27.7412C26.4233 28.0212 26.4033 28.2362 26.3733 28.3862C26.3433 28.5362 26.2883 28.6612 26.2083 28.7612ZM28.5183 24.3962C28.5383 24.3762 28.5583 24.3662 28.5783 24.3662H28.5633C28.6733 24.2762 28.7533 24.2162 28.8033 24.1862C28.8533 24.1462 28.9333 24.1262 29.0433 24.1262C29.1833 24.1262 29.3183 24.1812 29.4483 24.2912C29.5083 24.2612 29.5633 24.2312 29.6133 24.2012C29.6733 24.1612 29.7233 24.1312 29.7633 24.1112C30.1033 23.9112 30.4033 23.7012 30.6633 23.4812C30.9233 23.2612 31.0583 23.0562 31.0683 22.8662C31.0683 22.7562 31.0733 22.6562 31.0833 22.5662C31.0933 22.4762 31.0983 22.3912 31.0983 22.3112C31.0983 22.2512 31.0933 22.2062 31.0833 22.1762C31.0833 22.1362 31.0783 22.0962 31.0683 22.0562H31.0833C30.9533 21.9962 30.8083 22.0162 30.6483 22.1162C30.4883 22.2062 30.2633 22.4062 29.9733 22.7162C29.6733 23.0362 29.4033 23.3312 29.1633 23.6012C28.9333 23.8712 28.7183 24.1362 28.5183 24.3962ZM35.601 19.5812L35.181 18.2762H35.196C35.426 18.1662 35.646 18.0462 35.856 17.9162C36.066 17.7762 36.321 17.7062 36.621 17.7062H36.651V19.1762H36.621C36.411 19.1762 36.246 19.2162 36.126 19.2962C36.016 19.3762 35.856 19.4712 35.646 19.5812H35.601ZM34.371 28.4162C34.251 28.5262 34.121 28.5912 33.981 28.6112C33.841 28.6412 33.721 28.5962 33.621 28.4762C33.531 28.3462 33.486 28.1112 33.486 27.7712C33.486 27.4212 33.526 27.0912 33.606 26.7812C33.696 26.4712 33.761 26.2262 33.801 26.0462C33.901 25.6062 33.981 25.2412 34.041 24.9512C34.111 24.6512 34.176 24.3812 34.236 24.1412C34.296 23.9012 34.361 23.6462 34.431 23.3762C34.501 23.1062 34.591 22.7762 34.701 22.3862C34.711 22.3562 34.716 22.3312 34.716 22.3112C34.726 22.2812 34.736 22.2512 34.746 22.2212C34.426 22.3312 34.136 22.3862 33.876 22.3862V21.1712C34.056 21.1712 34.221 21.1512 34.371 21.1112C34.531 21.0712 34.751 20.9962 35.031 20.8862C35.281 20.7862 35.441 20.7212 35.511 20.6912C35.581 20.6612 35.666 20.6862 35.766 20.7662C35.886 20.8762 35.901 21.0912 35.811 21.4112C35.721 21.7212 35.596 22.1562 35.436 22.7162C35.316 23.1362 35.216 23.4862 35.136 23.7662C35.066 24.0462 35.001 24.3062 34.941 24.5462C34.881 24.7762 34.821 25.0312 34.761 25.3112C34.711 25.5812 34.641 25.9162 34.551 26.3162C34.511 26.4662 34.471 26.6162 34.431 26.7662C34.391 26.9162 34.356 27.0612 34.326 27.2012C34.506 27.1112 34.676 27.0312 34.836 26.9612C34.996 26.8912 35.136 26.8162 35.256 26.7362L35.661 27.7562C35.381 27.9362 35.131 28.0762 34.911 28.1762C34.691 28.2662 34.511 28.3462 34.371 28.4162ZM41.128 28.6862C40.988 28.7562 40.858 28.7512 40.738 28.6712C40.628 28.5912 40.553 28.4712 40.513 28.3112C40.473 28.1512 40.498 27.9912 40.588 27.8312C40.678 27.6612 40.743 27.5462 40.783 27.4862C40.833 27.4162 40.863 27.3612 40.873 27.3212C40.933 27.0712 40.998 26.8362 41.068 26.6162C41.138 26.3962 41.208 26.1862 41.278 25.9862C41.418 25.5762 41.553 25.2212 41.683 24.9212C41.823 24.6112 41.943 24.3262 42.043 24.0662C42.153 23.8062 42.238 23.5412 42.298 23.2712C42.368 22.9912 42.403 22.6712 42.403 22.3112C42.403 22.2612 42.383 22.2212 42.343 22.1912C42.303 22.1512 42.213 22.0712 42.073 21.9512C42.013 22.0212 41.923 22.1312 41.803 22.2812C41.683 22.4312 41.543 22.6012 41.383 22.7912C40.973 23.2512 40.623 23.6512 40.333 23.9912C40.053 24.3212 39.798 24.6512 39.568 24.9812C39.338 25.3112 39.088 25.7112 38.818 26.1812C38.648 26.4912 38.483 26.7712 38.323 27.0212C38.163 27.2712 38.028 27.4962 37.918 27.6962C37.848 27.8262 37.798 27.9212 37.768 27.9812C37.748 28.0312 37.728 28.0712 37.708 28.1012C37.698 28.1412 37.693 28.1762 37.693 28.2062C37.693 28.2362 37.693 28.2712 37.693 28.3112C37.673 28.5012 37.593 28.6312 37.453 28.7012C37.323 28.7712 37.193 28.7712 37.063 28.7012C36.943 28.6412 36.883 28.5112 36.883 28.3112V28.2212C36.863 28.1512 36.863 28.0562 36.883 27.9362C36.893 27.8962 36.898 27.8612 36.898 27.8312C36.908 27.8012 36.918 27.7712 36.928 27.7412C36.968 27.5112 37.023 27.2912 37.093 27.0812C37.163 26.8612 37.218 26.6712 37.258 26.5112C37.488 25.7812 37.728 25.0762 37.978 24.3962C38.238 23.7162 38.488 23.0712 38.728 22.4612C38.758 22.3812 38.798 22.2762 38.848 22.1462C38.898 22.0162 38.943 21.8862 38.983 21.7562H38.968C38.888 21.8162 38.763 21.9312 38.593 22.1012C38.423 22.2612 38.238 22.4412 38.038 22.6412C37.838 22.8312 37.648 22.9962 37.468 23.1362C37.298 23.2762 37.168 23.3462 37.078 23.3462H37.048V22.4462H37.078C37.088 22.4462 37.158 22.3812 37.288 22.2512C37.418 22.1212 37.568 21.9712 37.738 21.8012C37.918 21.6212 38.083 21.4612 38.233 21.3212C38.383 21.1812 38.478 21.0962 38.518 21.0662C38.808 20.8762 39.028 20.7312 39.178 20.6312C39.338 20.5312 39.463 20.4812 39.553 20.4812C39.653 20.4812 39.758 20.5412 39.868 20.6612C39.978 20.7712 40.033 20.9012 40.033 21.0512C40.043 21.2012 40.023 21.3412 39.973 21.4712C39.933 21.6012 39.893 21.6912 39.853 21.7412H39.868C39.828 21.9012 39.793 22.0362 39.763 22.1462C39.733 22.2462 39.698 22.3512 39.658 22.4612C39.628 22.5712 39.578 22.7162 39.508 22.8962C39.388 23.1962 39.268 23.4912 39.148 23.7812C39.038 24.0712 38.928 24.3612 38.818 24.6512C39.118 24.1412 39.418 23.6812 39.718 23.2712C40.018 22.8512 40.373 22.4212 40.783 21.9812C40.823 21.9312 40.898 21.8412 41.008 21.7112C41.118 21.5712 41.243 21.4212 41.383 21.2612C41.523 21.0912 41.658 20.9462 41.788 20.8262C41.918 20.7062 42.018 20.6462 42.088 20.6462H42.118L42.418 20.8712C42.498 20.9412 42.598 21.0362 42.718 21.1562C42.848 21.2762 42.963 21.4312 43.063 21.6212C43.163 21.8012 43.213 22.0312 43.213 22.3112C43.213 22.9312 43.148 23.4662 43.018 23.9162C42.888 24.3562 42.733 24.7662 42.553 25.1462C42.373 25.5262 42.203 25.9412 42.043 26.3912C41.953 26.6312 41.878 26.8812 41.818 27.1412C41.818 27.1412 41.828 27.1612 41.848 27.2012C41.898 27.0412 41.983 26.8462 42.103 26.6162C42.223 26.3862 42.348 26.1662 42.478 25.9562C42.618 25.7462 42.733 25.5912 42.823 25.4912C42.923 25.3812 42.973 25.3812 42.973 25.4912H43.723C43.723 25.5912 43.678 25.7462 43.588 25.9562C43.498 26.1662 43.388 26.3862 43.258 26.6162C43.128 26.8462 43.003 27.0412 42.883 27.2012C42.773 27.3612 42.688 27.4512 42.628 27.4712C42.618 27.6612 42.558 27.8112 42.448 27.9212C42.348 28.0312 42.193 28.1412 41.983 28.2512C41.773 28.3512 41.488 28.4962 41.128 28.6862ZM45.0702 31.7012C45.0102 31.7012 44.9552 31.6962 44.9052 31.6862C44.8552 31.6862 44.7952 31.6812 44.7252 31.6712C44.1852 31.6112 43.7402 31.3862 43.3902 30.9962C43.0302 30.6162 42.8502 30.1562 42.8502 29.6162H43.6752C43.6752 29.8162 43.7902 29.9962 44.0202 30.1562C44.2402 30.3262 44.5102 30.4312 44.8302 30.4712C44.8602 30.4812 44.8952 30.4862 44.9352 30.4862C44.9852 30.4862 45.0302 30.4862 45.0702 30.4862C45.3002 30.4862 45.5352 30.4662 45.7752 30.4262C46.0152 30.3862 46.2302 30.3512 46.4202 30.3212C47.1202 30.2312 47.6552 30.0862 48.0252 29.8862C48.3952 29.6862 48.6752 29.4462 48.8652 29.1662C49.0652 28.8962 49.2452 28.6162 49.4052 28.3262C49.6552 27.8862 49.8502 27.3762 49.9902 26.7962C50.1402 26.2062 50.2552 25.6012 50.3352 24.9812C50.4252 24.3512 50.4952 23.7662 50.5452 23.2262C50.5452 23.1762 50.5452 23.1212 50.5452 23.0612C50.5552 22.9912 50.5602 22.9212 50.5602 22.8512C50.5602 22.7412 50.5552 22.6362 50.5452 22.5362C50.5452 22.4362 50.5402 22.3362 50.5302 22.2362C50.4402 22.4962 50.2952 22.7712 50.0952 23.0612C49.7652 23.5312 49.4252 24.0062 49.0752 24.4862C48.7252 24.9662 48.3502 25.4212 47.9502 25.8512C47.7302 26.0912 47.5002 26.3212 47.2602 26.5412C47.0302 26.7512 46.8202 26.9812 46.6302 27.2312C46.6202 27.2512 46.5652 27.3262 46.4652 27.4562C46.3652 27.5762 46.2402 27.7112 46.0902 27.8612C45.9502 28.0112 45.8002 28.1462 45.6402 28.2662C45.4902 28.3762 45.3552 28.4312 45.2352 28.4312C45.1452 28.4312 45.0702 28.4012 45.0102 28.3412C44.8502 28.1812 44.7702 27.8062 44.7702 27.2162C44.7702 26.9262 44.7852 26.6412 44.8152 26.3612C44.8452 26.0812 44.8702 25.8712 44.8902 25.7312C44.9502 25.3512 45.0252 24.9212 45.1152 24.4412C45.2052 23.9612 45.3302 23.4812 45.4902 23.0012C45.6502 22.5112 45.8552 22.0662 46.1052 21.6662C46.3552 21.2662 46.6702 20.9612 47.0502 20.7512C47.1202 20.7112 47.2002 20.6912 47.2902 20.6912C47.4502 20.6912 47.6352 20.7312 47.8452 20.8112C48.0552 20.8912 48.2502 20.9812 48.4302 21.0812C48.6202 21.1712 48.7552 21.2362 48.8352 21.2762C48.9652 21.3462 49.1252 21.4212 49.3152 21.5012C49.5152 21.5812 49.6652 21.6912 49.7652 21.8312C49.8052 21.7112 49.8252 21.5112 49.8252 21.2312V21.0362C49.8252 20.8162 49.8952 20.6512 50.0352 20.5412C50.1852 20.4212 50.3502 20.3562 50.5302 20.3462C50.7202 20.3262 50.8852 20.3662 51.0252 20.4662C51.1752 20.5662 51.2502 20.7262 51.2502 20.9462C51.2502 21.1962 51.2702 21.4812 51.3102 21.8012C51.3502 22.1212 51.3702 22.4712 51.3702 22.8512C51.3702 22.9312 51.3702 23.0162 51.3702 23.1062C51.3702 23.1962 51.3652 23.2712 51.3552 23.3312C51.2952 23.9412 51.2152 24.5812 51.1152 25.2512C51.0152 25.9212 50.8902 26.5662 50.7402 27.1862C50.5902 27.7962 50.4002 28.3162 50.1702 28.7462C50.0502 28.9762 49.9102 29.2312 49.7502 29.5112C49.5902 29.8012 49.3802 30.0812 49.1202 30.3512C48.8602 30.6312 48.5202 30.8762 48.1002 31.0862C47.6902 31.2962 47.1652 31.4412 46.5252 31.5212C46.3052 31.5512 46.0652 31.5862 45.8052 31.6262C45.5552 31.6762 45.3102 31.7012 45.0702 31.7012ZM47.4402 21.8012H47.4252C47.4252 21.8112 47.4302 21.8112 47.4402 21.8012ZM47.4252 21.8162C47.4252 21.8162 47.4202 21.8162 47.4102 21.8162C47.4202 21.8162 47.4252 21.8162 47.4252 21.8162ZM47.4102 21.8312C47.4102 21.8212 47.4052 21.8212 47.3952 21.8312H47.4102ZM45.5952 26.9462C45.6652 26.8762 45.7302 26.8062 45.7902 26.7362C45.8602 26.6562 45.9252 26.5762 45.9852 26.4962C46.2952 26.0862 46.5602 25.7812 46.7802 25.5812C47.0002 25.3712 47.1902 25.1812 47.3502 25.0112C47.7902 24.5412 48.1752 24.0812 48.5052 23.6312C48.8452 23.1812 49.1552 22.7562 49.4352 22.3562C49.5152 22.2362 49.5802 22.1462 49.6302 22.0862C49.6802 22.0162 49.7202 21.9462 49.7502 21.8762L49.1652 22.5662C49.2252 22.6362 49.1952 22.6562 49.0752 22.6262C48.9552 22.5962 48.7502 22.5062 48.4602 22.3562C48.4302 22.3362 48.3402 22.2912 48.1902 22.2212C48.0502 22.1412 47.8952 22.0712 47.7252 22.0112C47.5552 21.9412 47.4102 21.9062 47.2902 21.9062H47.3052C47.3252 21.8862 47.3402 21.8712 47.3502 21.8612C47.3602 21.8512 47.3652 21.8462 47.3652 21.8462C47.0652 22.0262 46.8152 22.2762 46.6152 22.5962C46.4152 22.9162 46.2452 23.3412 46.1052 23.8712C45.9652 24.4012 45.8302 25.0812 45.7002 25.9112C45.6702 26.0712 45.6452 26.2412 45.6252 26.4212C45.6152 26.6012 45.6052 26.7762 45.5952 26.9462ZM55.0759 28.8962C54.7859 28.8962 54.5059 28.8362 54.2359 28.7162C53.9659 28.5962 53.7109 28.4862 53.4709 28.3862C53.4109 28.3662 53.3309 28.3462 53.2309 28.3262C53.1409 28.3062 53.0509 28.2762 52.9609 28.2362H52.9309L52.9159 27.9812H52.9309C52.9209 27.9712 52.9059 27.9562 52.8859 27.9362C52.8659 27.9162 52.8459 27.9012 52.8259 27.8912L52.7209 27.7412C52.7309 27.7112 52.7459 27.6712 52.7659 27.6212C52.7859 27.5612 52.8059 27.4962 52.8259 27.4262C52.9259 27.1162 52.9859 26.7912 53.0059 26.4512C53.0359 26.1012 53.0859 25.7462 53.1559 25.3862C53.2659 24.8762 53.3559 24.4462 53.4259 24.0962C53.4959 23.7462 53.5559 23.4262 53.6059 23.1362C53.6559 22.8362 53.7109 22.5162 53.7709 22.1762C53.8409 21.8262 53.9259 21.3962 54.0259 20.8862L54.4009 19.0412C54.1109 19.0512 53.8209 19.0612 53.5309 19.0712C53.2409 19.0812 53.0259 19.0862 52.8859 19.0862H52.8559V17.8712H52.8859C52.9359 17.8712 53.0459 17.8712 53.2159 17.8712C53.3859 17.8612 53.5759 17.8562 53.7859 17.8562C53.9959 17.8462 54.1809 17.8412 54.3409 17.8412L55.1209 18.1412H55.1359L55.2259 19.0412L55.2109 19.2062C55.1909 19.3162 55.1509 19.5362 55.0909 19.8662C55.0309 20.1862 54.9459 20.6062 54.8359 21.1262C54.7359 21.5962 54.6559 21.9962 54.5959 22.3262C54.5359 22.6462 54.4809 22.9412 54.4309 23.2112C54.3809 23.4812 54.3309 23.7612 54.2809 24.0512C54.2309 24.3312 54.1659 24.6612 54.0859 25.0412C54.1359 24.9412 54.1859 24.8462 54.2359 24.7562C54.2859 24.6562 54.3359 24.5562 54.3859 24.4562C54.6859 23.9262 54.9909 23.3962 55.3009 22.8662C55.6109 22.3362 55.9459 21.8312 56.3059 21.3512C56.5059 21.0912 56.6459 20.8962 56.7259 20.7662C56.8159 20.6362 56.8859 20.5562 56.9359 20.5262C56.9959 20.4862 57.0609 20.4812 57.1309 20.5112C57.3409 20.5912 57.5559 20.6762 57.7759 20.7662C58.0059 20.8462 58.2209 20.9562 58.4209 21.0962C58.6209 21.2362 58.7909 21.4412 58.9309 21.7112C59.0509 21.9312 59.1109 22.2212 59.1109 22.5812C59.1109 22.8312 59.0859 23.0862 59.0359 23.3462C58.9859 23.5962 58.9359 23.8212 58.8859 24.0212C58.8159 24.3312 58.6959 24.6962 58.5259 25.1162C58.3659 25.5362 58.1609 25.9662 57.9109 26.4062C57.6609 26.8462 57.3859 27.2562 57.0859 27.6362C56.7859 28.0062 56.4609 28.3062 56.1109 28.5362C55.7709 28.7762 55.4259 28.8962 55.0759 28.8962ZM55.0759 27.6812C55.3559 27.6812 55.6259 27.5912 55.8859 27.4112C56.1559 27.2212 56.4109 26.9762 56.6509 26.6762C56.8909 26.3762 57.1109 26.0512 57.3109 25.7012C57.5109 25.3512 57.6759 25.0062 57.8059 24.6662C57.9459 24.3262 58.0409 24.0262 58.0909 23.7662C58.1409 23.5062 58.1859 23.2812 58.2259 23.0912C58.2759 22.9012 58.3009 22.7312 58.3009 22.5812V22.4312C58.2909 22.4112 58.2759 22.3912 58.2559 22.3712C58.2459 22.3512 58.2309 22.3212 58.2109 22.2812C58.1709 22.2012 58.0659 22.1262 57.8959 22.0562C57.7259 21.9762 57.5009 21.8862 57.2209 21.7862C56.9709 22.1262 56.7109 22.4962 56.4409 22.8962C56.1809 23.2862 55.9309 23.6712 55.6909 24.0512C55.4609 24.4212 55.2609 24.7562 55.0909 25.0562C54.9609 25.2962 54.8509 25.5012 54.7609 25.6712C54.6809 25.8312 54.6109 25.9812 54.5509 26.1212C54.4309 26.4212 54.3009 26.6562 54.1609 26.8262C54.0209 26.9962 53.8809 27.1062 53.7409 27.1562C53.7409 27.1962 53.7359 27.2262 53.7259 27.2462C53.7359 27.2562 53.7459 27.2612 53.7559 27.2612C53.7659 27.2612 53.7759 27.2662 53.7859 27.2762C53.9759 27.3462 54.1809 27.4312 54.4009 27.5312C54.6209 27.6312 54.8459 27.6812 55.0759 27.6812ZM61.7485 19.5812L61.3285 18.2762H61.3435C61.5735 18.1662 61.7935 18.0462 62.0035 17.9162C62.2135 17.7762 62.4685 17.7062 62.7685 17.7062H62.7985V19.1762H62.7685C62.5585 19.1762 62.3935 19.2162 62.2735 19.2962C62.1635 19.3762 62.0035 19.4712 61.7935 19.5812H61.7485ZM60.5185 28.4162C60.3985 28.5262 60.2685 28.5912 60.1285 28.6112C59.9885 28.6412 59.8685 28.5962 59.7685 28.4762C59.6785 28.3462 59.6335 28.1112 59.6335 27.7712C59.6335 27.4212 59.6735 27.0912 59.7535 26.7812C59.8435 26.4712 59.9085 26.2262 59.9485 26.0462C60.0485 25.6062 60.1285 25.2412 60.1885 24.9512C60.2585 24.6512 60.3235 24.3812 60.3835 24.1412C60.4435 23.9012 60.5085 23.6462 60.5785 23.3762C60.6485 23.1062 60.7385 22.7762 60.8485 22.3862C60.8585 22.3562 60.8635 22.3312 60.8635 22.3112C60.8735 22.2812 60.8835 22.2512 60.8935 22.2212C60.5735 22.3312 60.2835 22.3862 60.0235 22.3862V21.1712C60.2035 21.1712 60.3685 21.1512 60.5185 21.1112C60.6785 21.0712 60.8985 20.9962 61.1785 20.8862C61.4285 20.7862 61.5885 20.7212 61.6585 20.6912C61.7285 20.6612 61.8135 20.6862 61.9135 20.7662C62.0335 20.8762 62.0485 21.0912 61.9585 21.4112C61.8685 21.7212 61.7435 22.1562 61.5835 22.7162C61.4635 23.1362 61.3635 23.4862 61.2835 23.7662C61.2135 24.0462 61.1485 24.3062 61.0885 24.5462C61.0285 24.7762 60.9685 25.0312 60.9085 25.3112C60.8585 25.5812 60.7885 25.9162 60.6985 26.3162C60.6585 26.4662 60.6185 26.6162 60.5785 26.7662C60.5385 26.9162 60.5035 27.0612 60.4735 27.2012C60.6535 27.1112 60.8235 27.0312 60.9835 26.9612C61.1435 26.8912 61.2835 26.8162 61.4035 26.7362L61.8085 27.7562C61.5285 27.9362 61.2785 28.0762 61.0585 28.1762C60.8385 28.2662 60.6585 28.3462 60.5185 28.4162ZM63.3905 29.0312L62.5805 28.7312H62.5655C62.5455 28.6712 62.5355 28.6262 62.5355 28.5962C62.5355 28.4362 62.5905 28.2712 62.7005 28.1012C62.8105 27.9212 62.9205 27.7662 63.0305 27.6362C63.1405 27.4962 63.2005 27.4062 63.2105 27.3662C63.2905 27.0462 63.3705 26.7462 63.4505 26.4662C63.5405 26.1762 63.6105 25.9062 63.6605 25.6562C63.7405 25.2962 63.8305 24.9762 63.9305 24.6962C64.0405 24.4062 64.1305 24.1362 64.2005 23.8862C64.2605 23.6862 64.3155 23.4862 64.3655 23.2862C64.4255 23.0762 64.4855 22.8762 64.5455 22.6862C63.9955 23.1662 63.6755 23.4262 63.5855 23.4662H63.5555L63.2105 22.3862H63.2255C63.3255 22.3362 63.4655 22.2362 63.6455 22.0862C63.8355 21.9262 64.1155 21.6812 64.4855 21.3512C64.6555 21.2012 64.8055 21.0812 64.9355 20.9912C65.0655 20.8912 65.1955 20.8112 65.3255 20.7512C65.5155 20.6612 65.6405 20.6512 65.7005 20.7212C65.7705 20.7912 65.8705 20.9112 66.0005 21.0812C66.1305 21.2612 66.1855 21.4012 66.1655 21.5012C66.1555 21.6012 66.1155 21.6662 66.0455 21.6962C65.9755 21.7262 65.9205 21.7312 65.8805 21.7112C65.7105 22.0412 65.5655 22.3762 65.4455 22.7162C65.3455 22.9762 65.2605 23.2312 65.1905 23.4812C65.1305 23.7312 65.0655 23.9762 64.9955 24.2162C64.9255 24.4662 64.8555 24.6962 64.7855 24.9062C64.7155 25.1062 64.6455 25.3012 64.5755 25.4912C64.8355 25.1312 65.0955 24.7962 65.3555 24.4862C65.6155 24.1662 65.8405 23.8512 66.0305 23.5412C66.1005 23.4312 66.2105 23.2562 66.3605 23.0162C66.5105 22.7762 66.6805 22.5212 66.8705 22.2512C67.0705 21.9812 67.2605 21.7412 67.4405 21.5312C67.6205 21.3112 67.7755 21.1812 67.9055 21.1412C68.0255 21.1012 68.1255 21.0712 68.2055 21.0512C68.2955 21.0312 68.3855 21.0212 68.4755 21.0212C68.5655 21.0212 68.6555 21.0312 68.7455 21.0512C68.8355 21.0712 68.9605 21.1062 69.1205 21.1562H69.1505L68.9405 22.3112L68.1755 22.2812C68.0455 22.3212 67.8755 22.4862 67.6655 22.7762C67.4655 23.0562 67.1505 23.5312 66.7205 24.2012C66.3805 24.7412 66.0305 25.2262 65.6705 25.6562C65.3105 26.0762 65.0005 26.4962 64.7405 26.9162L63.9455 27.9362C63.9355 27.9962 63.9205 28.0512 63.9005 28.1012C63.8905 28.1412 63.8805 28.1812 63.8705 28.2212L63.8555 28.2062C63.8555 28.3962 63.8105 28.5812 63.7205 28.7612C63.6405 28.9412 63.5355 29.0312 63.4055 29.0312H63.3905ZM71.2253 28.9112C71.1353 28.9112 71.0453 28.8662 70.9553 28.7762C70.8753 28.6962 70.8053 28.6062 70.7453 28.5062C70.6953 28.4062 70.6553 28.3312 70.6253 28.2812C70.4653 27.9912 70.3103 27.7112 70.1603 27.4412C70.0203 27.1712 69.8753 26.8862 69.7253 26.5862C69.4253 26.0362 69.2753 25.3962 69.2753 24.6662C69.2753 24.0062 69.4103 23.3812 69.6803 22.7912C69.7903 22.5512 69.9103 22.3462 70.0403 22.1762C70.1803 22.0062 70.3153 21.8362 70.4453 21.6662C70.6353 21.4062 70.7953 21.2012 70.9253 21.0512C71.0653 20.8912 71.2053 20.7612 71.3453 20.6612C71.3953 20.6112 71.4853 20.5862 71.6153 20.5862C71.7653 20.5862 71.9453 20.6262 72.1553 20.7062C72.3753 20.7762 72.5953 20.8662 72.8153 20.9762C73.0353 21.0762 73.2303 21.1662 73.4003 21.2462C73.5803 21.3162 73.7103 21.3512 73.7903 21.3512H73.8203V22.5662H73.7903C73.6803 22.5662 73.5303 22.5312 73.3403 22.4612C73.1503 22.3812 72.9453 22.2912 72.7253 22.1912C72.5053 22.0812 72.2953 21.9862 72.0953 21.9062C71.9053 21.8262 71.7453 21.7862 71.6153 21.7862C71.5053 21.8762 71.4103 21.9662 71.3303 22.0562C71.2603 22.1462 71.1553 22.2962 71.0153 22.5062C70.8453 22.7362 70.7103 22.9062 70.6103 23.0162C70.5203 23.1262 70.4553 23.2212 70.4153 23.3012C70.2953 23.5612 70.2103 23.7962 70.1603 24.0062C70.1203 24.2062 70.1003 24.4262 70.1003 24.6662C70.1003 24.9062 70.1203 25.1162 70.1603 25.2962C70.2003 25.4662 70.2653 25.6462 70.3553 25.8362C70.4353 26.0162 70.5553 26.2612 70.7153 26.5712C70.8853 26.8712 71.0503 27.1712 71.2103 27.4712C71.4603 27.1112 71.6703 26.7312 71.8403 26.3312C72.0203 25.9312 72.2203 25.5212 72.4403 25.1012C72.6603 24.6512 72.8303 24.3412 72.9503 24.1712C73.0803 23.9912 73.1453 23.9712 73.1453 24.1112H73.7003C73.8103 23.4312 73.9353 22.7612 74.0753 22.1012C74.2153 21.4312 74.3853 20.7162 74.5853 19.9562C74.6053 19.8862 74.6403 19.7512 74.6903 19.5512C74.7503 19.3412 74.8153 19.1412 74.8853 18.9512H73.6703C73.6703 18.9512 73.6403 18.9612 73.5803 18.9812C73.5303 18.9912 73.4803 18.9812 73.4303 18.9512C73.3803 18.9212 73.3553 18.8412 73.3553 18.7112C73.3753 18.6812 73.3603 18.6262 73.3103 18.5462C73.2603 18.4562 73.2153 18.3612 73.1753 18.2612C73.1453 18.1512 73.1603 18.0512 73.2203 17.9612C73.2803 17.8612 73.4303 17.7912 73.6703 17.7512C73.9003 17.7012 74.1403 17.6912 74.3903 17.7212C74.6503 17.7412 74.8903 17.7512 75.1103 17.7512H75.1553L75.2903 18.0512H75.2753C75.5453 18.1112 75.7053 18.2262 75.7553 18.3962C75.8153 18.5562 75.8053 18.7862 75.7253 19.0862C75.6453 19.3862 75.5303 19.7762 75.3803 20.2562C75.1803 20.9162 75.0253 21.5662 74.9153 22.2062C74.8153 22.8362 74.7203 23.5062 74.6303 24.2162C74.5403 24.9162 74.4103 25.7112 74.2403 26.6012C74.2203 26.6812 74.2053 26.7712 74.1953 26.8712C74.1853 26.9612 74.1753 27.0462 74.1653 27.1262C74.3153 26.9462 74.4803 26.7562 74.6603 26.5562C74.8403 26.3462 75.0053 26.1612 75.1553 26.0012C75.3053 25.8412 75.4053 25.7362 75.4553 25.6862H75.5003L76.0253 26.3762C75.9053 26.5062 75.7353 26.6962 75.5153 26.9462C75.3053 27.1962 75.0853 27.4562 74.8553 27.7262C74.6253 27.9962 74.4253 28.2262 74.2553 28.4162C74.0953 28.6062 74.0003 28.7012 73.9703 28.7012C73.5403 28.7512 73.3253 28.3562 73.3253 27.5162C73.3253 27.2662 73.3403 27.0262 73.3703 26.7962C73.4003 26.5662 73.4203 26.4162 73.4303 26.3462C73.4503 26.0862 73.4753 25.8412 73.5053 25.6112C73.5353 25.3712 73.5653 25.1362 73.5953 24.9062C73.4953 25.0962 73.3903 25.2762 73.2803 25.4462C73.1803 25.6162 73.1253 25.7162 73.1153 25.7462C72.9553 26.0662 72.7853 26.4212 72.6053 26.8112C72.4253 27.2012 72.2253 27.5862 72.0053 27.9662C71.7953 28.3362 71.5503 28.6512 71.2703 28.9112H71.2253Z" fill="#6B6B6B"/>
</svg>
