<svg width="41" height="14" viewBox="0 0 41 14" fill="none" xmlns="http://www.w3.org/2000/svg">
<path d="M10.0595 13.7762C8.7128 13.7762 7.3528 13.3829 5.97947 12.5962C5.13947 12.9829 4.33947 13.1762 3.57947 13.1762C2.84614 13.1762 2.12614 13.0162 1.41947 12.6962C0.566137 12.2829 0.13947 11.7495 0.13947 11.0962C0.13947 10.6429 0.31947 10.2762 0.67947 9.9962C1.0128 9.74286 1.4128 9.6162 1.87947 9.6162C2.99947 9.6162 4.03947 10.0495 4.99947 10.9162C5.23947 11.1429 5.4528 11.3362 5.63947 11.4962C5.82614 11.6562 5.98614 11.7895 6.11947 11.8962C6.75947 11.3762 7.38614 10.6029 7.99947 9.5762C8.2528 9.1362 8.49947 8.6962 8.73947 8.2562C8.97947 7.8162 9.21947 7.3762 9.45947 6.9362C8.28614 6.8562 7.2528 6.56953 6.35947 6.0762C5.2128 5.44953 4.63947 4.62286 4.63947 3.5962C4.63947 2.7962 4.91947 2.1162 5.47947 1.5562C6.03947 0.996196 6.71947 0.716196 7.51947 0.716196C8.02614 0.716196 8.46614 0.842863 8.83947 1.0962C9.2528 1.40286 9.45947 1.7962 9.45947 2.2762C9.45947 2.46286 9.39947 2.5562 9.27947 2.5562C9.22614 2.5562 9.19947 2.44953 9.19947 2.2362C9.19947 2.20953 9.1928 2.16953 9.17947 2.1162C9.16614 2.06286 9.14614 1.9962 9.11947 1.9162C8.87947 1.2362 8.3528 0.896195 7.53947 0.896195C6.8728 0.896195 6.2928 1.18286 5.79947 1.7562C5.31947 2.3162 5.07947 2.92953 5.07947 3.5962C5.07947 4.5562 5.6128 5.32953 6.67947 5.9162C7.51947 6.38286 8.48614 6.64953 9.57947 6.7162C10.0061 5.96953 10.4395 5.28953 10.8795 4.6762C11.3328 4.04953 11.7861 3.48286 12.2395 2.9762C13.5995 1.48286 14.8328 0.736196 15.9395 0.736196C16.3261 0.736196 16.6528 0.822863 16.9195 0.996196C17.2261 1.1962 17.3795 1.4762 17.3795 1.8362C17.3795 2.3562 17.0728 2.9962 16.4595 3.7562C16.2328 4.0362 15.9861 4.30286 15.7195 4.5562C15.4528 4.80953 15.1661 5.04953 14.8595 5.2762C14.6061 5.4762 14.3395 5.6562 14.0595 5.8162C13.7928 5.9762 13.5128 6.12953 13.2195 6.2762C12.5795 6.58286 11.8528 6.78286 11.0395 6.8762C10.4795 8.1562 9.8928 9.18286 9.27947 9.9562C8.54614 10.8895 7.6528 11.6562 6.59947 12.2562C7.83947 13.1362 9.0328 13.5762 10.1795 13.5762C10.7928 13.5762 11.3261 13.4562 11.7795 13.2162C12.3395 12.9095 12.6195 12.4762 12.6195 11.9162C12.6195 11.8362 12.6461 11.7962 12.6995 11.7962C12.7528 11.7962 12.7795 11.8429 12.7795 11.9362V11.9962C12.7795 12.5829 12.5328 13.0229 12.0395 13.3162C11.5595 13.6229 10.8995 13.7762 10.0595 13.7762ZM11.1595 6.6162C11.4928 6.56286 11.8195 6.4962 12.1395 6.4162C12.4595 6.3362 12.7728 6.2362 13.0795 6.1162C13.3461 6.00953 13.6061 5.88286 13.8595 5.7362C14.1128 5.58953 14.3661 5.42286 14.6195 5.2362C15.1928 4.80953 15.7128 4.30286 16.1795 3.7162C16.7928 2.98286 17.0995 2.3562 17.0995 1.8362C17.0995 1.40953 16.8795 1.1962 16.4395 1.1962C16.0795 1.1962 15.6528 1.32286 15.1595 1.5762C14.3728 1.98953 13.6661 2.5762 13.0395 3.3362C12.4128 4.0962 11.8595 5.02286 11.3795 6.1162L11.1595 6.6162ZM3.37947 12.9162C4.17947 12.9162 4.89947 12.7229 5.53947 12.3362C5.1928 12.1095 4.84614 11.8829 4.49947 11.6562C4.1528 11.4295 3.80614 11.2095 3.45947 10.9962C2.4728 10.3829 1.74614 10.0762 1.27947 10.0762C0.67947 10.0762 0.37947 10.3495 0.37947 10.8962C0.37947 11.4295 0.672804 11.8962 1.25947 12.2962C1.7528 12.6295 2.28614 12.8295 2.85947 12.8962C2.9528 12.9095 3.03947 12.9162 3.11947 12.9162C3.2128 12.9162 3.29947 12.9162 3.37947 12.9162ZM15.7043 12.6562C15.1176 12.6562 14.671 12.4029 14.3643 11.8962C14.0843 11.4695 13.9443 10.9495 13.9443 10.3362C13.9443 9.28286 14.2776 8.30286 14.9443 7.3962C15.6776 6.40953 16.5576 5.9162 17.5843 5.9162C18.1043 5.9162 18.5043 6.0962 18.7843 6.4562C19.051 6.80286 19.1843 7.24286 19.1843 7.7762C19.1843 8.0162 19.1576 8.26286 19.1043 8.5162C19.0643 8.76953 18.9976 9.0362 18.9043 9.3162C18.7043 9.90286 18.4576 10.3629 18.1643 10.6962L18.2043 10.7562C18.3376 10.8495 18.4976 10.8962 18.6843 10.8962C19.071 10.8962 19.3976 10.7695 19.6643 10.5162C19.931 10.2629 20.231 9.80953 20.5643 9.1562C20.5776 9.10286 20.6043 9.0762 20.6443 9.0762C20.671 9.0762 20.691 9.0962 20.7043 9.1362C20.7176 9.16286 20.711 9.20286 20.6843 9.2562C20.4043 9.84286 20.1043 10.2895 19.7843 10.5962C19.4776 10.9029 19.1176 11.0562 18.7043 11.0562C18.4376 11.0562 18.231 10.9829 18.0843 10.8362C17.951 11.0762 17.8043 11.3029 17.6443 11.5162C17.4843 11.7162 17.3043 11.8962 17.1043 12.0562C16.651 12.4562 16.1843 12.6562 15.7043 12.6562ZM15.8443 12.4962C16.551 12.4962 17.2443 11.9562 17.9243 10.8762C17.9243 10.8362 17.9443 10.7962 17.9843 10.7562C17.7443 10.3562 17.6243 9.9762 17.6243 9.6162C17.6243 9.60286 17.6243 9.5762 17.6243 9.5362C17.6243 9.48286 17.631 9.4162 17.6443 9.3362C17.6576 9.18953 17.6843 9.04286 17.7243 8.8962C17.7643 8.7362 17.831 8.58953 17.9243 8.4562C18.1243 8.1362 18.3643 7.9762 18.6443 7.9762H18.8243C18.8776 7.98953 18.9176 7.9962 18.9443 7.9962C18.971 7.9962 18.991 7.9962 19.0043 7.9962C19.0043 6.7962 18.6243 6.1962 17.8643 6.1962C17.2243 6.1962 16.6176 6.58286 16.0443 7.3562C15.5776 7.96953 15.2443 8.6562 15.0443 9.4162C14.9243 9.82953 14.8643 10.2629 14.8643 10.7162C14.8643 11.9029 15.191 12.4962 15.8443 12.4962ZM21.9092 12.6362C20.8292 12.6362 20.2892 11.9229 20.2892 10.4962C20.2892 9.64286 20.4758 8.64953 20.8492 7.5162C21.0225 6.9962 21.2092 6.4962 21.4092 6.0162C21.6092 5.5362 21.8225 5.08953 22.0492 4.6762C22.3292 4.16953 22.6225 3.68953 22.9292 3.2362C23.2358 2.76953 23.5625 2.32953 23.9092 1.9162C24.9092 0.676196 25.7625 0.0561953 26.4692 0.0561953C26.7625 0.0561953 26.9092 0.196195 26.9092 0.476196C26.9092 0.849529 26.7558 1.42286 26.4492 2.1962C25.4225 4.74286 23.7558 7.06286 21.4492 9.1562C21.2225 9.9962 21.1092 10.6695 21.1092 11.1762C21.1092 12.0429 21.3825 12.4762 21.9292 12.4762C22.1158 12.4762 22.2958 12.4429 22.4692 12.3762C22.6425 12.2962 22.7958 12.2095 22.9292 12.1162C23.2892 11.8362 23.5958 11.5095 23.8492 11.1362C24.1025 10.7629 24.3225 10.3895 24.5092 10.0162C24.6958 9.64286 24.8625 9.32953 25.0092 9.0762C25.0492 9.00953 25.0892 8.98953 25.1292 9.0162C25.1692 9.02953 25.1758 9.06953 25.1492 9.1362C24.8825 9.6962 24.5892 10.2695 24.2692 10.8562C23.9492 11.4429 23.5425 11.9095 23.0492 12.2562C22.6892 12.5095 22.3092 12.6362 21.9092 12.6362ZM21.5092 8.9562C21.7758 8.72953 22.0558 8.44953 22.3492 8.1162C22.6425 7.78286 22.9558 7.40286 23.2892 6.9762C23.6225 6.54953 23.9625 6.0762 24.3092 5.5562C24.6558 5.0362 25.0025 4.4762 25.3492 3.8762C26.2825 2.28953 26.7492 1.18286 26.7492 0.556196C26.7492 0.329529 26.6758 0.216196 26.5292 0.216196C26.0358 0.216196 25.1558 1.2762 23.8892 3.3962C23.5558 3.9962 23.2558 4.5762 22.9892 5.1362C22.6692 5.84286 22.3825 6.5162 22.1292 7.1562C21.8892 7.78286 21.6825 8.38286 21.5092 8.9562ZM28.0837 4.8762C27.657 4.8762 27.4437 4.66953 27.4437 4.2562C27.4437 3.80286 27.6504 3.5762 28.0637 3.5762C28.4904 3.5762 28.7037 3.78286 28.7037 4.1962C28.7037 4.64953 28.497 4.8762 28.0837 4.8762ZM25.7237 12.6762C24.8437 12.6762 24.4037 12.1895 24.4037 11.2162C24.4037 10.5095 24.6104 9.76286 25.0237 8.9762L26.5237 6.0362H26.5837C26.6237 6.08953 26.7037 6.1162 26.8237 6.1162C27.077 6.1162 27.4104 5.96286 27.8237 5.6562L27.8637 5.6962L26.1637 8.9962C25.457 10.3562 25.1037 11.3029 25.1037 11.8362C25.1037 12.0762 25.1704 12.2429 25.3037 12.3362C25.437 12.4295 25.5904 12.4762 25.7637 12.4762C25.9504 12.4762 26.1304 12.4362 26.3037 12.3562C26.4904 12.2762 26.6504 12.1895 26.7837 12.0962C27.1437 11.8162 27.4437 11.4962 27.6837 11.1362C27.937 10.7629 28.157 10.3895 28.3437 10.0162C28.5304 9.64286 28.697 9.32953 28.8437 9.0762C28.8837 9.00953 28.9237 8.98953 28.9637 9.0162C29.0037 9.02953 29.0104 9.06953 28.9837 9.1362C28.717 9.6962 28.4237 10.2695 28.1037 10.8562C27.7837 11.4429 27.377 11.9095 26.8837 12.2562C26.7104 12.3762 26.5237 12.4762 26.3237 12.5562C26.137 12.6362 25.937 12.6762 25.7237 12.6762ZM29.6513 12.5362C28.7047 12.5362 28.2313 12.0695 28.2313 11.1362C28.2313 10.4029 28.5047 9.4762 29.0513 8.3562C29.078 8.30286 29.2047 8.06953 29.4313 7.6562C29.6713 7.22953 30.0113 6.62286 30.4513 5.8362H29.4113L29.3713 5.7962L29.3913 5.6762L29.4113 5.6562H30.5513L31.9913 3.1362C32.1113 3.18953 32.2513 3.2162 32.4113 3.2162C32.598 3.2162 32.798 3.14953 33.0113 3.0162C33.238 2.8962 33.3913 2.76286 33.4713 2.6162L33.5313 2.6362L31.7313 5.6562H33.1113L33.1313 5.6762V5.7962L33.0913 5.8362H31.6313L30.2713 8.2362C29.458 9.66286 29.0513 10.7629 29.0513 11.5362C29.0513 12.0829 29.2647 12.3562 29.6913 12.3562C30.358 12.3562 31.0313 11.9829 31.7113 11.2362C31.898 11.0362 32.118 10.7362 32.3713 10.3362C32.6247 9.9362 32.838 9.5562 33.0113 9.1962C33.038 9.12953 33.0713 9.10953 33.1113 9.1362C33.1647 9.14953 33.178 9.18953 33.1513 9.2562C32.9513 9.6562 32.738 10.0362 32.5113 10.3962C32.298 10.7562 32.0513 11.0895 31.7713 11.3962C31.078 12.1562 30.3713 12.5362 29.6513 12.5362ZM37.6301 12.5362C36.9368 12.5362 36.5901 12.0562 36.5901 11.0962C36.5901 10.7229 36.6501 10.2962 36.7701 9.8162C35.8368 11.6162 34.9101 12.5162 33.9901 12.5162C33.5501 12.5162 33.2168 12.2962 32.9901 11.8562C32.8034 11.5229 32.7101 11.1029 32.7101 10.5962C32.7101 10.1829 32.7701 9.74953 32.8901 9.2962C33.1168 8.50953 33.5968 7.76953 34.3301 7.0762C35.1434 6.32953 35.9168 5.9562 36.6501 5.9562C37.3168 5.9562 37.6501 6.3562 37.6501 7.1562C37.6501 7.50286 37.5768 7.90953 37.4301 8.3762L38.6501 5.9762H38.7101C38.7501 6.04286 38.8368 6.0762 38.9701 6.0762C39.2368 6.0762 39.5768 5.9162 39.9901 5.5962L40.0301 5.6362L38.3301 8.9562C37.6501 10.2762 37.3101 11.2762 37.3101 11.9562C37.3101 12.2229 37.4301 12.3562 37.6701 12.3562C37.8301 12.3562 38.0234 12.2962 38.2501 12.1762C38.4768 12.0562 38.7168 11.8562 38.9701 11.5762C39.2901 11.2029 39.5634 10.8495 39.7901 10.5162C40.0301 10.1695 40.3034 9.70286 40.6101 9.1162C40.6501 9.04953 40.6901 9.0162 40.7301 9.0162C40.8101 9.0162 40.8101 9.08286 40.7301 9.2162C40.4901 9.66953 40.2301 10.1229 39.9501 10.5762C39.6834 11.0162 39.3568 11.4295 38.9701 11.8162C38.4901 12.2962 38.0434 12.5362 37.6301 12.5362ZM34.0701 12.3762C34.8168 12.3762 35.7768 11.3229 36.9501 9.2162C37.3234 8.54953 37.5101 7.8762 37.5101 7.1962C37.5101 6.4762 37.2768 6.1162 36.8101 6.1162C36.3034 6.1162 35.7301 6.5362 35.0901 7.3762C34.8368 7.72286 34.6168 8.06286 34.4301 8.3962C34.2568 8.72953 34.1168 9.04953 34.0101 9.3562C33.7301 10.1562 33.5901 10.8762 33.5901 11.5162C33.5901 12.0895 33.7501 12.3762 34.0701 12.3762Z" fill="#6B6B6B"/>
</svg>
