<svg width="39" height="20" viewBox="0 0 39 20" fill="none" xmlns="http://www.w3.org/2000/svg">
<path d="M0.289001 14.7614C0.289001 14.6897 0.308533 14.6344 0.347595 14.5953C0.386658 14.5498 0.432231 14.5172 0.484314 14.4977C0.542908 14.4716 0.601501 14.4554 0.660095 14.4489C0.725199 14.4423 0.780538 14.4391 0.826111 14.4391H1.40228C1.45437 14.4391 1.51622 14.4228 1.58783 14.3903C1.65944 14.3512 1.69525 14.3056 1.69525 14.2535V8.77502C1.70827 8.50159 1.71804 8.27047 1.72455 8.08167C1.73757 7.89286 1.74408 7.70732 1.74408 7.52502C1.75059 7.33622 1.75385 7.1344 1.75385 6.91956C1.75385 6.6982 1.75385 6.42802 1.75385 6.10901C1.75385 6.05042 1.73431 5.99182 1.69525 5.93323C1.6627 5.87463 1.6334 5.83557 1.60736 5.81604C1.55528 5.80302 1.5097 5.79325 1.47064 5.78674C1.43809 5.77372 1.39903 5.76721 1.35345 5.76721C1.26231 5.76721 1.17116 5.78023 1.08002 5.80627C0.995382 5.82581 0.89447 5.83557 0.777283 5.83557C0.725199 5.83557 0.666606 5.83232 0.601501 5.82581C0.536397 5.8193 0.477804 5.80627 0.42572 5.78674C0.373637 5.76721 0.328064 5.73792 0.289001 5.69885C0.256449 5.65979 0.240173 5.60445 0.240173 5.53284C0.240173 5.48726 0.246684 5.44169 0.259705 5.39612C0.279236 5.34403 0.311788 5.31148 0.357361 5.29846C0.370382 5.27893 0.396423 5.26591 0.435486 5.2594C0.474548 5.25289 0.510356 5.24963 0.542908 5.24963C0.842387 5.24963 1.08327 5.25289 1.26556 5.2594C1.45437 5.26591 1.62038 5.27242 1.76361 5.27893C1.90684 5.27893 2.04681 5.28219 2.18353 5.2887C2.32676 5.29521 2.5058 5.29846 2.72064 5.29846C2.79877 5.29846 2.91595 5.29521 3.0722 5.2887C3.23497 5.28219 3.39773 5.27568 3.56049 5.26917C3.72976 5.25614 3.88275 5.24638 4.01947 5.23987C4.1627 5.23336 4.25385 5.2301 4.29291 5.2301C4.35801 5.2301 4.42637 5.23336 4.49799 5.23987C4.57611 5.24638 4.64773 5.2594 4.71283 5.27893C4.77793 5.29846 4.83327 5.33101 4.87885 5.37659C4.92442 5.42216 4.9472 5.48401 4.9472 5.56213C4.9472 5.63375 4.91791 5.69885 4.85931 5.75745C4.80723 5.80953 4.73562 5.83557 4.64447 5.83557C4.55332 5.83557 4.46543 5.83232 4.3808 5.82581C4.30267 5.81278 4.20502 5.80627 4.08783 5.80627C4.03575 5.80627 3.98692 5.80953 3.94135 5.81604C3.90228 5.81604 3.85671 5.82255 3.80463 5.83557C3.67442 5.88114 3.59955 5.92997 3.58002 5.98206C3.56049 6.03414 3.54421 6.12203 3.53119 6.24573C3.49864 6.62333 3.47911 7.0107 3.4726 7.40784C3.46608 7.79846 3.46283 8.18583 3.46283 8.56995V11.3141C3.46283 11.5485 3.45957 11.7503 3.45306 11.9196C3.44655 12.0823 3.44004 12.2516 3.43353 12.4274C3.43353 12.6031 3.43028 12.805 3.42377 13.0328C3.41726 13.2607 3.414 13.5537 3.414 13.9117C3.414 14.2698 3.48562 14.4489 3.62885 14.4489H4.6933C4.76491 14.4489 4.817 14.4814 4.84955 14.5465C4.8821 14.6116 4.89838 14.6637 4.89838 14.7028C4.89838 14.7939 4.8821 14.859 4.84955 14.8981C4.817 14.9306 4.74864 14.9729 4.64447 15.025H4.10736C4.04877 15.025 3.95762 15.0218 3.83392 15.0153C3.71674 15.0087 3.58327 15.0022 3.43353 14.9957C3.2903 14.9957 3.13731 14.9925 2.97455 14.986C2.81179 14.9795 2.65879 14.9762 2.51556 14.9762C2.15098 14.9762 1.79616 14.9827 1.45111 14.9957C1.11257 15.0153 0.848897 15.025 0.660095 15.025C0.568949 15.025 0.484314 15.0087 0.406189 14.9762C0.328064 14.9502 0.289001 14.8785 0.289001 14.7614ZM11.1288 4.9762C11.0182 4.9762 10.8912 5.00549 10.748 5.06409C10.6113 5.12268 10.468 5.20732 10.3183 5.31799C10.1686 5.42216 10.0221 5.54911 9.87885 5.69885C9.73562 5.84208 9.60541 6.00159 9.48822 6.17737C9.33197 6.39872 9.19851 6.63961 9.08783 6.90002C8.98366 7.15393 8.89577 7.40784 8.82416 7.66174C8.75905 7.91565 8.71023 8.15979 8.67767 8.39417C8.65163 8.62854 8.63861 8.83362 8.63861 9.0094C8.63861 9.29586 8.65814 9.58557 8.6972 9.87854C8.73627 10.165 8.79812 10.4482 8.88275 10.7281C8.9739 11.0016 9.08783 11.2685 9.22455 11.5289C9.36778 11.7828 9.5403 12.0205 9.74213 12.2418C9.93093 12.4697 10.162 12.6487 10.4355 12.7789C10.7089 12.9026 11.0019 12.9645 11.3144 12.9645C11.6269 12.9645 11.9068 12.9026 12.1542 12.7789C12.4081 12.6552 12.6328 12.4925 12.8281 12.2906C13.0299 12.0823 13.1992 11.8447 13.3359 11.5778C13.4791 11.3108 13.5963 11.0309 13.6874 10.7379C13.7851 10.4449 13.8535 10.1487 13.8925 9.84924C13.9381 9.54976 13.9609 9.26982 13.9609 9.0094C13.9609 8.71643 13.9316 8.42997 13.873 8.15002C13.8144 7.86357 13.7428 7.58362 13.6581 7.31018C13.567 6.99768 13.4498 6.70797 13.3066 6.44104C13.1699 6.1676 13.0071 5.92672 12.8183 5.71838C12.5644 5.4189 12.304 5.22034 12.037 5.12268C11.7701 5.02502 11.4674 4.9762 11.1288 4.9762ZM13.2187 12.6324C13.2057 12.6324 13.1992 12.6292 13.1992 12.6227C13.1926 12.6227 13.1894 12.6194 13.1894 12.6129C12.8443 12.8408 12.5091 13.0263 12.1835 13.1696C11.858 13.3128 11.5064 13.3844 11.1288 13.3844C10.927 13.3844 10.7057 13.3584 10.4648 13.3063C10.2304 13.2477 9.99278 13.1696 9.75189 13.0719C9.51752 12.9742 9.28965 12.8636 9.0683 12.7399C8.85345 12.6097 8.66465 12.4762 8.50189 12.3395C8.35215 12.2158 8.18614 12.04 8.00385 11.8121C7.82806 11.5778 7.65879 11.3108 7.49603 11.0114C7.33327 10.7119 7.19655 10.3864 7.08588 10.0348C6.98171 9.68323 6.92963 9.31864 6.92963 8.94104C6.92963 8.38114 7.04681 7.83752 7.28119 7.31018C7.52207 6.78284 7.84108 6.31734 8.23822 5.9137C8.63536 5.50354 9.09108 5.17802 9.60541 4.93713C10.1262 4.68974 10.6666 4.56604 11.2265 4.56604C11.6757 4.56604 12.1249 4.65068 12.5742 4.81995C13.0234 4.98922 13.4238 5.22685 13.7753 5.53284C14.0553 5.77372 14.3092 6.04716 14.537 6.35315C14.7649 6.65914 14.957 6.98466 15.1132 7.32971C15.2695 7.67476 15.3899 8.03284 15.4745 8.40393C15.5592 8.77502 15.6015 9.14612 15.6015 9.51721C15.6015 10.0641 15.5234 10.6142 15.3671 11.1676C15.2109 11.721 14.996 12.2679 14.7226 12.8082C14.4557 13.3421 14.1432 13.8597 13.7851 14.361C13.427 14.8558 13.0462 15.318 12.6425 15.7477C12.2389 16.1839 11.8222 16.5745 11.3925 16.9196C10.9693 17.2711 10.5592 17.5641 10.162 17.7985C9.98627 17.9026 9.82025 17.997 9.664 18.0817C9.50775 18.1663 9.34174 18.2509 9.16595 18.3356C8.96413 18.4267 8.75254 18.5179 8.53119 18.609C8.30983 18.7002 8.08523 18.7815 7.85736 18.8531C7.63601 18.9248 7.41791 18.9834 7.20306 19.0289C6.98822 19.0745 6.7864 19.0973 6.5976 19.0973C6.539 19.0973 6.5097 19.068 6.5097 19.0094C6.5097 18.9899 6.51622 18.9703 6.52924 18.9508C6.52924 18.9378 6.55202 18.9052 6.5976 18.8531C6.64317 18.8076 6.72129 18.749 6.83197 18.6774C7.00124 18.5602 7.16726 18.456 7.33002 18.3649C7.49278 18.2802 7.65554 18.1956 7.8183 18.111C7.98106 18.0328 8.14056 17.9482 8.29681 17.8571C8.45306 17.7724 8.60606 17.6748 8.7558 17.5641C9.24408 17.2125 9.70306 16.8382 10.1328 16.441C10.5689 16.0504 11.0019 15.6403 11.4316 15.2106C11.5423 15.0999 11.6985 14.9339 11.9003 14.7125C12.1022 14.4912 12.3007 14.2568 12.496 14.0094C12.6913 13.7555 12.8606 13.5048 13.0038 13.2574C13.1471 13.0101 13.2187 12.8017 13.2187 12.6324ZM19.3906 3.47229C19.3906 3.67411 19.4068 3.88896 19.4394 4.11682C19.4719 4.33818 19.524 4.52372 19.5956 4.67346C19.6998 4.88831 19.8626 5.10966 20.0839 5.33752C20.3053 5.55888 20.5494 5.77698 20.8163 5.99182C21.0898 6.20667 21.3632 6.40849 21.6367 6.59729C21.9166 6.78609 22.164 6.94885 22.3788 7.08557C22.4374 7.13114 22.5058 7.17021 22.5839 7.20276C22.6686 7.2288 22.7239 7.24182 22.7499 7.24182C22.789 7.24182 22.8443 7.21578 22.916 7.1637C22.9941 7.11161 23.0722 7.04976 23.1503 6.97815C23.2285 6.90653 23.3001 6.83818 23.3652 6.77307C23.4368 6.70146 23.4856 6.64937 23.5117 6.61682C23.8046 6.26526 24.0032 5.85836 24.1074 5.39612C24.218 4.93388 24.2734 4.46838 24.2734 3.99963C24.2734 3.36812 24.166 2.85706 23.9511 2.46643C23.7363 2.0693 23.4368 1.74052 23.0527 1.4801C22.968 1.40849 22.8281 1.34989 22.6328 1.30432C22.4439 1.25224 22.2682 1.2262 22.1054 1.2262C21.7994 1.2262 21.4869 1.28153 21.1679 1.39221C20.8489 1.49638 20.5559 1.64612 20.289 1.84143C20.0286 2.03674 19.8137 2.27437 19.6445 2.55432C19.4752 2.82776 19.3906 3.13375 19.3906 3.47229ZM18.9706 10.8844C18.9706 11.2425 19.0097 11.6071 19.0878 11.9781C19.1725 12.3427 19.3027 12.678 19.4785 12.984C19.6542 13.2835 19.8821 13.5309 20.162 13.7262C20.4485 13.915 20.7936 14.0094 21.1972 14.0094C21.5423 14.0094 21.8873 13.9736 22.2324 13.902C22.5839 13.8239 22.8964 13.7034 23.1699 13.5406C23.4498 13.3779 23.6777 13.1663 23.8535 12.9059C24.0292 12.639 24.1171 12.3199 24.1171 11.9489C24.1171 11.6103 24.065 11.2913 23.9609 10.9918C23.8567 10.6923 23.7135 10.4124 23.5312 10.152C23.3554 9.89156 23.1503 9.65068 22.916 9.42932C22.6881 9.20797 22.4472 9.00289 22.1933 8.81409C22.0566 8.70992 21.9426 8.62854 21.8515 8.56995C21.7604 8.50484 21.6725 8.4495 21.5878 8.40393C21.5097 8.35185 21.4218 8.30627 21.3242 8.26721C21.2265 8.22164 21.0995 8.1663 20.9433 8.1012C20.8782 8.07515 20.8391 8.06213 20.8261 8.06213C20.774 8.06213 20.7285 8.08167 20.6894 8.12073C20.5397 8.2314 20.4029 8.34208 20.2792 8.45276C20.1555 8.56344 20.0384 8.68062 19.9277 8.80432C19.8235 8.92151 19.7226 9.04846 19.6249 9.18518C19.5273 9.3219 19.4329 9.47164 19.3417 9.6344C19.2311 9.82971 19.1399 10.0315 19.0683 10.2399C19.0032 10.4482 18.9706 10.663 18.9706 10.8844ZM17.7011 10.8551C17.7011 10.5296 17.7369 10.2203 17.8085 9.92737C17.8867 9.62789 18.0006 9.35445 18.1503 9.10706C18.3066 8.85315 18.5019 8.63505 18.7363 8.45276C18.9706 8.26396 19.2506 8.11422 19.5761 8.00354C19.7128 7.95797 19.8691 7.91565 20.0449 7.87659C20.2206 7.83101 20.3671 7.76917 20.4843 7.69104C20.3867 7.56083 20.2564 7.44039 20.0937 7.32971C19.9374 7.21903 19.7942 7.10836 19.664 6.99768C19.1041 6.5094 18.7037 6.00159 18.4628 5.47424C18.2219 4.9469 18.1015 4.37073 18.1015 3.74573C18.1015 3.53088 18.1471 3.30627 18.2382 3.0719C18.3294 2.83752 18.4303 2.62594 18.541 2.43713C18.7298 2.13114 18.9479 1.87398 19.1953 1.66565C19.4426 1.45732 19.7128 1.2913 20.0058 1.1676C20.2988 1.03739 20.608 0.946248 20.9335 0.894165C21.2591 0.835571 21.5943 0.806274 21.9394 0.806274C22.4993 0.806274 23.0136 0.877889 23.4824 1.02112C23.9511 1.16435 24.3515 1.37919 24.6835 1.66565C25.0221 1.95211 25.2857 2.31018 25.4745 2.73987C25.6634 3.16956 25.7578 3.67086 25.7578 4.24377C25.7578 4.61487 25.7024 4.98271 25.5917 5.34729C25.4811 5.71187 25.3183 6.0439 25.1035 6.34338C24.8951 6.63635 24.638 6.88375 24.332 7.08557C24.0325 7.28088 23.6907 7.39807 23.3066 7.43713C23.2805 7.43713 23.261 7.45015 23.248 7.4762C23.235 7.49573 23.2285 7.512 23.2285 7.52502C23.2285 7.55107 23.2382 7.57385 23.2578 7.59338C23.2708 7.6064 23.2838 7.61617 23.2968 7.62268C23.4921 7.77893 23.6907 7.94495 23.8925 8.12073C24.0943 8.29 24.2864 8.47555 24.4687 8.67737C24.6575 8.87268 24.8235 9.08101 24.9667 9.30237C25.1165 9.52372 25.2337 9.7581 25.3183 10.0055C25.3964 10.2138 25.4485 10.4417 25.4745 10.6891C25.5071 10.93 25.5234 11.1546 25.5234 11.3629C25.5234 11.9749 25.3899 12.4957 25.123 12.9254C24.8626 13.3551 24.5208 13.7067 24.0976 13.9801C23.6809 14.2535 23.2089 14.4521 22.6816 14.5758C22.1607 14.6995 21.6367 14.7614 21.1093 14.7614C20.9986 14.7614 20.8684 14.7483 20.7187 14.7223C20.5689 14.6897 20.4192 14.6507 20.2695 14.6051C20.1197 14.553 19.9765 14.4977 19.8398 14.4391C19.7031 14.3805 19.5924 14.3219 19.5078 14.2633C19.2213 14.0875 18.9674 13.8792 18.746 13.6383C18.5247 13.3909 18.3359 13.1207 18.1796 12.8278C18.0234 12.5348 17.9029 12.2223 17.8183 11.8903C17.7402 11.5517 17.7011 11.2067 17.7011 10.8551ZM32.9453 13.1012L32.8867 8.26721C32.8867 8.1956 32.8769 8.11747 32.8574 8.03284C32.8443 7.94169 32.8216 7.89612 32.789 7.89612C32.6913 7.89612 32.6067 7.94169 32.5351 8.03284C32.2161 8.41044 31.9068 8.78153 31.6074 9.14612C31.3079 9.50419 31.0019 9.87203 30.6894 10.2496C30.3834 10.6272 30.0644 11.0211 29.7324 11.4313C29.4068 11.8349 29.052 12.2679 28.6679 12.7301C28.6093 12.8017 28.5637 12.8571 28.5312 12.8961C28.4986 12.9352 28.4824 12.971 28.4824 13.0035C28.4824 13.0686 28.5051 13.1012 28.5507 13.1012H32.9453ZM33.0234 14.7906H26.7441C26.718 14.7906 26.6953 14.7809 26.6757 14.7614C26.6627 14.7418 26.6562 14.7223 26.6562 14.7028C26.6562 14.6897 26.666 14.6637 26.6855 14.6246C26.7115 14.5856 26.7408 14.5433 26.7734 14.4977C26.8124 14.4521 26.8482 14.4065 26.8808 14.361C26.9199 14.3154 26.9524 14.2796 26.9785 14.2535C27.1217 14.1038 27.2617 13.9508 27.3984 13.7946C27.5351 13.6318 27.6555 13.4853 27.7597 13.3551C28.5279 12.359 29.2897 11.4052 30.0449 10.4938C30.8001 9.57581 31.5618 8.64807 32.33 7.71057C32.4147 7.59989 32.5221 7.46969 32.6523 7.31995C32.789 7.17021 32.9322 7.00745 33.082 6.83167C33.2382 6.65588 33.3945 6.47359 33.5507 6.28479C33.707 6.08948 33.8535 5.89417 33.9902 5.69885C34.0357 5.62724 34.0976 5.55888 34.1757 5.49377C34.2538 5.42867 34.3255 5.39612 34.3906 5.39612C34.4687 5.39612 34.524 5.42542 34.5566 5.48401C34.5956 5.53609 34.6152 5.59794 34.6152 5.66956C34.6152 5.77372 34.5989 5.87138 34.5663 5.96252C34.5403 6.04716 34.5273 6.14482 34.5273 6.25549V13.1696C34.6966 13.1696 34.9147 13.163 35.1816 13.15C35.4485 13.137 35.7317 13.124 36.0312 13.111C36.3372 13.0979 36.6432 13.0849 36.9492 13.0719C37.2617 13.0589 37.5481 13.0524 37.8085 13.0524C37.9192 13.0003 38.0104 12.9124 38.082 12.7887C38.1536 12.665 38.2219 12.538 38.287 12.4078C38.3587 12.2776 38.4335 12.1637 38.5117 12.066C38.5963 11.9684 38.7037 11.9196 38.8339 11.9196C38.8339 12.1539 38.7949 12.3753 38.7167 12.5836C38.6386 12.7854 38.5768 12.997 38.5312 13.2184C38.4466 13.6285 38.3652 14.0647 38.287 14.527C38.2089 14.9827 38.1341 15.4352 38.0624 15.8844C38.0624 15.9039 38.0527 15.9202 38.0331 15.9332C38.0136 15.9462 37.9941 15.9528 37.9745 15.9528C37.929 15.9528 37.8932 15.9007 37.8671 15.7965C37.8476 15.6923 37.8248 15.5719 37.7988 15.4352C37.7792 15.305 37.7467 15.1748 37.7011 15.0446C37.6555 14.9209 37.5904 14.8362 37.5058 14.7906C37.3886 14.7321 37.2128 14.6865 36.9785 14.6539C36.7506 14.6214 36.5032 14.5986 36.2363 14.5856C35.9693 14.5726 35.7024 14.566 35.4355 14.566C35.1751 14.5595 34.9505 14.5563 34.7617 14.5563C34.677 14.5563 34.6152 14.5628 34.5761 14.5758C34.5436 14.5888 34.5273 14.6214 34.5273 14.6735V19.4684C34.5273 19.54 34.4687 19.5953 34.3515 19.6344C34.2408 19.6735 34.1139 19.7028 33.9706 19.7223C33.8339 19.7418 33.7005 19.7516 33.5703 19.7516C33.44 19.7581 33.3554 19.7614 33.3163 19.7614C33.2578 19.7614 33.1926 19.7516 33.121 19.7321C33.0559 19.719 33.0234 19.667 33.0234 19.5758V14.7906Z" fill="#6B6B6B"/>
</svg>
